<svg width="134" height="199" viewBox="0 0 134 199" fill="none" xmlns="http://www.w3.org/2000/svg">
<path d="M8.375 163.066H3.875V166.113H9.15625V167.995H1.53125V156.62H9.14062V158.519H3.875V161.23H8.375V163.066ZM15.2812 167.995C15.1771 167.792 15.1016 167.54 15.0547 167.238C14.5078 167.847 13.7969 168.152 12.9219 168.152C12.0938 168.152 11.4062 167.912 10.8594 167.433C10.3177 166.954 10.0469 166.35 10.0469 165.62C10.0469 164.725 10.3776 164.037 11.0391 163.558C11.7057 163.079 12.6667 162.837 13.9219 162.831H14.9609V162.347C14.9609 161.956 14.8594 161.644 14.6562 161.409C14.4583 161.175 14.1432 161.058 13.7109 161.058C13.3307 161.058 13.0312 161.149 12.8125 161.331C12.599 161.514 12.4922 161.764 12.4922 162.081H10.2344C10.2344 161.592 10.3854 161.139 10.6875 160.722C10.9896 160.305 11.4167 159.98 11.9688 159.745C12.5208 159.506 13.1406 159.386 13.8281 159.386C14.8698 159.386 15.6953 159.649 16.3047 160.175C16.9193 160.696 17.2266 161.43 17.2266 162.378V166.042C17.2318 166.844 17.3438 167.451 17.5625 167.863V167.995H15.2812ZM13.4141 166.425C13.7474 166.425 14.0547 166.352 14.3359 166.206C14.6172 166.055 14.8255 165.855 14.9609 165.605V164.152H14.1172C12.987 164.152 12.3854 164.542 12.3125 165.323L12.3047 165.456C12.3047 165.738 12.4036 165.969 12.6016 166.152C12.7995 166.334 13.0703 166.425 13.4141 166.425ZM23.7109 161.659C23.4036 161.618 23.1328 161.597 22.8984 161.597C22.0443 161.597 21.4844 161.886 21.2188 162.464V167.995H18.9609V159.542H21.0938L21.1562 160.55C21.6094 159.774 22.237 159.386 23.0391 159.386C23.2891 159.386 23.5234 159.42 23.7422 159.488L23.7109 161.659ZM27.8984 157.464V159.542H29.3438V161.198H27.8984V165.417C27.8984 165.73 27.9583 165.954 28.0781 166.089C28.1979 166.225 28.4271 166.292 28.7656 166.292C29.0156 166.292 29.237 166.274 29.4297 166.238V167.948C28.987 168.084 28.5312 168.152 28.0625 168.152C26.4792 168.152 25.6719 167.352 25.6406 165.753V161.198H24.4062V159.542H25.6406V157.464H27.8984ZM32.8047 160.464C33.4036 159.745 34.1562 159.386 35.0625 159.386C36.8958 159.386 37.8255 160.451 37.8516 162.581V167.995H35.5938V162.644C35.5938 162.159 35.4896 161.803 35.2812 161.573C35.0729 161.339 34.7266 161.222 34.2422 161.222C33.5807 161.222 33.1016 161.477 32.8047 161.988V167.995H30.5469V155.995H32.8047V160.464ZM49.5859 165.011C49.5859 164.568 49.4297 164.23 49.1172 163.995C48.8047 163.756 48.2422 163.506 47.4297 163.245C46.6172 162.98 45.974 162.719 45.5 162.464C44.2083 161.766 43.5625 160.826 43.5625 159.644C43.5625 159.029 43.7344 158.482 44.0781 158.003C44.4271 157.519 44.9245 157.141 45.5703 156.87C46.2214 156.6 46.9505 156.464 47.7578 156.464C48.5703 156.464 49.2943 156.613 49.9297 156.909C50.5651 157.201 51.0573 157.615 51.4062 158.152C51.7604 158.688 51.9375 159.297 51.9375 159.98H49.5938C49.5938 159.459 49.4297 159.055 49.1016 158.769C48.7734 158.477 48.3125 158.331 47.7188 158.331C47.1458 158.331 46.7005 158.454 46.3828 158.698C46.0651 158.938 45.9062 159.256 45.9062 159.652C45.9062 160.021 46.0911 160.331 46.4609 160.581C46.8359 160.831 47.3854 161.066 48.1094 161.284C49.4427 161.685 50.4141 162.183 51.0234 162.777C51.6328 163.37 51.9375 164.11 51.9375 164.995C51.9375 165.98 51.5651 166.753 50.8203 167.316C50.0755 167.873 49.0729 168.152 47.8125 168.152C46.9375 168.152 46.1406 167.993 45.4219 167.675C44.7031 167.352 44.1536 166.912 43.7734 166.355C43.3984 165.797 43.2109 165.152 43.2109 164.417H45.5625C45.5625 165.672 46.3125 166.3 47.8125 166.3C48.3698 166.3 48.8047 166.188 49.1172 165.964C49.4297 165.735 49.5859 165.417 49.5859 165.011ZM58.2812 167.995C58.1771 167.792 58.1016 167.54 58.0547 167.238C57.5078 167.847 56.7969 168.152 55.9219 168.152C55.0938 168.152 54.4062 167.912 53.8594 167.433C53.3177 166.954 53.0469 166.35 53.0469 165.62C53.0469 164.725 53.3776 164.037 54.0391 163.558C54.7057 163.079 55.6667 162.837 56.9219 162.831H57.9609V162.347C57.9609 161.956 57.8594 161.644 57.6562 161.409C57.4583 161.175 57.1432 161.058 56.7109 161.058C56.3307 161.058 56.0312 161.149 55.8125 161.331C55.599 161.514 55.4922 161.764 55.4922 162.081H53.2344C53.2344 161.592 53.3854 161.139 53.6875 160.722C53.9896 160.305 54.4167 159.98 54.9688 159.745C55.5208 159.506 56.1406 159.386 56.8281 159.386C57.8698 159.386 58.6953 159.649 59.3047 160.175C59.9193 160.696 60.2266 161.43 60.2266 162.378V166.042C60.2318 166.844 60.3438 167.451 60.5625 167.863V167.995H58.2812ZM56.4141 166.425C56.7474 166.425 57.0547 166.352 57.3359 166.206C57.6172 166.055 57.8255 165.855 57.9609 165.605V164.152H57.1172C55.987 164.152 55.3854 164.542 55.3125 165.323L55.3047 165.456C55.3047 165.738 55.4036 165.969 55.6016 166.152C55.7995 166.334 56.0703 166.425 56.4141 166.425ZM65 165.238L66.5703 159.542H68.9297L66.0781 167.995H63.9219L61.0703 159.542H63.4297L65 165.238ZM73.7109 168.152C72.4714 168.152 71.4609 167.771 70.6797 167.011C69.9036 166.251 69.5156 165.238 69.5156 163.972V163.753C69.5156 162.904 69.6797 162.146 70.0078 161.48C70.3359 160.808 70.7995 160.292 71.3984 159.933C72.0026 159.568 72.6901 159.386 73.4609 159.386C74.6172 159.386 75.526 159.751 76.1875 160.48C76.8542 161.209 77.1875 162.243 77.1875 163.581V164.503H71.8047C71.8776 165.055 72.0964 165.498 72.4609 165.831C72.8307 166.165 73.2969 166.331 73.8594 166.331C74.7292 166.331 75.4089 166.016 75.8984 165.386L77.0078 166.628C76.6693 167.107 76.2109 167.482 75.6328 167.753C75.0547 168.019 74.4141 168.152 73.7109 168.152ZM73.4531 161.214C73.0052 161.214 72.6406 161.365 72.3594 161.667C72.0833 161.969 71.9062 162.402 71.8281 162.964H74.9688V162.784C74.9583 162.284 74.8229 161.899 74.5625 161.628C74.3021 161.352 73.9323 161.214 73.4531 161.214ZM83.2266 161.659C82.9193 161.618 82.6484 161.597 82.4141 161.597C81.5599 161.597 81 161.886 80.7344 162.464V167.995H78.4766V159.542H80.6094L80.6719 160.55C81.125 159.774 81.7526 159.386 82.5547 159.386C82.8047 159.386 83.0391 159.42 83.2578 159.488L83.2266 161.659ZM94.875 165.652H90.7656L89.9844 167.995H87.4922L91.7266 156.62H93.8984L98.1562 167.995H95.6641L94.875 165.652ZM91.3984 163.753H94.2422L92.8125 159.495L91.3984 163.753ZM106.156 164.925L107.266 159.542H109.445L107.289 167.995H105.398L103.797 162.675L102.195 167.995H100.312L98.1562 159.542H100.336L101.438 164.917L102.984 159.542H104.617L106.156 164.925ZM115.469 167.995C115.365 167.792 115.289 167.54 115.242 167.238C114.695 167.847 113.984 168.152 113.109 168.152C112.281 168.152 111.594 167.912 111.047 167.433C110.505 166.954 110.234 166.35 110.234 165.62C110.234 164.725 110.565 164.037 111.227 163.558C111.893 163.079 112.854 162.837 114.109 162.831H115.148V162.347C115.148 161.956 115.047 161.644 114.844 161.409C114.646 161.175 114.331 161.058 113.898 161.058C113.518 161.058 113.219 161.149 113 161.331C112.786 161.514 112.68 161.764 112.68 162.081H110.422C110.422 161.592 110.573 161.139 110.875 160.722C111.177 160.305 111.604 159.98 112.156 159.745C112.708 159.506 113.328 159.386 114.016 159.386C115.057 159.386 115.883 159.649 116.492 160.175C117.107 160.696 117.414 161.43 117.414 162.378V166.042C117.419 166.844 117.531 167.451 117.75 167.863V167.995H115.469ZM113.602 166.425C113.935 166.425 114.242 166.352 114.523 166.206C114.805 166.055 115.013 165.855 115.148 165.605V164.152H114.305C113.174 164.152 112.573 164.542 112.5 165.323L112.492 165.456C112.492 165.738 112.591 165.969 112.789 166.152C112.987 166.334 113.258 166.425 113.602 166.425ZM123.898 161.659C123.591 161.618 123.32 161.597 123.086 161.597C122.232 161.597 121.672 161.886 121.406 162.464V167.995H119.148V159.542H121.281L121.344 160.55C121.797 159.774 122.424 159.386 123.227 159.386C123.477 159.386 123.711 159.42 123.93 159.488L123.898 161.659ZM124.484 163.706C124.484 162.389 124.779 161.339 125.367 160.558C125.961 159.777 126.771 159.386 127.797 159.386C128.62 159.386 129.299 159.693 129.836 160.308V155.995H132.102V167.995H130.062L129.953 167.097C129.391 167.8 128.667 168.152 127.781 168.152C126.786 168.152 125.987 167.761 125.383 166.98C124.784 166.193 124.484 165.102 124.484 163.706ZM126.742 163.87C126.742 164.662 126.88 165.269 127.156 165.691C127.432 166.113 127.833 166.323 128.359 166.323C129.057 166.323 129.549 166.029 129.836 165.441V162.105C129.555 161.516 129.068 161.222 128.375 161.222C127.286 161.222 126.742 162.105 126.742 163.87Z" fill="#1D2130"/>
<path opacity="0.6" d="M21.1621 192.138L23.3301 185.464H24.959L21.8887 193.995H20.4531L17.3945 185.464H19.0176L21.1621 192.138ZM27.4902 193.995H26.0137V185.464H27.4902V193.995ZM34.2988 190.187H30.7949V192.812H34.8906V193.995H29.3125V185.464H34.8496V186.659H30.7949V189.015H34.2988V190.187ZM42.8652 193.995H41.3828L37.5801 187.943V193.995H36.0977V185.464H37.5801L41.3945 191.54V185.464H42.8652V193.995ZM51.3848 193.995H49.9023L46.0996 187.943V193.995H44.6172V185.464H46.0996L49.9141 191.54V185.464H51.3848V193.995ZM58.0176 192.009H54.7129L54.0215 193.995H52.4805L55.7031 185.464H57.0332L60.2617 193.995H58.7148L58.0176 192.009ZM55.1289 190.814H57.6016L56.3652 187.275L55.1289 190.814ZM61.2988 195.917L60.5312 195.46C60.7578 195.105 60.9121 194.794 60.9941 194.529C61.0801 194.267 61.125 193.999 61.1289 193.726V192.618H62.4121L62.4062 193.644C62.4023 194.058 62.2969 194.472 62.0898 194.886C61.8867 195.304 61.623 195.648 61.2988 195.917ZM71.6348 192.009H68.3301L67.6387 193.995H66.0977L69.3203 185.464H70.6504L73.8789 193.995H72.332L71.6348 192.009ZM68.7461 190.814H71.2188L69.9824 187.275L68.7461 190.814ZM80.9863 185.464V191.165C80.9863 192.072 80.6953 192.79 80.1133 193.322C79.5352 193.849 78.7637 194.113 77.7988 194.113C76.8223 194.113 76.0469 193.853 75.4727 193.333C74.8984 192.81 74.6113 192.085 74.6113 191.159V185.464H76.0879V191.171C76.0879 191.741 76.2324 192.177 76.5215 192.478C76.8105 192.779 77.2363 192.929 77.7988 192.929C78.9395 192.929 79.5098 192.327 79.5098 191.124V185.464H80.9863ZM87.0332 191.798C87.0332 191.423 86.9004 191.134 86.6348 190.931C86.373 190.728 85.8984 190.523 85.2109 190.316C84.5234 190.109 83.9766 189.878 83.5703 189.624C82.793 189.136 82.4043 188.499 82.4043 187.714C82.4043 187.027 82.6836 186.46 83.2422 186.015C83.8047 185.57 84.5332 185.347 85.4277 185.347C86.0215 185.347 86.5508 185.456 87.0156 185.675C87.4805 185.894 87.8457 186.206 88.1113 186.613C88.377 187.015 88.5098 187.462 88.5098 187.954H87.0332C87.0332 187.509 86.8926 187.161 86.6113 186.911C86.334 186.657 85.9355 186.531 85.416 186.531C84.9316 186.531 84.5547 186.634 84.2852 186.841C84.0195 187.048 83.8867 187.337 83.8867 187.708C83.8867 188.021 84.0312 188.282 84.3203 188.493C84.6094 188.7 85.0859 188.904 85.75 189.103C86.4141 189.298 86.9473 189.523 87.3496 189.777C87.752 190.027 88.0469 190.316 88.2344 190.644C88.4219 190.968 88.5156 191.349 88.5156 191.786C88.5156 192.497 88.2422 193.064 87.6953 193.486C87.1523 193.904 86.4141 194.113 85.4805 194.113C84.8633 194.113 84.2949 193.999 83.7754 193.773C83.2598 193.542 82.8574 193.226 82.5684 192.823C82.2832 192.421 82.1406 191.952 82.1406 191.417H83.623C83.623 191.902 83.7832 192.277 84.1035 192.542C84.4238 192.808 84.8828 192.941 85.4805 192.941C85.9961 192.941 86.3828 192.837 86.6406 192.63C86.9023 192.419 87.0332 192.142 87.0332 191.798ZM95.9805 186.659H93.3203V193.995H91.8496V186.659H89.2129V185.464H95.9805V186.659ZM100.24 190.708H98.5879V193.995H97.1055V185.464H100.105C101.09 185.464 101.85 185.685 102.385 186.126C102.92 186.568 103.188 187.206 103.188 188.042C103.188 188.613 103.049 189.091 102.771 189.478C102.498 189.861 102.115 190.156 101.623 190.363L103.539 193.919V193.995H101.951L100.24 190.708ZM98.5879 189.519H100.111C100.611 189.519 101.002 189.394 101.283 189.144C101.564 188.89 101.705 188.544 101.705 188.107C101.705 187.65 101.574 187.296 101.312 187.046C101.055 186.796 100.668 186.667 100.152 186.659H98.5879V189.519ZM106.158 193.995H104.682V185.464H106.158V193.995ZM112.861 192.009H109.557L108.865 193.995H107.324L110.547 185.464H111.877L115.105 193.995H113.559L112.861 192.009ZM109.973 190.814H112.445L111.209 187.275L109.973 190.814Z" fill="#1D2130"/>
<path d="M52.043 134.995H40.3477V132.675L45.8672 126.792C46.625 125.964 47.1836 125.241 47.543 124.624C47.9102 124.007 48.0938 123.421 48.0938 122.866C48.0938 122.109 47.9023 121.515 47.5195 121.085C47.1367 120.648 46.5898 120.429 45.8789 120.429C45.1133 120.429 44.5078 120.695 44.0625 121.226C43.625 121.749 43.4062 122.441 43.4062 123.3H40.0078C40.0078 122.261 40.2539 121.312 40.7461 120.452C41.2461 119.593 41.9492 118.921 42.8555 118.437C43.7617 117.945 44.7891 117.698 45.9375 117.698C47.6953 117.698 49.0586 118.12 50.0273 118.964C51.0039 119.808 51.4922 120.999 51.4922 122.538C51.4922 123.382 51.2734 124.241 50.8359 125.116C50.3984 125.991 49.6484 127.011 48.5859 128.175L44.707 132.265H52.043V134.995ZM65.6133 127.941C65.6133 130.3 65.125 132.105 64.1484 133.355C63.1719 134.605 61.7422 135.23 59.8594 135.23C58 135.23 56.5781 134.616 55.5938 133.39C54.6094 132.163 54.1055 130.406 54.082 128.116V124.976C54.082 122.593 54.5742 120.784 55.5586 119.55C56.5508 118.316 57.9766 117.698 59.8359 117.698C61.6953 117.698 63.1172 118.312 64.1016 119.538C65.0859 120.757 65.5898 122.511 65.6133 124.8V127.941ZM62.2266 124.495C62.2266 123.081 62.0312 122.054 61.6406 121.413C61.2578 120.765 60.6562 120.441 59.8359 120.441C59.0391 120.441 58.4492 120.749 58.0664 121.366C57.6914 121.976 57.4922 122.933 57.4688 124.238V128.386C57.4688 129.777 57.6562 130.812 58.0312 131.491C58.4141 132.163 59.0234 132.499 59.8594 132.499C60.6875 132.499 61.2852 132.175 61.6523 131.527C62.0195 130.878 62.2109 129.886 62.2266 128.55V124.495ZM76.1367 134.995H72.75V121.941L68.707 123.195V120.441L75.7734 117.909H76.1367V134.995ZM93.1758 127.941C93.1758 130.3 92.6875 132.105 91.7109 133.355C90.7344 134.605 89.3047 135.23 87.4219 135.23C85.5625 135.23 84.1406 134.616 83.1562 133.39C82.1719 132.163 81.668 130.406 81.6445 128.116V124.976C81.6445 122.593 82.1367 120.784 83.1211 119.55C84.1133 118.316 85.5391 117.698 87.3984 117.698C89.2578 117.698 90.6797 118.312 91.6641 119.538C92.6484 120.757 93.1523 122.511 93.1758 124.8V127.941ZM89.7891 124.495C89.7891 123.081 89.5938 122.054 89.2031 121.413C88.8203 120.765 88.2188 120.441 87.3984 120.441C86.6016 120.441 86.0117 120.749 85.6289 121.366C85.2539 121.976 85.0547 122.933 85.0312 124.238V128.386C85.0312 129.777 85.2188 130.812 85.5938 131.491C85.9766 132.163 86.5859 132.499 87.4219 132.499C88.25 132.499 88.8477 132.175 89.2148 131.527C89.582 130.878 89.7734 129.886 89.7891 128.55V124.495Z" fill="#1D2130"/>
<path d="M122.152 48.1143C122.082 48.0565 121.98 48.0382 121.901 48.0648C121.804 48.0946 121.716 48.1204 121.632 48.1449L121.591 48.1568C121.384 48.2172 121.206 48.2688 121.029 48.3397C118.238 49.4476 116.041 51.3456 114.312 54.1419C113.884 54.8328 113.554 55.551 113.29 56.2672C113.722 53.8581 113.822 52.9195 113.899 50.2238C113.903 50.1107 113.903 49.9956 113.903 49.8814C113.903 49.5696 113.903 49.275 113.971 49.0062C114.053 48.6877 114.217 48.37 114.376 48.0626C114.421 47.9756 114.466 47.8886 114.503 47.8122C114.515 47.7972 114.557 47.7719 114.573 47.7694C115.371 47.6477 116.077 47.3091 116.732 46.7347C117.391 46.1529 117.933 45.4409 118.344 44.6176C119.816 41.6671 120.553 38.4058 120.535 34.9255C120.533 34.5898 120.494 34.263 120.45 33.9075C120.43 33.7482 120.41 33.5853 120.394 33.4166C120.384 33.3241 120.327 33.2418 120.245 33.2018C120.163 33.1623 120.065 33.1651 119.982 33.2149C119.932 33.246 119.89 33.2713 119.851 33.2938C119.776 33.3383 119.719 33.373 119.665 33.4119C118.409 34.3116 117.301 35.4317 116.371 36.7402C114.854 38.8789 113.972 41.2972 113.735 43.9575C113.711 43.661 113.687 43.3644 113.663 43.0679L113.655 42.9603C113.561 41.7977 113.465 40.5954 113.387 39.4131C113.367 39.1137 113.309 38.8224 113.254 38.5406C113.146 37.9989 113.045 37.4873 113.207 36.9511C113.244 36.8299 113.275 36.7079 113.307 36.5862C113.383 36.2846 113.754 35.8202 114.324 35.3124L114.345 35.2932C114.555 35.1154 115.634 34.1293 116.246 32.1787C116.868 30.1971 116.821 28.1265 116.786 26.6145L116.785 26.5742C116.74 24.4958 116.515 22.9297 116.057 21.4952C115.997 21.3118 115.927 21.1309 115.852 20.9408C115.814 20.8418 115.774 20.7395 115.734 20.6325C115.7 20.5419 115.62 20.4761 115.526 20.4605L115.48 20.4563C115.399 20.4563 115.323 20.4927 115.272 20.5556L114.826 21.0978C112.691 23.6998 111.641 26.7515 111.707 30.1684C111.719 30.7702 111.764 31.3875 111.843 32.0248C111.301 30.1534 110.664 28.3318 109.94 26.5795C109.925 26.5411 109.915 26.4936 109.914 26.4533L109.909 26.2137C109.902 25.868 109.894 25.5103 109.909 25.1584C109.911 25.1 109.949 24.9953 110.027 24.8921C110.139 24.7446 110.263 24.6003 110.392 24.4502C110.611 24.1956 110.837 23.9327 111.016 23.6326C111.593 22.667 111.864 21.5264 111.869 20.0425C111.877 18.2957 111.607 16.4574 111.019 14.257C110.698 13.0566 110.214 11.4971 109.311 10.0833C109.25 9.98825 109.181 9.89875 109.109 9.80398C109.076 9.76201 109.041 9.71726 109.006 9.66918C108.955 9.60053 108.884 9.56051 108.77 9.56051C108.679 9.56718 108.598 9.61888 108.553 9.6992C107.42 11.7417 106.855 13.9238 106.829 16.3702C106.806 18.4099 107.125 20.1651 107.525 21.5522C106.507 19.6954 105.376 17.9013 104.151 16.1995L104.123 16.1609C104.095 16.1239 104.083 16.1058 104.085 16.1186C104.008 15.568 103.955 15.1275 103.918 14.744C103.919 14.7381 103.926 14.7059 103.983 14.6103C104.064 14.4724 104.153 14.3373 104.247 14.1945C104.436 13.9071 104.632 13.6097 104.757 13.2768C105.135 12.2718 105.22 11.1319 105.016 9.79342C104.568 6.83092 103.261 4.16332 101.02 1.63774C100.789 1.37843 100.534 1.14913 100.265 0.906774L100.19 0.839236C100.085 0.743905 99.9765 0.646351 99.8671 0.543238C99.7976 0.47709 99.698 0.452354 99.6014 0.480703C99.5102 0.509608 99.4398 0.585205 99.4181 0.679147L99.3691 0.893712C99.3357 1.03601 99.3098 1.1483 99.2906 1.26114C98.989 3.05937 99.011 4.98545 99.3582 7.14999C99.7027 9.29675 100.389 11.1483 101.442 12.7567C99.8629 10.8979 98.3269 9.33705 96.7215 7.95378C96.7143 7.94433 96.7037 7.9157 96.7029 7.90847C96.8284 6.8287 96.5618 5.81147 95.8874 4.79868C95.0019 3.46765 93.7713 2.4532 92.2299 1.78393C91.3076 1.38426 90.3519 1.03046 89.4163 0.683872C88.9681 0.517668 88.5199 0.35202 88.0583 0.17442C87.5945 -0.00984963 87.3961 -0.0426459 87.2884 0.0568543C87.1499 0.185815 87.1833 0.295878 87.2437 0.49599L87.2631 0.561303C87.8288 2.46459 88.5794 3.96988 89.5585 5.16305C91.3558 7.35566 93.4577 8.46962 95.9812 8.56801C96.0697 8.57329 96.1398 8.59775 96.1684 8.61998C96.5237 8.88569 96.7853 9.09831 97.0165 9.30898C97.7476 9.97658 98.4677 10.6878 99.1721 11.4368C98.1243 10.7865 96.8437 10.493 95.4014 10.5658C94.6121 10.6055 93.8286 10.7212 93.071 10.8329L93.0421 10.8373C92.8181 10.8701 92.5952 10.9026 92.3729 10.9341C91.8861 10.9999 91.3953 11.0861 90.9618 11.1617C90.7862 11.1931 90.367 11.2884 90.2704 11.4916C90.237 11.5611 90.2398 11.6372 90.2777 11.7064C90.311 11.7667 90.3478 11.8234 90.3878 11.8751C91.639 13.4969 93.0663 14.565 94.7512 15.14C96.8056 15.8449 98.6925 15.7868 100.388 14.9577C100.647 14.8151 100.96 14.7429 101.317 14.7429C101.587 14.7429 101.789 14.7854 101.856 14.8007C101.957 14.8173 102.093 14.8735 102.121 14.9096C103.175 16.2946 104.176 17.7737 105.11 19.3276C104.321 18.5605 103.291 18.0433 101.888 17.7065C100.659 17.4138 99.4019 17.351 98.1867 17.2898L97.7796 17.2693C97.3985 17.2498 97.0173 17.2256 96.6247 17.2009L95.9665 17.1603C95.8813 17.1603 95.8004 17.2015 95.7508 17.2698C95.696 17.3435 95.6829 17.4391 95.7152 17.525C95.7416 17.5967 95.7898 17.7231 95.8145 17.7654C97.0963 19.9071 98.6015 21.3885 100.415 22.2946C102.189 23.1795 103.791 23.4135 105.407 23.0275C105.594 22.9825 105.811 22.9586 106.035 22.9586C106.722 22.9586 107.202 23.1681 107.303 23.3621C108.192 25.1945 108.985 27.0987 109.67 29.0409C108.952 28.0522 107.948 27.2493 106.677 26.6487C105.415 26.0534 104.1 25.5092 102.807 24.9736C102.251 24.744 101.693 24.5136 101.137 24.2779C101.054 24.2418 100.957 24.2493 100.88 24.3001C100.804 24.3505 100.759 24.4344 100.759 24.5247C100.759 24.6982 102.603 29.8124 105.282 31.8277C106.375 32.6498 107.721 33.4956 109.419 33.5353C109.927 33.5456 110.452 33.6173 110.849 34.0678C110.909 34.1395 110.99 34.1954 111.077 34.2251C111.213 34.2696 111.25 34.3524 111.317 34.6348C111.867 36.9406 112.267 39.3172 112.514 41.7305C112.439 41.4856 112.353 41.2382 112.253 40.9878C111.654 39.4689 110.645 38.1398 109.078 36.8049C108.27 36.114 107.424 35.445 106.606 34.7977L106.567 34.7671C106.195 34.4722 105.823 34.1785 105.452 33.8811C105.376 33.8196 105.301 33.7563 105.215 33.6823L104.984 33.4845C104.903 33.4161 104.782 33.4019 104.688 33.4492C104.59 33.4984 104.532 33.6001 104.54 33.7087C104.551 33.8719 104.56 34.0261 104.569 34.1743L104.574 34.2435C104.592 34.5484 104.609 34.836 104.64 35.1201C104.93 37.8858 105.753 40.1949 107.157 42.179C108.026 43.4056 109.272 44.9047 111.216 45.6137C111.689 45.7872 112.032 46.0498 112.399 46.5212C112.746 46.9626 112.811 47.3658 112.803 47.8733C112.77 49.9993 112.618 52.1082 112.351 54.1735C112.288 53.5988 112.156 53.0071 111.952 52.3923C111.531 51.1193 110.875 49.8817 109.946 48.6088C109.144 47.5065 108.31 46.4003 107.503 45.33L107.449 45.2585C107.13 44.8347 106.81 44.4103 106.499 43.9951C106.44 43.9097 106.356 43.8792 106.307 43.8622C106.238 43.8286 106.156 43.8252 106.083 43.8564C106.011 43.8869 105.956 43.9473 105.932 44.0212L105.922 44.0501C105.909 44.089 105.898 44.1235 105.893 44.1579C105.336 47.4726 105.677 50.4423 106.936 53.2377C107.55 54.6046 108.375 56.1521 109.828 57.2656C110.492 57.7739 111.016 58.4871 111.303 59.2733C111.364 59.4426 111.362 59.516 111.355 59.5443C110.74 62.0896 109.936 64.5446 108.96 66.8681C109.211 65.6436 109.194 64.3573 108.907 63.0246C108.499 61.1358 107.799 59.3053 107.174 57.7378L106.987 57.2683C106.694 56.5338 106.399 55.7933 106.094 55.026C106.055 54.9279 105.962 54.8609 105.838 54.8548C105.74 54.8548 105.65 54.9106 105.603 55.0012L105.505 55.1858C105.462 55.2667 105.421 55.342 105.387 55.4198C104.13 58.2531 103.705 61.1575 104.126 64.0524C104.426 66.1225 104.935 67.6047 105.777 68.8587C106.212 69.5069 106.626 70.2289 106.701 71.1169C106.719 71.327 106.71 71.4718 106.616 71.6367C105.555 73.493 104.366 75.2448 103.063 76.8724C103.068 76.8635 103.073 76.8546 103.078 76.8457C104.015 75.1344 104.043 73.2842 103.948 71.6997C103.865 70.3415 103.709 68.9852 103.559 67.6739L103.55 67.598C103.49 67.0727 103.43 66.5477 103.375 66.0216C103.343 65.7233 103.308 65.4251 103.272 65.1225L103.224 64.7128C103.213 64.6222 103.158 64.5438 103.078 64.5043C102.93 64.4271 102.691 64.5463 102.432 64.852C100.654 66.9529 99.5502 69.327 99.1518 71.9088C98.7386 74.5855 98.9626 76.8763 99.8373 78.9118C99.8607 78.966 99.8602 79.0767 99.8599 79.1136L99.8129 80.2848C99.8059 80.369 99.7614 80.4641 99.7247 80.4994C97.9491 82.2076 95.9943 83.6926 93.8965 84.9285C94.8895 84.0319 95.6034 82.8621 96.0661 81.3796C96.5788 79.7365 96.842 78.0263 97.0971 76.3682L97.1194 76.2206C97.2098 75.6381 97.3041 75.0566 97.4004 74.4624L97.5092 73.7906C97.5248 73.6928 97.4861 73.595 97.4101 73.5363C97.3347 73.4763 97.2257 73.4618 97.1389 73.4991L97.044 73.5383C96.9427 73.5797 96.8545 73.6167 96.7713 73.6592C92.8056 75.6378 90.195 80.2526 90.5639 84.6317C90.6218 85.3177 90.5589 85.9619 90.3714 86.6C90.3539 86.6581 90.2977 86.7212 90.2749 86.7318C88.3913 87.5253 86.6004 88.1042 84.7984 88.5017C84.7057 88.5231 84.6323 88.5892 84.6022 88.6784C84.5719 88.7682 84.5903 88.8657 84.652 88.9391C84.8479 89.1709 85.0184 89.4202 85.1587 89.6812C85.2163 89.7879 85.3534 89.8427 85.4561 89.816C86.9243 89.4814 88.354 89.0481 89.707 88.5272C89.8164 88.4833 89.8998 88.4625 89.978 88.4752C90.279 88.5153 90.5971 88.577 90.9501 88.6645C91.023 88.6823 91.0834 88.7159 91.0845 88.7129C91.8557 90.2487 93.1812 91.2271 95.1379 91.7032C95.5636 91.8052 96.0026 91.8805 96.4428 91.9266C96.9035 91.9753 97.4174 92 97.9696 92C98.7347 92 99.2803 91.9528 99.287 91.9522C100.983 91.7626 102.431 91.3813 103.714 90.7863C104.241 90.5425 104.841 90.2143 105.302 89.6281C105.39 89.5158 105.375 89.3538 105.268 89.2596C103.965 88.1109 102.638 87.2762 101.211 86.7081C99.0967 85.8688 97.1709 85.6414 95.2831 86.0041C95.001 86.0589 94.7256 86.1278 94.4579 86.207C96.2238 85.1526 97.9146 83.9133 99.5113 82.5014C99.5419 82.4736 99.5922 82.4491 99.6315 82.4421C99.8927 82.3988 100.24 82.3454 100.595 82.3199C100.627 82.3199 100.669 82.3357 100.674 82.3374C101.636 83.413 102.876 83.9358 104.463 83.9358C104.544 83.9358 104.626 83.9341 104.706 83.9313C106.433 83.8757 108.168 83.4019 109.866 82.5222C111.099 81.8793 112.385 81.1309 113.428 80.0147C113.659 79.7665 113.866 79.4858 114.048 79.2381L114.066 79.214C114.147 79.1047 114.228 78.9947 114.312 78.886C114.357 78.8274 114.377 78.7517 114.365 78.6756C114.352 78.6022 114.309 78.5369 114.237 78.4897C114.218 78.4797 113.777 78.2431 113.374 78.0872C110.674 77.0452 107.949 76.9385 105.349 77.7754C104.498 78.0486 103.697 78.4588 102.918 79.0258C104.36 77.351 105.695 75.5149 106.908 73.5394C106.921 73.5185 106.955 73.4621 106.966 73.4518C107.072 73.3843 107.181 73.3204 107.289 73.2573C107.483 73.1436 107.684 73.026 107.873 72.886C108.032 72.7673 108.077 72.7642 108.237 72.8676C108.465 73.0152 108.73 73.0919 108.96 73.1522C110.31 73.4974 111.67 73.3254 113.174 72.6197C114.549 71.976 115.606 70.9585 116.543 69.9552C117.907 68.4916 118.798 67.1711 119.348 65.7992C119.463 65.5113 119.546 65.2136 119.631 64.9023C119.667 64.7717 119.703 64.6411 119.741 64.5127C119.783 64.3748 119.71 64.2289 119.574 64.1808L119.461 64.1722C118.904 64.1722 113.943 64.2536 111.041 67.0663C110.41 67.6783 109.844 68.3287 109.327 69.0408C110.475 66.6122 111.449 64.0527 112.233 61.3959L112.245 61.357C112.254 61.3245 112.269 61.2753 112.278 61.262L113.037 60.2208C113.065 60.1791 113.069 60.1791 113.113 60.1791C113.133 60.1791 113.155 60.1805 113.179 60.1819L113.342 60.1916C113.906 60.2267 114.239 60.2216 114.512 60.1788C115.593 60.0085 116.568 59.4648 117.494 58.5165C119.659 56.2986 121.149 53.5315 122.049 50.0579C122.146 49.6858 122.173 49.31 122.202 48.9114C122.215 48.7308 122.229 48.5446 122.249 48.3522C122.258 48.26 122.222 48.1718 122.152 48.1143Z" fill="#1C1D28"/>
<path d="M48.701 88.4994C46.9006 88.1022 45.11 87.5233 43.2258 86.7298C43.2033 86.7192 43.1474 86.6561 43.1299 86.5994C42.9421 85.9599 42.8792 85.3156 42.937 84.6297C43.306 80.2503 40.6954 75.6358 36.7305 73.6575C36.6462 73.6147 36.5583 73.5777 36.457 73.5363L36.363 73.4974C36.2736 73.4593 36.1649 73.4751 36.0928 73.5329C36.0149 73.593 35.9762 73.6908 35.9921 73.7889L36.1006 74.4604C36.1969 75.0546 36.2912 75.6361 36.3816 76.2181L36.4044 76.3704C36.659 78.0243 36.9222 79.7347 37.4349 81.3779C37.8976 82.8604 38.6115 84.0302 39.6045 84.9265C37.5067 83.6908 35.5519 82.2059 33.7766 80.498C33.7393 80.4621 33.6951 80.367 33.6887 80.2887L33.6411 79.1166C33.6408 79.0749 33.6403 78.9643 33.6639 78.9096C34.5384 76.8745 34.7623 74.5838 34.3492 71.907C33.9508 69.3253 32.8474 66.9512 31.0692 64.8503C30.8611 64.6043 30.6775 64.4798 30.5234 64.4798C30.4858 64.4798 30.4519 64.4873 30.4252 64.5012C30.3434 64.5418 30.288 64.6205 30.2771 64.7113L30.2296 65.1202C30.1928 65.4237 30.1575 65.7216 30.1258 66.0201C30.071 66.546 30.0109 67.071 29.9505 67.5963L29.9419 67.6722C29.7916 68.9837 29.6358 70.34 29.5535 71.698C29.4578 73.2822 29.4862 75.1324 30.4235 76.844C30.4285 76.8526 30.4329 76.8617 30.438 76.8704C29.135 75.2428 27.9456 73.4912 26.8845 71.6352C26.7908 71.4701 26.7827 71.3253 26.8002 71.1152C26.8756 70.2266 27.289 69.5046 27.7245 68.857C28.5655 67.603 29.0747 66.1207 29.3754 64.0507C29.7958 61.1557 29.3713 58.2516 28.1143 55.4184C28.0798 55.3403 28.0394 55.2649 27.9963 55.1841L27.8981 54.999C27.8511 54.9086 27.7506 54.8491 27.6446 54.8539C27.5389 54.8594 27.4457 54.9264 27.4073 55.0237C27.1024 55.7919 26.8074 56.532 26.5145 57.2666L26.3272 57.736C25.7024 59.3039 25.0015 61.1343 24.5942 63.0229C24.3071 64.3556 24.2895 65.6419 24.5413 66.8664C23.5642 64.5432 22.761 62.0882 22.1458 59.5426C22.1389 59.5143 22.1367 59.4409 22.1976 59.2716C22.4853 58.4851 23.0092 57.7719 23.673 57.2636C25.1262 56.1501 25.9505 54.6026 26.5651 53.2357C27.8235 50.4403 28.1649 47.4706 27.6084 44.1562C27.6026 44.1215 27.592 44.087 27.5795 44.0495L27.5695 44.0195C27.5453 43.9453 27.4902 43.8852 27.4173 43.8538C27.3461 43.8241 27.2565 43.8296 27.2011 43.8569C27.1455 43.8772 27.0612 43.908 27.0064 43.9883C26.6914 44.4086 26.3718 44.8327 26.0518 45.2566L25.9981 45.328C25.1913 46.3983 24.3569 47.5045 23.555 48.6065C22.6261 49.8797 21.97 51.1173 21.5491 52.3903C21.346 53.0051 21.2132 53.5968 21.1506 54.1715C20.8833 52.1062 20.7316 49.9975 20.6985 47.8713C20.6907 47.3638 20.7553 46.9606 21.1022 46.5189C21.4695 46.0481 21.8125 45.7852 22.2855 45.6118C24.2289 44.9025 25.4756 43.4036 26.3445 42.177C27.7481 40.1929 28.5714 37.8841 28.8613 35.1186C28.8922 34.834 28.9097 34.5461 28.9278 34.2415L28.9322 34.1723C28.9408 34.0241 28.95 33.8699 28.9617 33.7065C28.9689 33.5981 28.9108 33.4964 28.8137 33.4472C28.7197 33.3999 28.5992 33.4138 28.5174 33.483L28.2867 33.6803C28.1999 33.7543 28.1257 33.8176 28.0486 33.8793C27.6783 34.1765 27.3066 34.4705 26.934 34.7654L26.8951 34.796C26.0774 35.443 25.2316 36.112 24.4239 36.8029C22.8567 38.1381 21.8476 39.4672 21.248 40.9861C21.149 41.2365 21.0622 41.4842 20.9876 41.7293C21.2341 39.3157 21.6345 36.9388 22.1842 34.6328C22.251 34.3507 22.2883 34.2679 22.4255 34.2229C22.5117 34.1937 22.5921 34.1375 22.6508 34.0681C23.0495 33.6153 23.5745 33.5436 24.0831 33.5333C25.7803 33.4936 27.1263 32.6478 28.2189 31.8257C30.8979 29.8101 32.7425 24.6961 32.7425 24.5227C32.7425 24.4324 32.6974 24.3482 32.6209 24.2973C32.5455 24.2476 32.4437 24.2406 32.3669 24.2748C31.8088 24.5113 31.2506 24.7417 30.6728 24.9805C29.4013 25.5072 28.0867 26.0514 26.8241 26.6464C25.5535 27.247 24.5494 28.0502 23.8316 29.0386C24.5157 27.0967 25.3089 25.1928 26.197 23.3632C26.2991 23.1658 26.7788 22.9563 27.4666 22.9563C27.6902 22.9563 27.907 22.9802 28.0942 23.0252C29.7101 23.4121 31.3124 23.1775 33.0858 22.2923C34.9001 21.3862 36.4052 19.9049 37.6873 17.7623C37.7118 17.7209 37.7599 17.5944 37.7858 17.5235C37.8183 17.4368 37.8053 17.3412 37.7513 17.2687C37.7012 17.1997 37.6211 17.1586 37.519 17.1586C37.5181 17.1586 37.5176 17.1586 37.5167 17.1586L36.8763 17.1989C36.4837 17.2236 36.1025 17.2478 35.7214 17.2673L35.3143 17.2878C34.0991 17.349 32.8421 17.4118 31.6123 17.7045C30.2098 18.0413 29.1801 18.5585 28.3905 19.3256C29.3251 17.7717 30.3258 16.2931 31.38 14.9082C31.4084 14.8715 31.5444 14.8153 31.656 14.7967C31.7117 14.7837 31.9142 14.7411 32.1835 14.7411C32.5408 14.7411 32.8535 14.8137 33.1186 14.9593C34.8032 15.7823 36.6952 15.8434 38.7493 15.1386C40.4342 14.5635 41.8612 13.4954 43.112 11.8742C43.1527 11.822 43.1894 11.765 43.2228 11.705C43.2609 11.6358 43.2634 11.5596 43.23 11.4901C43.1332 11.2873 42.7142 11.1919 42.5378 11.1602C42.1049 11.0846 41.6144 10.9985 41.1281 10.9326C40.9052 10.9015 40.6821 10.869 40.4584 10.8359L40.4297 10.8314C39.6718 10.7197 38.8884 10.6041 38.0991 10.5643C36.6568 10.4907 35.3761 10.7847 34.328 11.4357C35.0328 10.6864 35.7528 9.9754 36.484 9.30753C36.7152 9.09686 36.9767 8.88452 37.3331 8.61798C37.3607 8.59685 37.4308 8.57212 37.5167 8.56712C40.0427 8.46845 42.1447 7.35449 43.942 5.16215C44.921 3.96871 45.6717 2.46342 46.2373 0.560132L46.2568 0.494817C46.3172 0.294705 46.3505 0.184643 46.2117 0.055682C46.1046 -0.0438182 45.916 -0.0143564 45.4257 0.179641C44.9806 0.35057 44.5326 0.516497 44.0727 0.68687C43.1488 1.02901 42.1931 1.38281 41.2708 1.78248C39.7294 2.45175 38.4986 3.4662 37.613 4.79723C36.9386 5.81002 36.6721 6.82753 36.7975 7.90258C36.7967 7.91453 36.7861 7.94316 36.7845 7.94649C35.1755 9.33421 33.6375 10.8965 32.0583 12.7559C33.1114 11.1475 33.7978 9.29558 34.1422 7.14882C34.4894 4.98455 34.5114 3.0582 34.2098 1.25997C34.1906 1.1474 34.1647 1.03484 34.1316 0.89393L34.0824 0.676863C34.0601 0.583756 33.99 0.508436 33.8979 0.479531C33.8058 0.452293 33.7026 0.476473 33.6339 0.541788C33.5237 0.645457 33.4158 0.74329 33.3103 0.838343L33.236 0.905325C32.9662 1.14824 32.7113 1.37753 32.4807 1.63685C30.2396 4.16243 28.9325 6.83003 28.4848 9.79225C28.2809 11.1311 28.3655 12.2709 28.7436 13.2759C28.8688 13.6088 29.0641 13.9062 29.2586 14.2014C29.3476 14.3362 29.4366 14.4715 29.5182 14.6105C29.5783 14.7103 29.5833 14.7361 29.583 14.7314C29.546 15.1275 29.4928 15.5688 29.4211 16.0986C29.418 16.1052 29.408 16.1208 29.376 16.163L29.3501 16.1989C28.1245 17.9007 26.9939 19.6947 25.9764 21.5516C26.3765 20.1647 26.695 18.4093 26.6725 16.3695C26.6452 13.9229 26.0813 11.7408 24.9478 9.69775C24.903 9.61826 24.8218 9.56657 24.708 9.55878C24.6254 9.55878 24.5458 9.59964 24.4938 9.6694C24.4598 9.71665 24.4253 9.76112 24.3925 9.80336C24.3193 9.89786 24.2509 9.98735 24.1897 10.083C23.2871 11.4968 22.803 13.0557 22.4817 14.2561C21.8943 16.4576 21.6245 18.2959 21.6323 20.0416C21.6367 21.5255 21.9074 22.6661 22.4844 23.6314C22.6639 23.9318 22.8898 24.1948 23.1168 24.4593C23.2373 24.5997 23.3611 24.744 23.4732 24.8918C23.5517 24.9946 23.5895 25.0994 23.5918 25.1578C23.6065 25.5097 23.5987 25.8674 23.5912 26.2131L23.5859 26.4521C23.5851 26.4933 23.5756 26.5405 23.5614 26.5766C22.8369 28.3301 22.2001 30.1525 21.657 32.0241C21.7369 31.3868 21.7819 30.7698 21.7933 30.1678C21.859 26.7509 20.8098 23.6995 18.6742 21.0972L18.229 20.5555C18.1776 20.4918 18.1013 20.4557 18.0201 20.4557L17.9756 20.4596C17.8804 20.4755 17.8003 20.5413 17.7672 20.6311C17.7266 20.7392 17.6868 20.8412 17.6481 20.9399C17.5736 21.1305 17.5032 21.3112 17.4436 21.4949C16.9854 22.9288 16.7606 24.4952 16.715 26.573L16.7141 26.6136C16.6799 28.1253 16.6329 30.1962 17.2544 32.1778C17.8662 34.1287 18.9452 35.1145 19.1544 35.2915L19.1767 35.3115C19.7462 35.8193 20.1171 36.2837 20.1938 36.5853C20.2247 36.707 20.2562 36.8291 20.2929 36.9497C20.4554 37.4864 20.3538 37.9978 20.2442 38.55C20.1897 38.8288 20.1329 39.1167 20.1132 39.4122C20.0347 40.5945 19.9384 41.7968 19.8452 42.9594L19.8369 43.067C19.813 43.3635 19.789 43.6601 19.7654 43.9567C19.5278 41.2963 18.6458 38.878 17.1284 36.7393C16.1991 35.4308 15.0913 34.3113 13.8348 33.411C13.7806 33.3721 13.7235 33.3374 13.6473 33.2921C13.6103 33.2707 13.5674 33.2451 13.5154 33.2126C13.437 33.1656 13.3362 33.1614 13.2553 33.2009C13.1724 33.2412 13.1153 33.3232 13.1059 33.416C13.0889 33.5842 13.0692 33.747 13.0483 33.916C13.0063 34.2621 12.9665 34.5889 12.9648 34.9247C12.9462 38.4049 13.6832 41.6662 15.1561 44.6167C15.5665 45.44 16.1087 46.1521 16.7684 46.734C17.4225 47.308 18.1283 47.6465 18.9249 47.7682C18.9424 47.7713 18.9841 47.7966 18.9905 47.8016C19.0337 47.888 19.0785 47.9747 19.1233 48.0617C19.2824 48.3688 19.4468 48.6865 19.5286 49.005C19.5968 49.2744 19.5968 49.5687 19.5968 49.8805C19.5968 49.9948 19.5968 50.1098 19.6004 50.2227C19.6769 52.9186 19.7773 53.8575 20.2091 56.2663C19.9457 55.5501 19.6149 54.8319 19.1878 54.141C17.4584 51.3447 15.2613 49.4467 12.471 48.3391C12.2935 48.2677 12.1154 48.2163 11.909 48.1562L11.8678 48.144C11.7841 48.1195 11.6953 48.0934 11.6004 48.0645C11.5147 48.0364 11.4171 48.0556 11.3472 48.1134C11.2777 48.171 11.2412 48.2591 11.2504 48.3508C11.271 48.542 11.2852 48.7279 11.2983 48.9094C11.3269 49.3074 11.3539 49.6832 11.4505 50.0551C12.3508 53.529 13.8409 56.2958 16.0058 58.514C16.9314 59.4623 17.9069 60.0059 18.9878 60.1763C19.2604 60.2188 19.5937 60.2241 20.158 60.1891L20.3204 60.1794C20.3452 60.178 20.3669 60.1766 20.3867 60.1766C20.4312 60.1766 20.4348 60.1766 20.4657 60.2222L21.2216 61.2591C21.2313 61.2727 21.2455 61.3219 21.2553 61.3558L21.2664 61.3931C22.051 64.0501 23.0245 66.6093 24.1724 69.0382C23.6558 68.3259 23.0896 67.6755 22.4586 67.0638C19.5567 64.2511 14.5955 64.1696 14.0393 64.1696L13.97 64.1702L13.9264 64.1783C13.79 64.2266 13.7163 64.3723 13.7583 64.5093C13.797 64.6385 13.8332 64.7691 13.8746 64.9226C13.9539 65.2108 14.0363 65.5084 14.1517 65.7964C14.7015 67.1688 15.5926 68.489 16.9567 69.9526C17.8941 70.9559 18.9508 71.9735 20.3249 72.6169C21.8298 73.3228 23.1886 73.4951 24.5399 73.1494C24.7698 73.0891 25.0341 73.0126 25.2614 72.8653C25.4233 72.7617 25.4675 72.765 25.6267 72.8834C25.8153 73.0235 26.0159 73.1411 26.2107 73.255C26.3183 73.3181 26.4268 73.3817 26.5281 73.4457C26.5442 73.4593 26.5787 73.5157 26.5915 73.5366C27.804 75.5121 29.1398 77.3481 30.5821 79.023C29.8019 78.456 29.0009 78.0457 28.1501 77.7725C25.5502 76.9357 22.825 77.0421 20.126 78.0847C19.7231 78.2406 19.2816 78.4768 19.2521 78.4935C19.1903 78.5341 19.1477 78.5997 19.1344 78.675C19.1227 78.7489 19.1419 78.8245 19.187 78.8823C19.2713 78.9918 19.3528 79.1019 19.4335 79.2111L19.4513 79.235C19.6335 79.4829 19.8399 79.7634 20.0714 80.0118C21.1139 81.1283 22.3996 81.8768 23.6338 82.5194C25.3309 83.399 27.0665 83.8729 28.7926 83.9285C28.8738 83.9313 28.955 83.9329 29.036 83.9329C30.6238 83.9329 31.8633 83.4101 32.8187 82.3409C32.8304 82.3326 32.8718 82.3167 32.8946 82.3165C33.2597 82.3426 33.6066 82.3957 33.8659 82.4388C33.9068 82.446 33.9572 82.4704 33.9886 82.4988C35.5848 83.9104 37.2752 85.1494 39.0411 86.2039C38.7735 86.1247 38.4977 86.0558 38.2156 86.0005C36.3285 85.6381 34.4026 85.8654 32.2878 86.7048C30.8611 87.2729 29.5343 88.1075 28.2314 89.2562C28.124 89.3504 28.109 89.5124 28.1974 89.6247C28.6585 90.2109 29.2583 90.5391 29.7844 90.7826C31.0676 91.3782 32.516 91.7595 34.214 91.9491C34.219 91.9494 34.7646 91.9966 35.5297 91.9966C36.082 91.9966 36.5958 91.9719 37.0563 91.9232C37.4964 91.8771 37.9355 91.8018 38.3614 91.6995C40.3179 91.2237 41.6436 90.2454 42.4031 88.7265C42.4168 88.7134 42.4752 88.6795 42.5492 88.6614C42.9023 88.5739 43.22 88.5122 43.5221 88.4719C43.5934 88.4605 43.6821 88.4796 43.794 88.5247C45.145 89.0447 46.5748 89.478 48.0407 89.8121C48.0613 89.8171 48.0827 89.8196 48.1042 89.8196C48.2027 89.8196 48.2934 89.7654 48.3412 89.677C48.4812 89.4168 48.6517 89.1672 48.8479 88.9352C48.9093 88.8621 48.9277 88.7648 48.8974 88.6748C48.8684 88.5875 48.795 88.5213 48.701 88.4994Z" fill="#1C1D28"/>
<path fill-rule="evenodd" clip-rule="evenodd" d="M70.6983 19.7297C69.8989 17.3967 66.5994 17.3967 65.8 19.7297C65.221 21.4194 63.1435 22.0276 61.7427 20.9194C59.8097 19.3903 57.0323 21.1712 57.622 23.5642C58.0493 25.2981 56.6309 26.933 54.8538 26.7574C52.4015 26.5151 51.0282 29.5147 52.8183 31.2082C54.1154 32.4354 53.8076 34.5769 52.2173 35.3891C50.0223 36.5101 50.493 39.7752 52.9148 40.233C54.6694 40.5647 55.5687 42.5328 54.6699 44.0758C53.4296 46.2051 55.593 48.6959 57.878 47.7731C59.534 47.1043 61.3561 48.2732 61.4351 50.0574C61.5442 52.5203 64.7105 53.4481 66.1347 51.4357C67.1667 49.9776 69.3317 49.9776 70.3636 51.4357C71.7878 53.4481 74.9541 52.5203 75.0632 50.0574C75.1422 48.2732 76.9643 47.1043 78.6203 47.7731C80.9053 48.6959 83.0687 46.2051 81.8284 44.0758C80.9296 42.5328 81.8289 40.5647 83.5836 40.233C86.0053 39.7752 86.476 36.5101 84.2811 35.3891C82.6908 34.5769 82.3829 32.4354 83.6801 31.2082C85.4702 29.5147 84.0969 26.5151 81.6446 26.7574C79.8675 26.933 78.449 25.2981 78.8763 23.5642C79.4661 21.1712 76.6886 19.3903 74.7557 20.9194C73.3549 22.0276 71.2773 21.4194 70.6983 19.7297ZM68.2492 45.5481C73.772 45.5481 78.2492 41.0756 78.2492 35.5584C78.2492 30.0413 73.772 25.5688 68.2492 25.5688C62.7263 25.5688 58.2492 30.0413 58.2492 35.5584C58.2492 41.0756 62.7263 45.5481 68.2492 45.5481ZM74.249 35.5584C74.249 38.8687 71.5627 41.5522 68.249 41.5522C64.9353 41.5522 62.249 38.8687 62.249 35.5584C62.249 32.2481 64.9353 29.5646 68.249 29.5646C71.5627 29.5646 74.249 32.2481 74.249 35.5584ZM50.249 69.0238L57.249 51.5419C57.8335 51.9589 58.3162 52.5818 58.7912 53.1948C59.3924 53.9706 59.9813 54.7306 60.749 55.0383C61.6101 55.3833 62.6576 55.2574 63.7375 55.1276C64.5793 55.0265 65.4408 54.9229 66.249 55.0383L59.749 72.5201L56.749 66.0269L50.249 69.0238ZM86.249 69.0238L79.249 51.5419C78.6658 51.958 78.1318 52.5329 77.6018 53.1035C76.8524 53.9102 76.1109 54.7085 75.249 55.0383C74.4372 55.3488 73.5168 55.2356 72.5596 55.1179C71.8007 55.0246 71.0186 54.9284 70.249 55.0383L76.749 72.5201L79.749 66.0269L86.249 69.0238Z" fill="#70C174"/>
</svg>
