<svg width="120" height="199" viewBox="0 0 120 199" fill="none" xmlns="http://www.w3.org/2000/svg">
<path d="M1.375 167.995V156.62H5.35938C6.73958 156.62 7.78646 156.886 8.5 157.417C9.21354 157.943 9.57031 158.717 9.57031 159.738C9.57031 160.295 9.42708 160.787 9.14062 161.214C8.85417 161.636 8.45573 161.946 7.94531 162.144C8.52865 162.29 8.98698 162.584 9.32031 163.027C9.65885 163.469 9.82812 164.011 9.82812 164.652C9.82812 165.745 9.47917 166.573 8.78125 167.136C8.08333 167.698 7.08854 167.985 5.79688 167.995H1.375ZM3.71875 163.042V166.113H5.72656C6.27865 166.113 6.70833 165.982 7.01562 165.722C7.32812 165.456 7.48438 165.092 7.48438 164.628C7.48438 163.587 6.94531 163.058 5.86719 163.042H3.71875ZM3.71875 161.386H5.45312C6.63542 161.365 7.22656 160.894 7.22656 159.972C7.22656 159.456 7.07552 159.087 6.77344 158.863C6.47656 158.633 6.00521 158.519 5.35938 158.519H3.71875V161.386ZM15.3359 168.152C14.0964 168.152 13.0859 167.771 12.3047 167.011C11.5286 166.251 11.1406 165.238 11.1406 163.972V163.753C11.1406 162.904 11.3047 162.146 11.6328 161.48C11.9609 160.808 12.4245 160.292 13.0234 159.933C13.6276 159.568 14.3151 159.386 15.0859 159.386C16.2422 159.386 17.151 159.751 17.8125 160.48C18.4792 161.209 18.8125 162.243 18.8125 163.581V164.503H13.4297C13.5026 165.055 13.7214 165.498 14.0859 165.831C14.4557 166.165 14.9219 166.331 15.4844 166.331C16.3542 166.331 17.0339 166.016 17.5234 165.386L18.6328 166.628C18.2943 167.107 17.8359 167.482 17.2578 167.753C16.6797 168.019 16.0391 168.152 15.3359 168.152ZM15.0781 161.214C14.6302 161.214 14.2656 161.365 13.9844 161.667C13.7083 161.969 13.5312 162.402 13.4531 162.964H16.5938V162.784C16.5833 162.284 16.4479 161.899 16.1875 161.628C15.9271 161.352 15.5573 161.214 15.0781 161.214ZM24.6797 165.659C24.6797 165.383 24.5417 165.167 24.2656 165.011C23.9948 164.85 23.5573 164.706 22.9531 164.581C20.9427 164.159 19.9375 163.305 19.9375 162.019C19.9375 161.269 20.2474 160.644 20.8672 160.144C21.4922 159.639 22.3073 159.386 23.3125 159.386C24.3854 159.386 25.2422 159.639 25.8828 160.144C26.5286 160.649 26.8516 161.305 26.8516 162.113H24.5938C24.5938 161.79 24.4896 161.524 24.2812 161.316C24.0729 161.102 23.7474 160.995 23.3047 160.995C22.9245 160.995 22.6302 161.081 22.4219 161.253C22.2135 161.425 22.1094 161.644 22.1094 161.909C22.1094 162.159 22.2266 162.363 22.4609 162.519C22.7005 162.67 23.1016 162.803 23.6641 162.917C24.2266 163.027 24.7005 163.152 25.0859 163.292C26.2786 163.73 26.875 164.488 26.875 165.566C26.875 166.337 26.5443 166.962 25.8828 167.441C25.2214 167.915 24.3672 168.152 23.3203 168.152C22.612 168.152 21.9818 168.027 21.4297 167.777C20.8828 167.521 20.4531 167.175 20.1406 166.738C19.8281 166.295 19.6719 165.818 19.6719 165.308H21.8125C21.8333 165.709 21.9818 166.016 22.2578 166.23C22.5339 166.443 22.9036 166.55 23.3672 166.55C23.7995 166.55 24.125 166.469 24.3438 166.308C24.5677 166.141 24.6797 165.925 24.6797 165.659ZM31.0391 157.464V159.542H32.4844V161.198H31.0391V165.417C31.0391 165.73 31.099 165.954 31.2188 166.089C31.3385 166.225 31.5677 166.292 31.9062 166.292C32.1562 166.292 32.3776 166.274 32.5703 166.238V167.948C32.1276 168.084 31.6719 168.152 31.2031 168.152C29.6198 168.152 28.8125 167.352 28.7812 165.753V161.198H27.5469V159.542H28.7812V157.464H31.0391ZM47.125 167.995H44.7812L40.2188 160.511V167.995H37.875V156.62H40.2188L44.7891 164.12V156.62H47.125V167.995ZM58.1719 166.558C57.75 167.063 57.1536 167.456 56.3828 167.738C55.612 168.014 54.7578 168.152 53.8203 168.152C52.8359 168.152 51.9714 167.938 51.2266 167.511C50.487 167.079 49.9141 166.454 49.5078 165.636C49.1068 164.818 48.901 163.857 48.8906 162.753V161.98C48.8906 160.844 49.0807 159.863 49.4609 159.034C49.8464 158.201 50.3984 157.566 51.1172 157.128C51.8411 156.685 52.6875 156.464 53.6562 156.464C55.0052 156.464 56.0599 156.787 56.8203 157.433C57.5807 158.073 58.0312 159.008 58.1719 160.238H55.8906C55.7865 159.587 55.5547 159.11 55.1953 158.808C54.8411 158.506 54.3516 158.355 53.7266 158.355C52.9297 158.355 52.3229 158.654 51.9062 159.253C51.4896 159.852 51.2786 160.743 51.2734 161.925V162.652C51.2734 163.844 51.5 164.745 51.9531 165.355C52.4062 165.964 53.0703 166.269 53.9453 166.269C54.8255 166.269 55.4531 166.081 55.8281 165.706V163.745H53.6953V162.019H58.1719V166.558ZM69.4219 162.566C69.4219 163.685 69.224 164.667 68.8281 165.511C68.4323 166.355 67.8646 167.006 67.125 167.464C66.3906 167.922 65.5469 168.152 64.5938 168.152C63.651 168.152 62.8099 167.925 62.0703 167.472C61.3307 167.019 60.7578 166.373 60.3516 165.534C59.9453 164.691 59.7396 163.722 59.7344 162.628V162.066C59.7344 160.946 59.9349 159.962 60.3359 159.113C60.7422 158.258 61.3125 157.605 62.0469 157.152C62.7865 156.693 63.6302 156.464 64.5781 156.464C65.526 156.464 66.3672 156.693 67.1016 157.152C67.8411 157.605 68.4115 158.258 68.8125 159.113C69.2188 159.962 69.4219 160.943 69.4219 162.058V162.566ZM67.0469 162.05C67.0469 160.857 66.8333 159.951 66.4062 159.331C65.9792 158.712 65.3698 158.402 64.5781 158.402C63.7917 158.402 63.1849 158.709 62.7578 159.323C62.3307 159.933 62.1146 160.829 62.1094 162.011V162.566C62.1094 163.727 62.3229 164.628 62.75 165.269C63.1771 165.909 63.7917 166.23 64.5938 166.23C65.3802 166.23 65.9844 165.922 66.4062 165.308C66.8281 164.688 67.0417 163.787 67.0469 162.605V162.05ZM81.5312 165.652H77.4219L76.6406 167.995H74.1484L78.3828 156.62H80.5547L84.8125 167.995H82.3203L81.5312 165.652ZM78.0547 163.753H80.8984L79.4688 159.495L78.0547 163.753ZM92.8125 164.925L93.9219 159.542H96.1016L93.9453 167.995H92.0547L90.4531 162.675L88.8516 167.995H86.9688L84.8125 159.542H86.9922L88.0938 164.917L89.6406 159.542H91.2734L92.8125 164.925ZM102.125 167.995C102.021 167.792 101.945 167.54 101.898 167.238C101.352 167.847 100.641 168.152 99.7656 168.152C98.9375 168.152 98.25 167.912 97.7031 167.433C97.1615 166.954 96.8906 166.35 96.8906 165.62C96.8906 164.725 97.2214 164.037 97.8828 163.558C98.5495 163.079 99.5104 162.837 100.766 162.831H101.805V162.347C101.805 161.956 101.703 161.644 101.5 161.409C101.302 161.175 100.987 161.058 100.555 161.058C100.174 161.058 99.875 161.149 99.6562 161.331C99.4427 161.514 99.3359 161.764 99.3359 162.081H97.0781C97.0781 161.592 97.2292 161.139 97.5312 160.722C97.8333 160.305 98.2604 159.98 98.8125 159.745C99.3646 159.506 99.9844 159.386 100.672 159.386C101.714 159.386 102.539 159.649 103.148 160.175C103.763 160.696 104.07 161.43 104.07 162.378V166.042C104.076 166.844 104.188 167.451 104.406 167.863V167.995H102.125ZM100.258 166.425C100.591 166.425 100.898 166.352 101.18 166.206C101.461 166.055 101.669 165.855 101.805 165.605V164.152H100.961C99.8307 164.152 99.2292 164.542 99.1562 165.323L99.1484 165.456C99.1484 165.738 99.2474 165.969 99.4453 166.152C99.6432 166.334 99.9141 166.425 100.258 166.425ZM110.555 161.659C110.247 161.618 109.977 161.597 109.742 161.597C108.888 161.597 108.328 161.886 108.062 162.464V167.995H105.805V159.542H107.938L108 160.55C108.453 159.774 109.081 159.386 109.883 159.386C110.133 159.386 110.367 159.42 110.586 159.488L110.555 161.659ZM111.141 163.706C111.141 162.389 111.435 161.339 112.023 160.558C112.617 159.777 113.427 159.386 114.453 159.386C115.276 159.386 115.956 159.693 116.492 160.308V155.995H118.758V167.995H116.719L116.609 167.097C116.047 167.8 115.323 168.152 114.438 168.152C113.443 168.152 112.643 167.761 112.039 166.98C111.44 166.193 111.141 165.102 111.141 163.706ZM113.398 163.87C113.398 164.662 113.536 165.269 113.812 165.691C114.089 166.113 114.49 166.323 115.016 166.323C115.714 166.323 116.206 166.029 116.492 165.441V162.105C116.211 161.516 115.724 161.222 115.031 161.222C113.943 161.222 113.398 162.105 113.398 163.87Z" fill="#1D2130"/>
<path opacity="0.6" d="M10.0742 193.995V185.464H12.998C13.9629 185.464 14.6973 185.657 15.2012 186.044C15.7051 186.431 15.957 187.007 15.957 187.773C15.957 188.163 15.8516 188.515 15.6406 188.827C15.4297 189.14 15.1211 189.382 14.7148 189.554C15.1758 189.679 15.5312 189.915 15.7812 190.263C16.0352 190.607 16.1621 191.021 16.1621 191.505C16.1621 192.306 15.9043 192.921 15.3887 193.351C14.877 193.781 14.1426 193.995 13.1855 193.995H10.0742ZM11.5566 190.146V192.812H13.2031C13.668 192.812 14.0312 192.697 14.293 192.466C14.5547 192.236 14.6855 191.915 14.6855 191.505C14.6855 190.618 14.2324 190.165 13.3262 190.146H11.5566ZM11.5566 189.056H13.0098C13.4707 189.056 13.8301 188.952 14.0879 188.745C14.3496 188.534 14.4805 188.238 14.4805 187.855C14.4805 187.433 14.3594 187.128 14.1172 186.941C13.8789 186.753 13.5059 186.659 12.998 186.659H11.5566V189.056ZM22.6309 190.187H19.127V192.812H23.2227V193.995H17.6445V185.464H23.1816V186.659H19.127V189.015H22.6309V190.187ZM27.5645 190.708H25.9121V193.995H24.4297V185.464H27.4297C28.4141 185.464 29.1738 185.685 29.709 186.126C30.2441 186.568 30.5117 187.206 30.5117 188.042C30.5117 188.613 30.373 189.091 30.0957 189.478C29.8223 189.861 29.4395 190.156 28.9473 190.363L30.8633 193.919V193.995H29.2754L27.5645 190.708ZM25.9121 189.519H27.4355C27.9355 189.519 28.3262 189.394 28.6074 189.144C28.8887 188.89 29.0293 188.544 29.0293 188.107C29.0293 187.65 28.8984 187.296 28.6367 187.046C28.3789 186.796 27.9922 186.667 27.4766 186.659H25.9121V189.519ZM33.4004 192.812H37.2734V193.995H31.918V185.464H33.4004V192.812ZM39.9746 193.995H38.498V185.464H39.9746V193.995ZM48.5645 193.995H47.082L43.2793 187.943V193.995H41.7969V185.464H43.2793L47.0938 191.54V185.464H48.5645V193.995ZM50.3809 195.917L49.6133 195.46C49.8398 195.105 49.9941 194.794 50.0762 194.529C50.1621 194.267 50.207 193.999 50.2109 193.726V192.618H51.4941L51.4883 193.644C51.4844 194.058 51.3789 194.472 51.1719 194.886C50.9688 195.304 50.7051 195.648 50.3809 195.917ZM62.4805 192.888C62.1719 193.29 61.7441 193.595 61.1973 193.802C60.6504 194.009 60.0293 194.113 59.334 194.113C58.6191 194.113 57.9863 193.95 57.4355 193.626C56.8848 193.302 56.459 192.839 56.1582 192.238C55.8613 191.632 55.707 190.927 55.6953 190.122V189.454C55.6953 188.165 56.0039 187.159 56.6211 186.437C57.2383 185.71 58.0996 185.347 59.2051 185.347C60.1543 185.347 60.9082 185.581 61.4668 186.05C62.0254 186.519 62.3613 187.195 62.4746 188.077H61.0215C60.8574 187.05 60.2617 186.536 59.2344 186.536C58.5703 186.536 58.0645 186.777 57.7168 187.257C57.373 187.734 57.1953 188.435 57.1836 189.361V190.017C57.1836 190.939 57.377 191.656 57.7637 192.167C58.1543 192.675 58.6953 192.929 59.3867 192.929C60.1445 192.929 60.6836 192.757 61.0039 192.413V190.743H59.2461V189.618H62.4805V192.888ZM69.0957 190.187H65.5918V192.812H69.6875V193.995H64.1094V185.464H69.6465V186.659H65.5918V189.015H69.0957V190.187ZM74.0293 190.708H72.377V193.995H70.8945V185.464H73.8945C74.8789 185.464 75.6387 185.685 76.1738 186.126C76.709 186.568 76.9766 187.206 76.9766 188.042C76.9766 188.613 76.8379 189.091 76.5605 189.478C76.2871 189.861 75.9043 190.156 75.4121 190.363L77.3281 193.919V193.995H75.7402L74.0293 190.708ZM72.377 189.519H73.9004C74.4004 189.519 74.791 189.394 75.0723 189.144C75.3535 188.89 75.4941 188.544 75.4941 188.107C75.4941 187.65 75.3633 187.296 75.1016 187.046C74.8438 186.796 74.457 186.667 73.9414 186.659H72.377V189.519ZM80.3047 185.464L82.7656 192.003L85.2207 185.464H87.1367V193.995H85.6602V191.183L85.8066 187.421L83.2871 193.995H82.2266L79.7129 187.427L79.8594 191.183V193.995H78.3828V185.464H80.3047ZM93.7754 192.009H90.4707L89.7793 193.995H88.2383L91.4609 185.464H92.791L96.0195 193.995H94.4727L93.7754 192.009ZM90.8867 190.814H93.3594L92.123 187.275L90.8867 190.814ZM103.76 193.995H102.277L98.4746 187.943V193.995H96.9922V185.464H98.4746L102.289 191.54V185.464H103.76V193.995ZM108.131 189.507L110.094 185.464H111.734L108.875 190.855V193.995H107.387V190.855L104.521 185.464H106.168L108.131 189.507Z" fill="#1D2130"/>
<path d="M45.293 134.995H33.5977V132.675L39.1172 126.792C39.875 125.964 40.4336 125.241 40.793 124.624C41.1602 124.007 41.3438 123.421 41.3438 122.866C41.3438 122.109 41.1523 121.515 40.7695 121.085C40.3867 120.648 39.8398 120.429 39.1289 120.429C38.3633 120.429 37.7578 120.695 37.3125 121.226C36.875 121.749 36.6562 122.441 36.6562 123.3H33.2578C33.2578 122.261 33.5039 121.312 33.9961 120.452C34.4961 119.593 35.1992 118.921 36.1055 118.437C37.0117 117.945 38.0391 117.698 39.1875 117.698C40.9453 117.698 42.3086 118.12 43.2773 118.964C44.2539 119.808 44.7422 120.999 44.7422 122.538C44.7422 123.382 44.5234 124.241 44.0859 125.116C43.6484 125.991 42.8984 127.011 41.8359 128.175L37.957 132.265H45.293V134.995ZM58.8633 127.941C58.8633 130.3 58.375 132.105 57.3984 133.355C56.4219 134.605 54.9922 135.23 53.1094 135.23C51.25 135.23 49.8281 134.616 48.8438 133.39C47.8594 132.163 47.3555 130.406 47.332 128.116V124.976C47.332 122.593 47.8242 120.784 48.8086 119.55C49.8008 118.316 51.2266 117.698 53.0859 117.698C54.9453 117.698 56.3672 118.312 57.3516 119.538C58.3359 120.757 58.8398 122.511 58.8633 124.8V127.941ZM55.4766 124.495C55.4766 123.081 55.2812 122.054 54.8906 121.413C54.5078 120.765 53.9062 120.441 53.0859 120.441C52.2891 120.441 51.6992 120.749 51.3164 121.366C50.9414 121.976 50.7422 122.933 50.7188 124.238V128.386C50.7188 129.777 50.9062 130.812 51.2812 131.491C51.6641 132.163 52.2734 132.499 53.1094 132.499C53.9375 132.499 54.5352 132.175 54.9023 131.527C55.2695 130.878 55.4609 129.886 55.4766 128.55V124.495ZM72.8555 134.995H61.1602V132.675L66.6797 126.792C67.4375 125.964 67.9961 125.241 68.3555 124.624C68.7227 124.007 68.9062 123.421 68.9062 122.866C68.9062 122.109 68.7148 121.515 68.332 121.085C67.9492 120.648 67.4023 120.429 66.6914 120.429C65.9258 120.429 65.3203 120.695 64.875 121.226C64.4375 121.749 64.2188 122.441 64.2188 123.3H60.8203C60.8203 122.261 61.0664 121.312 61.5586 120.452C62.0586 119.593 62.7617 118.921 63.668 118.437C64.5742 117.945 65.6016 117.698 66.75 117.698C68.5078 117.698 69.8711 118.12 70.8398 118.964C71.8164 119.808 72.3047 120.999 72.3047 122.538C72.3047 123.382 72.0859 124.241 71.6484 125.116C71.2109 125.991 70.4609 127.011 69.3984 128.175L65.5195 132.265H72.8555V134.995ZM83.168 134.995H79.7812V121.941L75.7383 123.195V120.441L82.8047 117.909H83.168V134.995Z" fill="#1D2130"/>
<path d="M73.1974 52.6308L84.3763 41.7452C84.7552 41.3761 84.8921 40.8236 84.7283 40.3208C84.5647 39.8175 84.1295 39.4506 83.6054 39.3747L68.1577 37.1338L61.2481 23.1501C61.0138 22.6757 60.5302 22.3755 60.0008 22.3755C59.4713 22.3755 58.9875 22.6762 58.7535 23.1501L51.8464 37.1338L36.3962 39.3747C35.8723 39.4506 35.4369 39.8178 35.2733 40.3208C35.1095 40.8236 35.2461 41.3761 35.6253 41.7452L46.8042 52.6308L44.1667 68.0002C44.0771 68.5213 44.2916 69.0483 44.72 69.359C45.148 69.67 45.7155 69.7112 46.1849 69.4649L60.0013 62.2095L73.8178 69.4649C74.0212 69.5719 74.2435 69.6245 74.4647 69.6245C74.7532 69.6245 75.04 69.535 75.2824 69.359C75.7108 69.0486 75.9256 68.5213 75.8358 68.0002L73.1974 52.6308Z" fill="#70C174"/>
<path d="M115.402 48.1143C115.332 48.0565 115.23 48.0382 115.151 48.0648C115.054 48.0946 114.966 48.1204 114.882 48.1449L114.841 48.1568C114.634 48.2172 114.456 48.2688 114.279 48.3397C111.488 49.4476 109.291 51.3456 107.562 54.1419C107.134 54.8328 106.804 55.551 106.54 56.2672C106.972 53.8581 107.072 52.9195 107.149 50.2238C107.153 50.1107 107.153 49.9956 107.153 49.8814C107.153 49.5696 107.153 49.275 107.221 49.0062C107.303 48.6877 107.467 48.37 107.626 48.0626C107.671 47.9756 107.716 47.8886 107.753 47.8122C107.765 47.7972 107.807 47.7719 107.823 47.7694C108.621 47.6477 109.327 47.3091 109.982 46.7347C110.641 46.1529 111.183 45.4409 111.594 44.6176C113.066 41.6671 113.803 38.4058 113.785 34.9255C113.783 34.5898 113.744 34.263 113.7 33.9075C113.68 33.7482 113.66 33.5853 113.644 33.4166C113.634 33.3241 113.577 33.2418 113.495 33.2018C113.413 33.1623 113.315 33.1651 113.232 33.2149C113.182 33.246 113.14 33.2713 113.101 33.2938C113.026 33.3383 112.969 33.373 112.915 33.4119C111.659 34.3116 110.551 35.4317 109.621 36.7402C108.104 38.8789 107.222 41.2972 106.985 43.9575C106.961 43.661 106.937 43.3644 106.913 43.0679L106.905 42.9603C106.811 41.7977 106.715 40.5954 106.637 39.4131C106.617 39.1137 106.559 38.8224 106.504 38.5406C106.396 37.9989 106.295 37.4873 106.457 36.9511C106.494 36.8299 106.525 36.7079 106.557 36.5862C106.633 36.2846 107.004 35.8202 107.574 35.3124L107.595 35.2932C107.805 35.1154 108.884 34.1293 109.496 32.1787C110.118 30.1971 110.071 28.1265 110.036 26.6145L110.035 26.5742C109.99 24.4958 109.765 22.9297 109.307 21.4952C109.247 21.3118 109.177 21.1309 109.102 20.9408C109.064 20.8418 109.024 20.7395 108.984 20.6325C108.95 20.5419 108.87 20.4761 108.776 20.4605L108.73 20.4563C108.649 20.4563 108.573 20.4927 108.522 20.5556L108.076 21.0978C105.941 23.6998 104.891 26.7515 104.957 30.1684C104.969 30.7702 105.014 31.3875 105.093 32.0248C104.551 30.1534 103.914 28.3318 103.19 26.5795C103.175 26.5411 103.165 26.4936 103.164 26.4533L103.159 26.2137C103.152 25.868 103.144 25.5103 103.159 25.1584C103.161 25.1 103.199 24.9953 103.277 24.8921C103.389 24.7446 103.513 24.6003 103.642 24.4502C103.861 24.1956 104.087 23.9327 104.266 23.6326C104.843 22.667 105.114 21.5264 105.119 20.0425C105.127 18.2957 104.857 16.4574 104.269 14.257C103.948 13.0566 103.464 11.4971 102.561 10.0833C102.5 9.98825 102.431 9.89875 102.359 9.80398C102.326 9.76201 102.291 9.71726 102.256 9.66918C102.205 9.60053 102.134 9.56051 102.02 9.56051C101.929 9.56718 101.848 9.61888 101.803 9.6992C100.67 11.7417 100.105 13.9238 100.079 16.3702C100.056 18.4099 100.375 20.1651 100.775 21.5522C99.7571 19.6954 98.6265 17.9013 97.4009 16.1995L97.3728 16.1609C97.345 16.1239 97.3333 16.1058 97.3352 16.1186C97.2582 15.568 97.2047 15.1275 97.1677 14.744C97.1686 14.7381 97.1758 14.7059 97.2331 14.6103C97.3141 14.4724 97.4028 14.3373 97.4972 14.1945C97.6863 13.9071 97.8817 13.6097 98.0069 13.2768C98.3847 12.2718 98.4695 11.1319 98.2656 9.79342C97.8179 6.83092 96.5106 4.16332 94.2698 1.63774C94.0391 1.37843 93.7843 1.14913 93.5147 0.906774L93.4401 0.839236C93.3347 0.743905 93.2265 0.646351 93.1171 0.543238C93.0476 0.47709 92.948 0.452354 92.8514 0.480703C92.7602 0.509608 92.6898 0.585205 92.6681 0.679147L92.6191 0.893712C92.5857 1.03601 92.5598 1.1483 92.5406 1.26114C92.239 3.05937 92.261 4.98545 92.6082 7.14999C92.9527 9.29675 93.6391 11.1483 94.6921 12.7567C93.1129 10.8979 91.5769 9.33705 89.9715 7.95378C89.9643 7.94433 89.9537 7.9157 89.9529 7.90847C90.0784 6.8287 89.8118 5.81147 89.1374 4.79868C88.2519 3.46765 87.0213 2.4532 85.4799 1.78393C84.5576 1.38426 83.6019 1.03046 82.6663 0.683872C82.2181 0.517668 81.7699 0.35202 81.3083 0.17442C80.8445 -0.00984963 80.6461 -0.0426459 80.5384 0.0568543C80.3999 0.185815 80.4333 0.295878 80.4937 0.49599L80.5131 0.561303C81.0788 2.46459 81.8294 3.96988 82.8085 5.16305C84.6058 7.35566 86.7077 8.46962 89.2312 8.56801C89.3197 8.57329 89.3898 8.59775 89.4184 8.61998C89.7737 8.88569 90.0353 9.09831 90.2665 9.30898C90.9976 9.97658 91.7177 10.6878 92.4221 11.4368C91.3743 10.7865 90.0937 10.493 88.6514 10.5658C87.8621 10.6055 87.0786 10.7212 86.321 10.8329L86.2921 10.8373C86.0681 10.8701 85.8452 10.9026 85.6229 10.9341C85.1361 10.9999 84.6453 11.0861 84.2118 11.1617C84.0362 11.1931 83.617 11.2884 83.5204 11.4916C83.487 11.5611 83.4898 11.6372 83.5277 11.7064C83.561 11.7667 83.5978 11.8234 83.6378 11.8751C84.889 13.4969 86.3163 14.565 88.0012 15.14C90.0556 15.8449 91.9425 15.7868 93.6379 14.9577C93.8972 14.8151 94.21 14.7429 94.5672 14.7429C94.8368 14.7429 95.0391 14.7854 95.1061 14.8007C95.2066 14.8173 95.3429 14.8735 95.3707 14.9096C96.4252 16.2946 97.4259 17.7737 98.3605 19.3276C97.5709 18.5605 96.5412 18.0433 95.1384 17.7065C93.9089 17.4138 92.6519 17.351 91.4367 17.2898L91.0296 17.2693C90.6485 17.2498 90.2673 17.2256 89.8747 17.2009L89.2165 17.1603C89.1313 17.1603 89.0504 17.2015 89.0008 17.2698C88.946 17.3435 88.9329 17.4391 88.9652 17.525C88.9916 17.5967 89.0398 17.7231 89.0645 17.7654C90.3463 19.9071 91.8515 21.3885 93.6655 22.2946C95.4389 23.1795 97.0411 23.4135 98.6573 23.0275C98.8443 22.9825 99.061 22.9586 99.285 22.9586C99.9725 22.9586 100.452 23.1681 100.553 23.3621C101.442 25.1945 102.235 27.0987 102.92 29.0409C102.202 28.0522 101.198 27.2493 99.9271 26.6487C98.6646 26.0534 97.35 25.5092 96.0565 24.9736C95.5006 24.744 94.9425 24.5136 94.3869 24.2779C94.3043 24.2418 94.2066 24.2493 94.1296 24.3001C94.0539 24.3505 94.0088 24.4344 94.0088 24.5247C94.0088 24.6982 95.8534 29.8124 98.5324 31.8277C99.6253 32.6498 100.971 33.4956 102.669 33.5353C103.177 33.5456 103.702 33.6173 104.099 34.0678C104.159 34.1395 104.24 34.1954 104.327 34.2251C104.463 34.2696 104.5 34.3524 104.567 34.6348C105.117 36.9406 105.517 39.3172 105.764 41.7305C105.689 41.4856 105.603 41.2382 105.503 40.9878C104.904 39.4689 103.895 38.1398 102.328 36.8049C101.52 36.114 100.674 35.445 99.8562 34.7977L99.8172 34.7671C99.4447 34.4722 99.073 34.1785 98.7024 33.8811C98.6259 33.8196 98.5513 33.7563 98.4648 33.6823L98.2336 33.4845C98.1526 33.4161 98.0322 33.4019 97.9376 33.4492C97.8405 33.4984 97.7823 33.6001 97.7898 33.7087C97.8013 33.8719 97.8104 34.0261 97.8191 34.1743L97.8235 34.2435C97.8419 34.5484 97.8591 34.836 97.89 35.1201C98.1799 37.8858 99.0032 40.1949 100.407 42.179C101.276 43.4056 102.522 44.9047 104.466 45.6137C104.939 45.7872 105.282 46.0498 105.649 46.5212C105.996 46.9626 106.061 47.3658 106.053 47.8733C106.02 49.9993 105.868 52.1082 105.601 54.1735C105.538 53.5988 105.406 53.0071 105.202 52.3923C104.781 51.1193 104.125 49.8817 103.196 48.6088C102.394 47.5065 101.56 46.4003 100.753 45.33L100.699 45.2585C100.38 44.8347 100.06 44.4103 99.7485 43.9951C99.6901 43.9097 99.6058 43.8792 99.5571 43.8622C99.4881 43.8286 99.4057 43.8252 99.3326 43.8564C99.2608 43.8869 99.2057 43.9473 99.1815 44.0212L99.172 44.0501C99.1587 44.089 99.1481 44.1235 99.1426 44.1579C98.5861 47.4726 98.9275 50.4423 100.186 53.2377C100.8 54.6046 101.625 56.1521 103.078 57.2656C103.742 57.7739 104.266 58.4871 104.553 59.2733C104.614 59.4426 104.612 59.516 104.605 59.5443C103.99 62.0896 103.186 64.5446 102.21 66.8681C102.461 65.6436 102.444 64.3573 102.157 63.0246C101.749 61.1358 101.049 59.3053 100.424 57.7378L100.237 57.2683C99.9436 56.5338 99.6486 55.7933 99.344 55.026C99.3053 54.9279 99.2121 54.8609 99.0877 54.8548C98.9898 54.8548 98.8997 54.9106 98.8529 55.0012L98.7547 55.1858C98.7116 55.2667 98.6713 55.342 98.6368 55.4198C97.3797 58.2531 96.9552 61.1575 97.3756 64.0524C97.676 66.1225 98.1852 67.6047 99.0265 68.8587C99.462 69.5069 99.8757 70.2289 99.9508 71.1169C99.9686 71.327 99.9602 71.4718 99.8665 71.6367C98.8053 73.493 97.6157 75.2448 96.3128 76.8724C96.3178 76.8635 96.3225 76.8546 96.3275 76.8457C97.2648 75.1344 97.2932 73.2842 97.1975 71.6997C97.1149 70.3415 96.9591 68.9852 96.8091 67.6739L96.8005 67.598C96.7401 67.0727 96.68 66.5477 96.6252 66.0216C96.5935 65.7233 96.5582 65.4251 96.5217 65.1225L96.4736 64.7128C96.463 64.6222 96.4076 64.5438 96.3281 64.5043C96.1801 64.4271 95.9405 64.5463 95.6818 64.852C93.9036 66.9529 92.8002 69.327 92.4018 71.9088C91.9886 74.5855 92.2126 76.8763 93.0873 78.9118C93.1107 78.966 93.1102 79.0767 93.1099 79.1136L93.0629 80.2848C93.0559 80.369 93.0114 80.4641 92.9747 80.4994C91.1991 82.2076 89.2443 83.6926 87.1465 84.9285C88.1395 84.0319 88.8534 82.8621 89.3161 81.3796C89.8288 79.7365 90.092 78.0263 90.3471 76.3682L90.3694 76.2206C90.4598 75.6381 90.5541 75.0566 90.6504 74.4624L90.7592 73.7906C90.7748 73.6928 90.7361 73.595 90.6601 73.5363C90.5847 73.4763 90.4757 73.4618 90.3889 73.4991L90.294 73.5383C90.1927 73.5797 90.1045 73.6167 90.0213 73.6592C86.0556 75.6378 83.445 80.2526 83.8139 84.6317C83.8718 85.3177 83.8089 85.9619 83.6214 86.6C83.6039 86.6581 83.5477 86.7212 83.5249 86.7318C81.6413 87.5253 79.8504 88.1042 78.0484 88.5017C77.9557 88.5231 77.8823 88.5892 77.8522 88.6784C77.8219 88.7682 77.8403 88.8657 77.902 88.9391C78.0979 89.1709 78.2684 89.4202 78.4087 89.6812C78.4663 89.7879 78.6034 89.8427 78.7061 89.816C80.1743 89.4814 81.604 89.0481 82.957 88.5272C83.0664 88.4833 83.1498 88.4625 83.228 88.4752C83.529 88.5153 83.8471 88.577 84.2001 88.6645C84.273 88.6823 84.3334 88.7159 84.3345 88.7129C85.1057 90.2487 86.4312 91.2271 88.3879 91.7032C88.8136 91.8052 89.2526 91.8805 89.6928 91.9266C90.1535 91.9753 90.6674 92 91.2196 92C91.9847 92 92.5303 91.9528 92.537 91.9522C94.2331 91.7626 95.6815 91.3813 96.9644 90.7863C97.4908 90.5425 98.0906 90.2143 98.5516 89.6281C98.6398 89.5158 98.6251 89.3538 98.5179 89.2596C97.2148 88.1109 95.8879 87.2762 94.4609 86.7081C92.3467 85.8688 90.4209 85.6414 88.5331 86.0041C88.251 86.0589 87.9756 86.1278 87.7079 86.207C89.4738 85.1526 91.1646 83.9133 92.7613 82.5014C92.7919 82.4736 92.8422 82.4491 92.8815 82.4421C93.1427 82.3988 93.4897 82.3454 93.8447 82.3199C93.8775 82.3199 93.9192 82.3357 93.924 82.3374C94.886 83.413 96.1255 83.9358 97.7133 83.9358C97.7943 83.9358 97.8755 83.9341 97.9565 83.9313C99.6829 83.8757 101.418 83.4019 103.116 82.5222C104.349 81.8793 105.635 81.1309 106.678 80.0147C106.909 79.7665 107.116 79.4858 107.298 79.2381L107.316 79.214C107.397 79.1047 107.478 78.9947 107.562 78.886C107.607 78.8274 107.627 78.7517 107.615 78.6756C107.602 78.6022 107.559 78.5369 107.487 78.4897C107.468 78.4797 107.027 78.2431 106.624 78.0872C103.924 77.0452 101.199 76.9385 98.5995 77.7754C97.7484 78.0486 96.9474 78.4588 96.1675 79.0258C97.6098 77.351 98.9453 75.5149 100.158 73.5394C100.171 73.5185 100.205 73.4621 100.216 73.4518C100.322 73.3843 100.431 73.3204 100.539 73.2573C100.733 73.1436 100.934 73.026 101.123 72.886C101.282 72.7673 101.327 72.7642 101.487 72.8676C101.715 73.0152 101.98 73.0919 102.21 73.1522C103.56 73.4974 104.92 73.3254 106.424 72.6197C107.799 71.976 108.856 70.9585 109.793 69.9552C111.157 68.4916 112.048 67.1711 112.598 65.7992C112.713 65.5113 112.796 65.2136 112.881 64.9023C112.917 64.7717 112.953 64.6411 112.991 64.5127C113.033 64.3748 112.96 64.2289 112.824 64.1808L112.711 64.1722C112.154 64.1722 107.193 64.2536 104.291 67.0663C103.66 67.6783 103.094 68.3287 102.577 69.0408C103.725 66.6122 104.699 64.0527 105.483 61.3959L105.495 61.357C105.504 61.3245 105.519 61.2753 105.528 61.262L106.287 60.2208C106.315 60.1791 106.319 60.1791 106.363 60.1791C106.383 60.1791 106.405 60.1805 106.429 60.1819L106.592 60.1916C107.156 60.2267 107.489 60.2216 107.762 60.1788C108.843 60.0085 109.818 59.4648 110.744 58.5165C112.909 56.2986 114.399 53.5315 115.299 50.0579C115.396 49.6858 115.423 49.31 115.452 48.9114C115.465 48.7308 115.479 48.5446 115.499 48.3522C115.508 48.26 115.472 48.1718 115.402 48.1143Z" fill="#1C1D28"/>
<path d="M41.951 88.4994C40.1506 88.1022 38.36 87.5233 36.4758 86.7298C36.4533 86.7192 36.3974 86.6561 36.3799 86.5994C36.1921 85.9599 36.1292 85.3156 36.187 84.6297C36.556 80.2503 33.9454 75.6358 29.9805 73.6575C29.8962 73.6147 29.8083 73.5777 29.707 73.5363L29.613 73.4974C29.5236 73.4593 29.4149 73.4751 29.3428 73.5329C29.2649 73.593 29.2262 73.6908 29.2421 73.7889L29.3506 74.4604C29.4469 75.0546 29.5412 75.6361 29.6316 76.2181L29.6544 76.3704C29.909 78.0243 30.1722 79.7347 30.6849 81.3779C31.1476 82.8604 31.8615 84.0302 32.8545 84.9265C30.7567 83.6908 28.8019 82.2059 27.0266 80.498C26.9893 80.4621 26.9451 80.367 26.9387 80.2887L26.8911 79.1166C26.8908 79.0749 26.8903 78.9643 26.9139 78.9096C27.7884 76.8745 28.0123 74.5838 27.5992 71.907C27.2008 69.3253 26.0974 66.9512 24.3192 64.8503C24.1111 64.6043 23.9275 64.4798 23.7734 64.4798C23.7358 64.4798 23.7019 64.4873 23.6752 64.5012C23.5934 64.5418 23.538 64.6205 23.5271 64.7113L23.4796 65.1202C23.4428 65.4237 23.4075 65.7216 23.3758 66.0201C23.321 66.546 23.2609 67.071 23.2005 67.5963L23.1919 67.6722C23.0416 68.9837 22.8858 70.34 22.8035 71.698C22.7078 73.2822 22.7362 75.1324 23.6735 76.844C23.6785 76.8526 23.6829 76.8617 23.688 76.8704C22.385 75.2428 21.1956 73.4912 20.1345 71.6352C20.0408 71.4701 20.0327 71.3253 20.0502 71.1152C20.1256 70.2266 20.539 69.5046 20.9745 68.857C21.8155 67.603 22.3247 66.1207 22.6254 64.0507C23.0458 61.1557 22.6213 58.2516 21.3643 55.4184C21.3298 55.3403 21.2894 55.2649 21.2463 55.1841L21.1481 54.999C21.1011 54.9086 21.0006 54.8491 20.8946 54.8539C20.7889 54.8594 20.6957 54.9264 20.6573 55.0237C20.3524 55.7919 20.0574 56.532 19.7645 57.2666L19.5772 57.736C18.9524 59.3039 18.2515 61.1343 17.8442 63.0229C17.5571 64.3556 17.5395 65.6419 17.7913 66.8664C16.8142 64.5432 16.011 62.0882 15.3958 59.5426C15.3889 59.5143 15.3867 59.4409 15.4476 59.2716C15.7353 58.4851 16.2592 57.7719 16.923 57.2636C18.3762 56.1501 19.2005 54.6026 19.8151 53.2357C21.0735 50.4403 21.4149 47.4706 20.8584 44.1562C20.8526 44.1215 20.842 44.087 20.8295 44.0495L20.8195 44.0195C20.7953 43.9453 20.7402 43.8852 20.6673 43.8538C20.5961 43.8241 20.5065 43.8296 20.4511 43.8569C20.3955 43.8772 20.3112 43.908 20.2564 43.9883C19.9414 44.4086 19.6218 44.8327 19.3018 45.2566L19.2481 45.328C18.4413 46.3983 17.6069 47.5045 16.805 48.6065C15.8761 49.8797 15.22 51.1173 14.7991 52.3903C14.596 53.0051 14.4632 53.5968 14.4006 54.1715C14.1333 52.1062 13.9816 49.9975 13.9485 47.8713C13.9407 47.3638 14.0053 46.9606 14.3522 46.5189C14.7195 46.0481 15.0625 45.7852 15.5355 45.6118C17.4789 44.9025 18.7256 43.4036 19.5945 42.177C20.9981 40.1929 21.8214 37.8841 22.1113 35.1186C22.1422 34.834 22.1597 34.5461 22.1778 34.2415L22.1822 34.1723C22.1908 34.0241 22.2 33.8699 22.2117 33.7065C22.2189 33.5981 22.1608 33.4964 22.0637 33.4472C21.9697 33.3999 21.8492 33.4138 21.7674 33.483L21.5367 33.6803C21.4499 33.7543 21.3757 33.8176 21.2986 33.8793C20.9283 34.1765 20.5566 34.4705 20.184 34.7654L20.1451 34.796C19.3274 35.443 18.4816 36.112 17.6739 36.8029C16.1067 38.1381 15.0976 39.4672 14.498 40.9861C14.399 41.2365 14.3122 41.4842 14.2376 41.7293C14.4841 39.3157 14.8845 36.9388 15.4342 34.6328C15.501 34.3507 15.5383 34.2679 15.6755 34.2229C15.7617 34.1937 15.8421 34.1375 15.9008 34.0681C16.2995 33.6153 16.8245 33.5436 17.3331 33.5333C19.0303 33.4936 20.3763 32.6478 21.4689 31.8257C24.1479 29.8101 25.9925 24.6961 25.9925 24.5227C25.9925 24.4324 25.9474 24.3482 25.8709 24.2973C25.7955 24.2476 25.6937 24.2406 25.6169 24.2748C25.0588 24.5113 24.5006 24.7417 23.9228 24.9805C22.6513 25.5072 21.3367 26.0514 20.0741 26.6464C18.8035 27.247 17.7994 28.0502 17.0816 29.0386C17.7657 27.0967 18.5589 25.1928 19.447 23.3632C19.5491 23.1658 20.0288 22.9563 20.7166 22.9563C20.9402 22.9563 21.157 22.9802 21.3442 23.0252C22.9601 23.4121 24.5624 23.1775 26.3358 22.2923C28.1501 21.3862 29.6552 19.9049 30.9373 17.7623C30.9618 17.7209 31.0099 17.5944 31.0358 17.5235C31.0683 17.4368 31.0553 17.3412 31.0013 17.2687C30.9512 17.1997 30.8711 17.1586 30.769 17.1586C30.7681 17.1586 30.7676 17.1586 30.7667 17.1586L30.1263 17.1989C29.7337 17.2236 29.3525 17.2478 28.9714 17.2673L28.5643 17.2878C27.3491 17.349 26.0921 17.4118 24.8623 17.7045C23.4598 18.0413 22.4301 18.5585 21.6405 19.3256C22.5751 17.7717 23.5758 16.2931 24.63 14.9082C24.6584 14.8715 24.7944 14.8153 24.906 14.7967C24.9617 14.7837 25.1642 14.7411 25.4335 14.7411C25.7908 14.7411 26.1035 14.8137 26.3686 14.9593C28.0532 15.7823 29.9452 15.8434 31.9993 15.1386C33.6842 14.5635 35.1112 13.4954 36.362 11.8742C36.4027 11.822 36.4394 11.765 36.4728 11.705C36.5109 11.6358 36.5134 11.5596 36.48 11.4901C36.3832 11.2873 35.9642 11.1919 35.7878 11.1602C35.3549 11.0846 34.8644 10.9985 34.3781 10.9326C34.1552 10.9015 33.9321 10.869 33.7084 10.8359L33.6797 10.8314C32.9218 10.7197 32.1384 10.6041 31.3491 10.5643C29.9068 10.4907 28.6261 10.7847 27.578 11.4357C28.2828 10.6864 29.0028 9.9754 29.734 9.30753C29.9652 9.09686 30.2267 8.88452 30.5831 8.61798C30.6107 8.59685 30.6808 8.57212 30.7667 8.56712C33.2927 8.46845 35.3947 7.35449 37.192 5.16215C38.171 3.96871 38.9217 2.46342 39.4873 0.560132L39.5068 0.494817C39.5672 0.294705 39.6005 0.184643 39.4617 0.055682C39.3546 -0.0438182 39.166 -0.0143564 38.6757 0.179641C38.2306 0.35057 37.7826 0.516497 37.3227 0.68687C36.3988 1.02901 35.4431 1.38281 34.5208 1.78248C32.9794 2.45175 31.7486 3.4662 30.863 4.79723C30.1886 5.81002 29.9221 6.82753 30.0475 7.90258C30.0467 7.91453 30.0361 7.94316 30.0345 7.94649C28.4255 9.33421 26.8875 10.8965 25.3083 12.7559C26.3614 11.1475 27.0478 9.29558 27.3922 7.14882C27.7394 4.98455 27.7614 3.0582 27.4598 1.25997C27.4406 1.1474 27.4147 1.03484 27.3816 0.89393L27.3324 0.676863C27.3101 0.583756 27.24 0.508436 27.1479 0.479531C27.0558 0.452293 26.9526 0.476473 26.8839 0.541788C26.7737 0.645457 26.6658 0.74329 26.5603 0.838343L26.486 0.905325C26.2162 1.14824 25.9613 1.37753 25.7307 1.63685C23.4896 4.16243 22.1825 6.83003 21.7348 9.79225C21.5309 11.1311 21.6155 12.2709 21.9936 13.2759C22.1188 13.6088 22.3141 13.9062 22.5086 14.2014C22.5976 14.3362 22.6866 14.4715 22.7682 14.6105C22.8283 14.7103 22.8333 14.7361 22.833 14.7314C22.796 15.1275 22.7428 15.5688 22.6711 16.0986C22.668 16.1052 22.658 16.1208 22.626 16.163L22.6001 16.1989C21.3745 17.9007 20.2439 19.6947 19.2264 21.5516C19.6265 20.1647 19.945 18.4093 19.9225 16.3695C19.8952 13.9229 19.3313 11.7408 18.1978 9.69775C18.153 9.61826 18.0718 9.56657 17.958 9.55878C17.8754 9.55878 17.7958 9.59964 17.7438 9.6694C17.7098 9.71665 17.6753 9.76112 17.6425 9.80336C17.5693 9.89786 17.5009 9.98735 17.4397 10.083C16.5371 11.4968 16.053 13.0557 15.7317 14.2561C15.1443 16.4576 14.8745 18.2959 14.8823 20.0416C14.8867 21.5255 15.1574 22.6661 15.7344 23.6314C15.9139 23.9318 16.1398 24.1948 16.3668 24.4593C16.4873 24.5997 16.6111 24.744 16.7232 24.8918C16.8017 24.9946 16.8395 25.0994 16.8418 25.1578C16.8565 25.5097 16.8487 25.8674 16.8412 26.2131L16.8359 26.4521C16.8351 26.4933 16.8256 26.5405 16.8114 26.5766C16.0869 28.3301 15.4501 30.1525 14.907 32.0241C14.9869 31.3868 15.0319 30.7698 15.0433 30.1678C15.109 26.7509 14.0598 23.6995 11.9242 21.0972L11.479 20.5555C11.4276 20.4918 11.3513 20.4557 11.2701 20.4557L11.2256 20.4596C11.1304 20.4755 11.0503 20.5413 11.0172 20.6311C10.9766 20.7392 10.9368 20.8412 10.8981 20.9399C10.8236 21.1305 10.7532 21.3112 10.6936 21.4949C10.2354 22.9288 10.0106 24.4952 9.96497 26.573L9.96413 26.6136C9.92991 28.1253 9.88289 30.1962 10.5044 32.1778C11.1162 34.1287 12.1952 35.1145 12.4044 35.2915L12.4267 35.3115C12.9962 35.8193 13.3671 36.2837 13.4438 36.5853C13.4747 36.707 13.5062 36.8291 13.5429 36.9497C13.7054 37.4864 13.6038 37.9978 13.4942 38.55C13.4397 38.8288 13.3829 39.1167 13.3632 39.4122C13.2847 40.5945 13.1884 41.7968 13.0952 42.9594L13.0869 43.067C13.063 43.3635 13.039 43.6601 13.0154 43.9567C12.7778 41.2963 11.8958 38.878 10.3784 36.7393C9.44914 35.4308 8.34127 34.3113 7.08482 33.411C7.03057 33.3721 6.97353 33.3374 6.8973 33.2921C6.8603 33.2707 6.81745 33.2451 6.76542 33.2126C6.68696 33.1656 6.58625 33.1614 6.50528 33.2009C6.42237 33.2412 6.36534 33.3232 6.35588 33.416C6.33891 33.5842 6.31915 33.747 6.29829 33.916C6.25628 34.2621 6.21649 34.5889 6.21482 34.9247C6.19618 38.4049 6.93319 41.6662 8.40609 44.6167C8.81647 45.44 9.35872 46.1521 10.0184 46.734C10.6725 47.308 11.3783 47.6465 12.1749 47.7682C12.1924 47.7713 12.2341 47.7966 12.2405 47.8016C12.2837 47.888 12.3285 47.9747 12.3733 48.0617C12.5324 48.3688 12.6968 48.6865 12.7786 49.005C12.8468 49.2744 12.8468 49.5687 12.8468 49.8805C12.8468 49.9948 12.8468 50.1098 12.8504 50.2227C12.9269 52.9186 13.0273 53.8575 13.4591 56.2663C13.1957 55.5501 12.8649 54.8319 12.4378 54.141C10.7084 51.3447 8.51126 49.4467 5.72098 48.3391C5.54347 48.2677 5.36541 48.2163 5.15897 48.1562L5.1178 48.144C5.03405 48.1195 4.9453 48.0934 4.85042 48.0645C4.76473 48.0364 4.66708 48.0556 4.59724 48.1134C4.52769 48.171 4.49124 48.2591 4.50042 48.3508C4.52101 48.542 4.5352 48.7279 4.54828 48.9094C4.57693 49.3074 4.60392 49.6832 4.70046 50.0551C5.60079 53.529 7.09094 56.2958 9.25578 58.514C10.1814 59.4623 11.1569 60.0059 12.2378 60.1763C12.5104 60.2188 12.8437 60.2241 13.408 60.1891L13.5704 60.1794C13.5952 60.178 13.6169 60.1766 13.6367 60.1766C13.6812 60.1766 13.6848 60.1766 13.7157 60.2222L14.4716 61.2591C14.4813 61.2727 14.4955 61.3219 14.5053 61.3558L14.5164 61.3931C15.301 64.0501 16.2745 66.6093 17.4224 69.0382C16.9058 68.3259 16.3396 67.6755 15.7086 67.0638C12.8067 64.2511 7.84548 64.1696 7.28931 64.1696L7.22004 64.1702L7.17635 64.1783C7.04003 64.2266 6.9663 64.3723 7.00831 64.5093C7.04698 64.6385 7.08315 64.7691 7.12461 64.9226C7.2039 65.2108 7.28625 65.5084 7.40171 65.7964C7.95148 67.1688 8.84262 68.489 10.2067 69.9526C11.1441 70.9559 12.2008 71.9735 13.5749 72.6169C15.0798 73.3228 16.4386 73.4951 17.7899 73.1494C18.0198 73.0891 18.2841 73.0126 18.5114 72.8653C18.6733 72.7617 18.7175 72.765 18.8767 72.8834C19.0653 73.0235 19.2659 73.1411 19.4607 73.255C19.5683 73.3181 19.6768 73.3817 19.7781 73.4457C19.7942 73.4593 19.8287 73.5157 19.8415 73.5366C21.054 75.5121 22.3898 77.3481 23.8321 79.023C23.0519 78.456 22.2509 78.0457 21.4001 77.7725C18.8002 76.9357 16.075 77.0421 13.376 78.0847C12.9731 78.2406 12.5316 78.4768 12.5021 78.4935C12.4403 78.5341 12.3977 78.5997 12.3844 78.675C12.3727 78.7489 12.3919 78.8245 12.437 78.8823C12.5213 78.9918 12.6028 79.1019 12.6835 79.2111L12.7013 79.235C12.8835 79.4829 13.0899 79.7634 13.3214 80.0118C14.3639 81.1283 15.6496 81.8768 16.8838 82.5194C18.5809 83.399 20.3165 83.8729 22.0426 83.9285C22.1238 83.9313 22.205 83.9329 22.286 83.9329C23.8738 83.9329 25.1133 83.4101 26.0687 82.3409C26.0804 82.3326 26.1218 82.3167 26.1446 82.3165C26.5097 82.3426 26.8566 82.3957 27.1159 82.4388C27.1568 82.446 27.2072 82.4704 27.2386 82.4988C28.8348 83.9104 30.5252 85.1494 32.2911 86.2039C32.0235 86.1247 31.7477 86.0558 31.4656 86.0005C29.5785 85.6381 27.6526 85.8654 25.5378 86.7048C24.1111 87.2729 22.7843 88.1075 21.4814 89.2562C21.374 89.3504 21.359 89.5124 21.4474 89.6247C21.9085 90.2109 22.5083 90.5391 23.0344 90.7826C24.3176 91.3782 25.766 91.7595 27.464 91.9491C27.469 91.9494 28.0146 91.9966 28.7797 91.9966C29.332 91.9966 29.8458 91.9719 30.3063 91.9232C30.7464 91.8771 31.1855 91.8018 31.6114 91.6995C33.5679 91.2237 34.8936 90.2454 35.6531 88.7265C35.6668 88.7134 35.7252 88.6795 35.7992 88.6614C36.1523 88.5739 36.47 88.5122 36.7721 88.4719C36.8434 88.4605 36.9321 88.4796 37.044 88.5247C38.395 89.0447 39.8248 89.478 41.2907 89.8121C41.3113 89.8171 41.3327 89.8196 41.3542 89.8196C41.4527 89.8196 41.5434 89.7654 41.5912 89.677C41.7312 89.4168 41.9017 89.1672 42.0979 88.9352C42.1593 88.8621 42.1777 88.7648 42.1474 88.6748C42.1184 88.5875 42.045 88.5213 41.951 88.4994Z" fill="#1C1D28"/>
</svg>
