<svg width="1280" height="98" viewBox="0 0 1280 98" fill="none" xmlns="http://www.w3.org/2000/svg">
<g opacity="0.6">
<path d="M21.29 80.7902C20.8935 81.1904 20.5899 81.6733 20.4007 82.2046C20.2115 82.7358 20.1415 83.3024 20.1956 83.864L20.1768 83.8451C20.2324 84.506 20.1436 85.1712 19.9164 85.7942C19.6893 86.4172 19.3293 86.9829 18.8617 87.4519C18.3941 87.921 17.83 88.282 17.209 88.5098C16.5879 88.7377 15.9247 88.8268 15.2657 88.771L15.2845 88.7899C14.4963 88.7163 13.7045 88.8883 13.0173 89.2826C12.3301 89.6768 11.7809 90.2741 11.4445 90.9929C11.1081 91.7117 11.0009 92.5171 11.1376 93.2992C11.2742 94.0814 11.6481 94.8022 12.2081 95.3635C12.7682 95.9247 13.4872 96.299 14.2671 96.4354C15.047 96.5717 15.8499 96.4635 16.5662 96.1254C17.2825 95.7874 17.8775 95.2359 18.2699 94.5463C18.6624 93.8566 18.8332 93.0624 18.7591 92.2718L18.779 92.2907C18.7234 91.6297 18.8122 90.9645 19.0394 90.3416C19.2665 89.7186 19.6264 89.1529 20.0941 88.6838C20.5617 88.2148 21.1257 87.8537 21.7468 87.6259C22.3679 87.3981 23.0311 87.309 23.6901 87.3648L23.6702 87.3459C24.3141 87.404 24.9622 87.2981 25.5545 87.038C26.1467 86.778 26.6639 86.3722 27.0582 85.8582C27.4525 85.3443 27.711 84.7389 27.8098 84.098C27.9087 83.4572 27.8447 82.8017 27.6237 82.1923C27.4027 81.5829 27.032 81.0393 26.5458 80.6119C26.0596 80.1844 25.4737 79.8871 24.8424 79.7472C24.211 79.6074 23.5548 79.6297 22.9343 79.812C22.3139 79.9944 21.7494 80.3308 21.2931 80.7902H21.29Z" fill="#1D2130"/>
<path d="M13.5718 86.3153L13.5519 86.2964C14.112 86.353 14.6776 86.2841 15.2079 86.0946C15.7381 85.9051 16.2198 85.5997 16.618 85.2006C17.0162 84.8015 17.321 84.3186 17.5103 83.7869C17.6997 83.2552 17.7688 82.6879 17.7128 82.1261L17.7327 82.145C17.6771 81.484 17.7659 80.8188 17.9931 80.1958C18.2202 79.5729 18.5802 79.0071 19.0478 78.5381C19.5154 78.0691 20.0795 77.708 20.7005 77.4802C21.3216 77.2524 21.9848 77.1633 22.6438 77.2191L22.6239 77.2002C23.4123 77.2744 24.2042 77.103 24.8918 76.7091C25.5794 76.3153 26.1292 75.7184 26.4661 74.9997C26.803 74.281 26.9107 73.4755 26.7744 72.6932C26.6382 71.9108 26.2646 71.1897 25.7047 70.6281C25.1449 70.0665 24.4259 69.6919 23.6459 69.5552C22.8659 69.4185 22.0629 69.5265 21.3463 69.8645C20.6298 70.2024 20.0346 70.7538 19.642 71.4435C19.2494 72.1332 19.0784 72.9275 19.1525 73.7182L19.1336 73.6983C19.1895 74.3593 19.1007 75.0246 18.8737 75.6476C18.6466 76.2707 18.2866 76.8365 17.819 77.3056C17.3513 77.7747 16.7872 78.1357 16.166 78.3634C15.5448 78.5912 14.8816 78.6802 14.2226 78.6242L14.2414 78.6441C13.6813 78.5875 13.1157 78.6565 12.5854 78.846C12.0551 79.0355 11.5735 79.3409 11.1753 79.74C10.7771 80.1391 10.4723 80.6219 10.283 81.1537C10.0936 81.6854 10.0244 82.2527 10.0805 82.8145L10.0616 82.7956C10.1171 83.4565 10.0281 84.1216 9.80088 84.7445C9.57368 85.3674 9.21373 85.9331 8.74615 86.4021C8.27856 86.8711 7.71459 87.2321 7.09358 87.46C6.47257 87.6879 5.80947 87.7771 5.15053 87.7215L5.16936 87.7404C4.38103 87.6662 3.58906 87.8376 2.90146 88.2314C2.21386 88.6252 1.66411 89.2222 1.3272 89.9409C0.990286 90.6596 0.882613 91.4651 1.01887 92.2474C1.15512 93.0298 1.52866 93.7509 2.08855 94.3125C2.64843 94.874 3.3674 95.2487 4.14739 95.3854C4.92737 95.522 5.7304 95.414 6.44694 95.0761C7.16349 94.7382 7.75866 94.1868 8.15127 93.4971C8.54389 92.8074 8.71485 92.0131 8.64081 91.2224L8.66069 91.2412C8.60506 90.5803 8.69392 89.9151 8.92105 89.2921C9.14819 88.6691 9.50813 88.1034 9.97576 87.6344C10.4434 87.1653 11.0074 86.8043 11.6285 86.5765C12.2496 86.3487 12.9128 86.2595 13.5718 86.3153Z" fill="#1D2130"/>
<path d="M6.55987 84.2092C6.95642 83.8091 7.26003 83.3262 7.44902 82.7949C7.63802 82.2636 7.70774 81.6969 7.6532 81.1355L7.67308 81.1544C7.61741 80.4932 7.70631 79.8278 7.93356 79.2047C8.16082 78.5816 8.52095 78.0157 8.98881 77.5466C9.45668 77.0775 10.021 76.7166 10.6423 76.4889C11.2637 76.2612 11.9271 76.1723 12.5863 76.2284L12.5664 76.2096C13.3544 76.2836 14.1461 76.112 14.8334 75.7183C15.5207 75.3245 16.0701 74.7277 16.4068 74.0092C16.7435 73.2907 16.8511 72.4855 16.7148 71.7035C16.5786 70.9214 16.2052 70.2006 15.6455 69.6392C15.0858 69.0778 14.3671 68.7033 13.5874 68.5666C12.8077 68.43 12.005 68.5379 11.2887 68.8756C10.5724 69.2133 9.97733 69.7644 9.58474 70.4538C9.19215 71.1431 9.0211 71.9372 9.09493 72.7276L9.0761 72.7087C9.13173 73.3697 9.04287 74.0349 8.81574 74.6579C8.5886 75.2808 8.22866 75.8466 7.76103 76.3156C7.29341 76.7847 6.72936 77.1457 6.10827 77.3735C5.48717 77.6013 4.82399 77.6904 4.16501 77.6346L4.18384 77.6535C3.53995 77.5956 2.8919 77.7017 2.29974 77.9618C1.70758 78.222 1.19048 78.6279 0.796347 79.1419C0.402215 79.6558 0.143805 80.2613 0.0450646 80.9021C-0.0536755 81.5429 0.0104481 82.1984 0.231494 82.8077C0.45254 83.4171 0.823356 83.9606 1.30958 84.3879C1.7958 84.8153 2.3817 85.1126 3.01298 85.2524C3.64427 85.3921 4.3005 85.3698 4.92089 85.1874C5.54128 85.0051 6.10574 84.6686 6.56196 84.2092H6.55987Z" fill="#1D2130"/>
<path d="M38.9695 73.7424H42.0768V88.9095H38.9695V73.7424Z" fill="#1D2130"/>
<path d="M43.8367 83.716C43.8323 82.626 44.1506 81.5593 44.7511 80.6509C45.3517 79.7425 46.2075 79.0333 47.2103 78.6132C48.213 78.193 49.3174 78.0808 50.3838 78.2908C51.4501 78.5008 52.4303 79.0234 53.2003 79.7926C53.9702 80.5618 54.4952 81.5429 54.7088 82.6116C54.9225 83.6803 54.815 84.7885 54.4002 85.7959C53.9853 86.8034 53.2817 87.6646 52.3785 88.2706C51.4752 88.8767 50.413 89.2001 49.3263 89.2002C48.605 89.2084 47.8892 89.0724 47.2209 88.7999C46.5526 88.5275 45.9451 88.1242 45.434 87.6136C44.9229 87.103 44.5184 86.4953 44.2441 85.8261C43.9698 85.1569 43.8313 84.4395 43.8367 83.716ZM51.7086 83.716C51.6957 83.2461 51.5449 82.7906 51.2752 82.4062C51.0056 82.0219 50.6289 81.7258 50.1924 81.555C49.7558 81.3842 49.2788 81.3462 48.8208 81.4459C48.3629 81.5455 47.9444 81.7784 47.6177 82.1153C47.291 82.4522 47.0705 82.8782 46.9839 83.3401C46.8973 83.802 46.9483 84.2793 47.1306 84.7122C47.313 85.1452 47.6185 85.5146 48.009 85.7744C48.3995 86.0341 48.8577 86.1726 49.3263 86.1726C49.6472 86.1812 49.9664 86.123 50.2638 86.0017C50.5612 85.8804 50.8303 85.6986 51.0541 85.4678C51.2779 85.237 51.4516 84.9622 51.5643 84.6606C51.6769 84.3591 51.7261 84.0375 51.7086 83.716Z" fill="#1D2130"/>
<path d="M67.2004 78.5214V88.3858C67.2004 91.8762 64.4864 93.3516 61.7316 93.3516C60.7617 93.4244 59.7905 93.2279 58.9246 92.7837C58.0587 92.3394 57.3314 91.6645 56.8226 90.833L59.4738 89.2957C59.6877 89.7291 60.0284 90.0866 60.4504 90.3205C60.8724 90.5544 61.3556 90.6534 61.8352 90.6043C62.1418 90.6469 62.4539 90.6198 62.7487 90.525C63.0434 90.4303 63.313 90.2703 63.5378 90.0569C63.7625 89.8435 63.9365 89.5821 64.0469 89.2921C64.1574 89.0021 64.2014 88.691 64.1757 88.3816V87.4319C63.8118 87.8785 63.3487 88.2333 62.8234 88.4678C62.2981 88.7024 61.7253 88.8101 61.151 88.7825C59.7844 88.7393 58.4882 88.1644 57.5367 87.1795C56.5853 86.1946 56.0532 84.877 56.0532 83.5056C56.0532 82.1341 56.5853 80.8165 57.5367 79.8316C58.4882 78.8467 59.7844 78.2718 61.151 78.2286C61.7253 78.201 62.2981 78.3087 62.8234 78.5433C63.3487 78.7778 63.8118 79.1326 64.1757 79.5792V78.5193L67.2004 78.5214ZM64.1767 83.5071C64.1976 83.0048 64.0682 82.5078 63.805 82.0799C63.5419 81.652 63.1571 81.3129 62.7002 81.1063C62.2433 80.8996 61.7351 80.8348 61.2412 80.9202C60.7473 81.0057 60.2902 81.2374 59.9287 81.5856C59.5671 81.9338 59.3178 82.3826 59.2127 82.8742C59.1076 83.3657 59.1516 83.8776 59.339 84.3438C59.5264 84.8101 59.8486 85.2095 60.2642 85.4905C60.6798 85.7715 61.1697 85.9214 61.671 85.9208C61.9974 85.9436 62.3251 85.8976 62.6328 85.7858C62.9405 85.6739 63.2214 85.4986 63.4574 85.2713C63.6935 85.0439 63.8795 84.7694 64.0033 84.4656C64.1272 84.1618 64.1863 83.8353 64.1767 83.5071Z" fill="#1D2130"/>
<path d="M68.9602 83.716C68.9558 82.626 69.2741 81.5593 69.8746 80.6509C70.4752 79.7425 71.331 79.0333 72.3337 78.6132C73.3365 78.193 74.4409 78.0808 75.5073 78.2908C76.5736 78.5008 77.5538 79.0234 78.3238 79.7926C79.0937 80.5618 79.6187 81.5429 79.8323 82.6116C80.046 83.6803 79.9385 84.7885 79.5237 85.7959C79.1088 86.8034 78.4052 87.6646 77.502 88.2706C76.5988 88.8767 75.5365 89.2001 74.4498 89.2002C73.7285 89.2084 73.0127 89.0724 72.3444 88.7999C71.6761 88.5275 71.0686 88.1242 70.5575 87.6136C70.0464 87.103 69.6419 86.4953 69.3676 85.8261C69.0933 85.1569 68.9548 84.4395 68.9602 83.716ZM76.8321 83.716C76.8192 83.2461 76.6684 82.7906 76.3987 82.4062C76.129 82.0219 75.7524 81.7258 75.3158 81.555C74.8793 81.3842 74.4023 81.3462 73.9443 81.4459C73.4864 81.5455 73.0679 81.7784 72.7412 82.1153C72.4145 82.4522 72.194 82.8782 72.1074 83.3401C72.0208 83.802 72.0718 84.2793 72.2542 84.7122C72.4365 85.1452 72.742 85.5146 73.1325 85.7744C73.523 86.0341 73.9812 86.1726 74.4498 86.1726C74.7707 86.1812 75.0899 86.123 75.3873 86.0017C75.6847 85.8804 75.9538 85.6986 76.1776 85.4678C76.4014 85.237 76.5751 84.9622 76.6878 84.6606C76.8004 84.3591 76.8496 84.0375 76.8321 83.716Z" fill="#1D2130"/>
<path d="M81.3885 75.7373C81.3885 75.3674 81.4979 75.0059 81.7028 74.6984C81.9076 74.3908 82.1988 74.1511 82.5395 74.0096C82.8802 73.8681 83.255 73.831 83.6167 73.9032C83.9783 73.9753 84.3105 74.1534 84.5713 74.415C84.832 74.6765 85.0096 75.0097 85.0815 75.3725C85.1535 75.7352 85.1166 76.1112 84.9754 76.4529C84.8343 76.7946 84.5954 77.0867 84.2888 77.2922C83.9822 77.4977 83.6217 77.6073 83.253 77.6073C82.76 77.6024 82.2886 77.4038 81.94 77.0542C81.5914 76.7045 81.3934 76.2317 81.3885 75.7373ZM81.7024 78.5214H84.8108V88.9105H81.6982L81.7024 78.5214Z" fill="#1D2130"/>
<path d="M98.228 83.7159C98.2639 84.4025 98.1641 85.0895 97.9344 85.7373C97.7047 86.3851 97.3496 86.981 96.8895 87.4906C96.4294 88.0003 95.8734 88.4137 95.2535 88.7071C94.6335 89.0005 93.9619 89.168 93.2771 89.2001C92.7013 89.2317 92.1257 89.1342 91.592 88.915C91.0584 88.6957 90.5801 88.3601 90.1917 87.9325V93.0651H87.0844V78.5214H90.1917V79.4973C90.5802 79.07 91.0586 78.7346 91.5922 78.5156C92.1259 78.2965 92.7014 78.1992 93.2771 78.2307C93.962 78.2627 94.6338 78.4302 95.2539 78.7236C95.874 79.017 96.4301 79.4305 96.8902 79.9403C97.3504 80.4501 97.7054 81.0461 97.935 81.6941C98.1646 82.3421 98.2642 83.0292 98.228 83.7159ZM95.1206 83.7159C95.1085 83.2297 94.9536 82.7579 94.6754 82.3595C94.3973 81.9611 94.0081 81.6539 93.5567 81.4763C93.1053 81.2986 92.6117 81.2585 92.1376 81.3608C91.6636 81.4632 91.2302 81.7035 90.8916 82.0517C90.5531 82.3999 90.3245 82.8406 90.2344 83.3185C90.1443 83.7964 90.1967 84.2903 90.3851 84.7385C90.5735 85.1866 90.8895 85.5691 91.2936 85.838C91.6976 86.1069 92.1718 86.2503 92.6567 86.2503C92.9896 86.2651 93.3219 86.2092 93.6317 86.0863C93.9416 85.9633 94.222 85.776 94.4547 85.5367C94.6873 85.2974 94.8669 85.0115 94.9817 84.6977C95.0965 84.3839 95.1438 84.0494 95.1206 83.7159Z" fill="#1D2130"/>
<path d="M107.817 85.7927C107.817 88.1822 105.746 89.2002 103.509 89.2002C102.606 89.2823 101.698 89.0906 100.904 88.6498C100.11 88.209 99.4661 87.5395 99.0555 86.7278L101.748 85.1904C101.856 85.5656 102.09 85.892 102.41 86.1151C102.73 86.3381 103.117 86.4444 103.505 86.4161C104.25 86.4161 104.624 86.1873 104.624 85.7728C104.624 84.6289 99.5274 85.2324 99.5274 81.6381C99.5274 79.3725 101.434 78.2307 103.588 78.2307C104.398 78.205 105.2 78.3977 105.91 78.7886C106.62 79.1795 107.213 79.7544 107.626 80.4534L104.975 81.8868C104.859 81.6147 104.665 81.3829 104.419 81.2204C104.172 81.0579 103.883 80.9717 103.588 80.9728C103.049 80.9728 102.717 81.1827 102.717 81.5542C102.722 82.739 107.817 81.9488 107.817 85.7927Z" fill="#1D2130"/>
<path d="M119.168 78.5214V88.9105H116.06V87.9335C115.702 88.3646 115.247 88.7043 114.732 88.9247C114.217 89.1451 113.658 89.2398 113.099 89.2012C111.007 89.2012 109.228 87.7058 109.228 84.8987V78.5214H112.336V84.4422C112.31 84.6896 112.338 84.9397 112.418 85.1752C112.498 85.4106 112.628 85.6257 112.8 85.8055C112.971 85.9853 113.18 86.1255 113.411 86.2162C113.642 86.307 113.89 86.3462 114.137 86.3311C115.277 86.3311 116.063 85.6668 116.063 84.1914V78.5246L119.168 78.5214Z" fill="#1D2130"/>
<path d="M136.985 82.5312V88.9095H133.878V82.8009C133.878 81.762 133.381 81.0977 132.387 81.0977C131.351 81.0977 130.771 81.825 130.771 83.0507V88.9095H127.664V82.8009C127.664 81.762 127.167 81.0977 126.172 81.0977C125.137 81.0977 124.557 81.825 124.557 83.0507V88.9095H121.45V78.5204H124.557V79.4754C124.879 79.0517 125.302 78.7157 125.787 78.4981C126.272 78.2805 126.803 78.1882 127.333 78.2297C127.864 78.2036 128.394 78.3162 128.869 78.5563C129.345 78.7965 129.75 79.1562 130.046 79.6002C130.39 79.1357 130.846 78.7663 131.371 78.5266C131.897 78.2869 132.474 78.1848 133.049 78.2297C135.427 78.2308 136.985 79.9339 136.985 82.5312Z" fill="#1D2130"/>
<path d="M139.613 78.4574C140.887 78.4574 141.919 77.4219 141.919 76.1445C141.919 74.8671 140.887 73.8316 139.613 73.8316C138.34 73.8316 137.307 74.8671 137.307 76.1445C137.307 77.4219 138.34 78.4574 139.613 78.4574Z" fill="#1D2130"/>
</g>
<g opacity="0.6">
<path d="M271.6 74.2896H274.756V89.598H271.6V74.2896Z" fill="#1D2130"/>
<path d="M276.523 84.3539C276.523 83.2525 276.848 82.1759 277.456 81.2606C278.064 80.3453 278.928 79.6325 279.939 79.2124C280.95 78.7924 282.062 78.6842 283.134 78.9014C284.206 79.1185 285.19 79.6514 285.961 80.4325C286.732 81.2135 287.256 82.2075 287.465 83.2885C287.675 84.3694 287.561 85.4887 287.138 86.5045C286.715 87.5202 286.002 88.3866 285.09 88.9939C284.178 89.6012 283.107 89.9221 282.014 89.9158C281.288 89.9215 280.569 89.7813 279.898 89.5034C279.228 89.2255 278.619 88.8155 278.107 88.2975C277.596 87.7795 277.192 87.1638 276.92 86.4866C276.648 85.8094 276.513 85.0844 276.523 84.3539ZM284.433 84.3539C284.42 83.8791 284.269 83.4185 283.998 83.0297C283.727 82.641 283.349 82.3413 282.909 82.1682C282.47 81.9951 281.99 81.9562 281.529 82.0565C281.068 82.1567 280.647 82.3916 280.318 82.7318C279.989 83.072 279.766 83.5024 279.679 83.9691C279.591 84.4359 279.642 84.9182 279.826 85.3559C280.009 85.7936 280.316 86.1671 280.709 86.4298C281.102 86.6925 281.563 86.8327 282.035 86.8329C282.356 86.8392 282.675 86.7787 282.971 86.6553C283.268 86.5318 283.537 86.348 283.76 86.1153C283.983 85.8827 284.156 85.6062 284.268 85.3031C284.38 85 284.429 84.6769 284.412 84.3539H284.433Z" fill="#1D2130"/>
<path d="M299.99 79.1099V89.0788C299.99 92.5961 297.255 94.0898 294.489 94.0898C293.513 94.1705 292.534 93.9752 291.663 93.526C290.791 93.0768 290.061 92.3915 289.555 91.5473L292.217 90.0005C292.432 90.4384 292.775 90.7997 293.2 91.0363C293.625 91.2729 294.111 91.3735 294.594 91.3248C294.901 91.363 295.214 91.3322 295.508 91.2347C295.803 91.1372 296.072 90.9753 296.297 90.7607C296.522 90.5462 296.698 90.2841 296.81 89.9934C296.923 89.7026 296.971 89.3903 296.95 89.0788V88.1148C296.583 88.5632 296.117 88.9192 295.589 89.1546C295.061 89.39 294.487 89.4983 293.91 89.4708C292.515 89.4708 291.178 88.9128 290.191 87.9194C289.205 86.926 288.651 85.5787 288.651 84.1738C288.651 82.769 289.205 81.4216 290.191 80.4283C291.178 79.4349 292.515 78.8768 293.91 78.8768C294.487 78.8494 295.061 78.9576 295.589 79.193C296.117 79.4284 296.583 79.7844 296.95 80.2328V79.1734L299.99 79.1099ZM296.95 84.142C296.971 83.6352 296.841 83.1336 296.577 82.7018C296.312 82.27 295.926 81.9276 295.467 81.7189C295.008 81.5101 294.497 81.4444 294.001 81.5302C293.504 81.616 293.045 81.8494 292.681 82.2004C292.317 82.5514 292.066 83.0039 291.96 83.4998C291.854 83.9957 291.897 84.5122 292.085 84.983C292.272 85.4538 292.596 85.8573 293.013 86.1417C293.43 86.426 293.922 86.5782 294.426 86.5787C294.754 86.6025 295.084 86.5567 295.394 86.4441C295.704 86.3315 295.987 86.1547 296.225 85.9251C296.463 85.6954 296.65 85.4181 296.775 85.111C296.9 84.8039 296.96 84.4738 296.95 84.142Z" fill="#1D2130"/>
<path d="M301.767 84.3539C301.767 83.2534 302.092 82.1777 302.699 81.2628C303.306 80.3479 304.169 79.6351 305.179 79.2144C306.189 78.7938 307.299 78.6842 308.371 78.8997C309.442 79.1152 310.426 79.6459 311.198 80.4248C311.97 81.2037 312.495 82.1958 312.707 83.2754C312.919 84.3549 312.808 85.4736 312.389 86.4897C311.969 87.5058 311.26 88.3737 310.35 88.9836C309.441 89.5934 308.372 89.9179 307.279 89.9158C306.553 89.9229 305.832 89.7838 305.159 89.5066C304.487 89.2295 303.876 88.8199 303.362 88.3019C302.849 87.7839 302.444 87.1678 302.17 86.4899C301.896 85.812 301.759 85.0858 301.767 84.3539ZM309.677 84.3539C309.665 83.8786 309.514 83.4176 309.242 83.0286C308.971 82.6397 308.591 82.34 308.152 82.1672C307.712 81.9944 307.231 81.9562 306.77 82.0573C306.309 82.1584 305.887 82.3944 305.559 82.7356C305.23 83.0769 305.009 83.5083 304.922 83.9757C304.836 84.4431 304.888 84.9258 305.073 85.3632C305.258 85.8007 305.567 86.1735 305.961 86.435C306.356 86.6964 306.818 86.8348 307.29 86.8329C307.611 86.8392 307.93 86.7787 308.227 86.6553C308.523 86.5318 308.792 86.348 309.015 86.1153C309.238 85.8827 309.411 85.6062 309.523 85.3031C309.635 85 309.684 84.6769 309.667 84.3539H309.677Z" fill="#1D2130"/>
<path d="M314.253 76.3024C314.253 75.9295 314.363 75.5649 314.569 75.2548C314.774 74.9446 315.067 74.7029 315.409 74.5602C315.751 74.4175 316.128 74.3801 316.491 74.4529C316.854 74.5257 317.188 74.7053 317.449 74.969C317.711 75.2327 317.89 75.5687 317.962 75.9345C318.034 76.3003 317.997 76.6795 317.855 77.0241C317.714 77.3686 317.474 77.6631 317.166 77.8703C316.858 78.0776 316.496 78.1882 316.125 78.1882C315.631 78.1826 315.158 77.9822 314.808 77.6297C314.458 77.2773 314.259 76.8008 314.253 76.3024ZM314.558 79.1098H317.714V89.5979H314.558V79.1098Z" fill="#1D2130"/>
<path d="M331.22 84.3539C331.255 85.0515 331.153 85.7491 330.92 86.4068C330.686 87.0645 330.326 87.6692 329.86 88.1861C329.393 88.7031 328.83 89.122 328.202 89.4189C327.575 89.7157 326.895 89.8846 326.202 89.9158C325.614 89.9552 325.025 89.8604 324.479 89.6384C323.932 89.4165 323.443 89.0731 323.047 88.6339V93.8144H319.891V79.1099H323.047V80.0952C323.443 79.6573 323.933 79.3155 324.48 79.0953C325.026 78.8752 325.615 78.7824 326.202 78.8239C326.892 78.8552 327.569 79.023 328.195 79.3179C328.82 79.6127 329.382 80.0288 329.848 80.5423C330.314 81.0558 330.675 81.6567 330.91 82.3107C331.146 82.9647 331.251 83.659 331.22 84.3539ZM328.064 84.3539C328.052 83.8619 327.895 83.3845 327.615 82.9816C327.334 82.5787 326.941 82.2681 326.486 82.0889C326.031 81.9097 325.534 81.8698 325.056 81.9742C324.578 82.0786 324.142 82.3227 323.802 82.6758C323.461 83.0289 323.232 83.4753 323.142 83.9592C323.053 84.443 323.107 84.9428 323.298 85.3957C323.489 85.8487 323.809 86.2347 324.217 86.5055C324.625 86.7762 325.103 86.9196 325.592 86.9177C325.927 86.932 326.261 86.8749 326.572 86.7501C326.883 86.6253 327.165 86.4356 327.398 86.1936C327.632 85.9515 327.812 85.6625 327.926 85.3454C328.041 85.0284 328.088 84.6905 328.064 84.3539Z" fill="#1D2130"/>
<path d="M340.823 86.4515C340.823 88.867 338.719 89.8946 336.489 89.8946C335.58 89.977 334.667 89.7829 333.868 89.3372C333.069 88.8915 332.421 88.2147 332.008 87.3944L334.722 85.8477C334.83 86.2257 335.063 86.555 335.383 86.7807C335.702 87.0063 336.089 87.1145 336.479 87.0872C337.226 87.0872 337.604 86.8541 337.604 86.4303C337.604 85.2756 332.482 85.89 332.482 82.2563C332.482 79.968 334.396 78.8238 336.563 78.8238C337.387 78.7867 338.205 78.9749 338.931 79.3685C339.657 79.762 340.264 80.3463 340.686 81.0592L337.973 82.4999C337.853 82.2266 337.657 81.9942 337.409 81.8306C337.16 81.667 336.87 81.5794 336.574 81.5783C336.027 81.5783 335.701 81.7901 335.701 82.1609C335.701 83.3687 340.823 82.5741 340.823 86.4515Z" fill="#1D2130"/>
<path d="M352.257 79.1099V89.598H349.101V88.6128C348.743 89.0489 348.288 89.394 347.772 89.6204C347.257 89.8467 346.696 89.9479 346.135 89.9158C344.031 89.9158 342.233 88.4009 342.233 85.5723V79.1099H345.388V85.0955C345.363 85.3458 345.393 85.5985 345.474 85.8361C345.556 86.0738 345.688 86.2908 345.861 86.4721C346.034 86.6534 346.244 86.7947 346.477 86.8863C346.709 86.9779 346.959 87.0175 347.208 87.0025C348.344 87.0025 349.143 86.3244 349.143 84.8837V79.1099H352.257Z" fill="#1D2130"/>
<path d="M370.138 83.1568V89.5979H366.983V83.4322C366.983 82.3728 366.488 81.716 365.489 81.716C364.49 81.716 363.859 82.447 363.859 83.6865V89.5979H360.703V83.4322C360.703 82.3728 360.209 81.716 359.21 81.716C358.21 81.716 357.579 82.447 357.579 83.6865V89.5979H354.424V79.1099H357.579V80.0739C357.906 79.648 358.333 79.3107 358.821 79.0925C359.31 78.8742 359.844 78.7819 360.377 78.8238C360.911 78.7958 361.443 78.908 361.92 79.1495C362.398 79.3909 362.805 79.7533 363.101 80.201C363.448 79.7332 363.907 79.3616 364.435 79.1207C364.963 78.8799 365.543 78.7777 366.12 78.8238C368.582 78.8238 370.138 80.54 370.138 83.1568Z" fill="#1D2130"/>
<path d="M252.803 71.5352V67.0327H238.708V97.9672H252.803V93.4648C249.916 93.4648 247.147 92.3096 245.105 90.2533C243.064 88.197 241.917 85.408 241.917 82.5C241.917 79.5919 243.064 76.803 245.105 74.7467C247.147 72.6904 249.916 71.5352 252.803 71.5352Z" fill="#1D2130"/>
<path d="M252.803 71.5352V93.4648C255.691 93.4648 258.46 92.3096 260.501 90.2533C262.543 88.197 263.69 85.408 263.69 82.5C263.69 79.5919 262.543 76.803 260.501 74.7467C258.46 72.6904 255.691 71.5352 252.803 71.5352Z" fill="#1D2130"/>
<path d="M372.789 79.0463C374.067 79.0463 375.103 78.0028 375.103 76.7156C375.103 75.4284 374.067 74.3849 372.789 74.3849C371.511 74.3849 370.475 75.4284 370.475 76.7156C370.475 78.0028 371.511 79.0463 372.789 79.0463Z" fill="#1D2130"/>
</g>
<g opacity="0.6">
<path d="M508.075 76.2888H511.231V89.0181H508.075V76.2888ZM512.483 84.2118C512.483 81.0636 514.418 79.1852 517.405 79.1852C520.393 79.1852 522.328 81.0636 522.328 84.2118C522.328 87.36 520.435 89.249 517.405 89.249C514.376 89.249 512.483 87.4125 512.483 84.2118ZM519.162 84.2118C519.162 82.4803 518.478 81.4624 517.405 81.4624C516.332 81.4624 515.659 82.5118 515.659 84.2118C515.659 85.9119 516.322 86.9403 517.405 86.9403C518.489 86.9403 519.162 85.9748 519.162 84.2223V84.2118ZM523.517 89.6373H526.546C526.69 89.9568 526.934 90.2214 527.241 90.3915C527.548 90.5617 527.902 90.6284 528.25 90.5817C529.449 90.5817 530.08 89.9311 530.08 88.9866V87.2236H530.017C529.766 87.764 529.358 88.2167 528.846 88.5235C528.334 88.8303 527.742 88.977 527.145 88.9446C524.842 88.9446 523.317 87.1921 523.317 84.1803C523.317 81.1685 524.768 79.2691 527.188 79.2691C527.802 79.2451 528.41 79.4091 528.929 79.7392C529.448 80.0693 529.853 80.5497 530.091 81.1161V79.3636H533.246V88.9132C533.246 91.2114 531.216 92.6386 528.218 92.6386C525.431 92.6386 523.695 91.3898 523.517 89.6477V89.6373ZM530.091 84.2013C530.091 82.6692 529.386 81.7037 528.271 81.7037C527.156 81.7037 526.472 82.6587 526.472 84.2013C526.472 85.744 527.145 86.615 528.271 86.615C529.396 86.615 530.091 85.7649 530.091 84.2118V84.2013ZM534.435 84.2013C534.435 81.0531 536.37 79.1747 539.358 79.1747C542.345 79.1747 544.291 81.0531 544.291 84.2013C544.291 87.3495 542.397 89.2385 539.358 89.2385C536.318 89.2385 534.435 87.4125 534.435 84.2118V84.2013ZM541.114 84.2013C541.114 82.4698 540.43 81.4519 539.358 81.4519C538.285 81.4519 537.664 82.5118 537.664 84.2223C537.664 85.9329 538.327 86.9508 539.4 86.9508C540.473 86.9508 541.114 85.9748 541.114 84.2223V84.2013ZM545.49 77.0759C545.482 76.758 545.568 76.4448 545.739 76.1761C545.909 75.9073 546.155 75.6951 546.447 75.5663C546.738 75.4375 547.061 75.3978 547.375 75.4525C547.689 75.5071 547.98 75.6535 548.21 75.8731C548.441 76.0927 548.601 76.3757 548.67 76.6861C548.739 76.9965 548.714 77.3204 548.598 77.6167C548.483 77.913 548.282 78.1684 548.02 78.3505C547.759 78.5325 547.449 78.6331 547.131 78.6395C546.92 78.6539 546.708 78.6247 546.508 78.5535C546.309 78.4824 546.126 78.3709 545.972 78.226C545.818 78.0811 545.696 77.906 545.613 77.7117C545.53 77.5174 545.488 77.3081 545.49 77.0968V77.0759ZM545.49 79.3845H548.646V89.0181H545.49V79.3845ZM560.1 84.2013C560.1 87.3495 558.701 89.144 556.303 89.144C555.688 89.1834 555.076 89.0334 554.549 88.7144C554.022 88.3953 553.607 87.9226 553.358 87.36H553.295V92.1034H550.139V79.3636H553.295V81.0846H553.358C553.595 80.5128 554.003 80.0277 554.526 79.6954C555.049 79.363 555.662 79.1995 556.282 79.2271C558.701 79.2691 560.142 81.0741 560.142 84.2223L560.1 84.2013ZM556.945 84.2013C556.945 82.6692 556.24 81.6932 555.136 81.6932C554.031 81.6932 553.326 82.6797 553.316 84.2013C553.305 85.723 554.031 86.6989 555.136 86.6989C556.24 86.6989 556.945 85.744 556.945 84.2223V84.2013ZM565.517 79.1642C568.137 79.1642 569.725 80.4025 569.798 82.3859H566.927C566.927 81.7037 566.359 81.2735 565.486 81.2735C564.613 81.2735 564.224 81.6093 564.224 82.1025C564.224 82.5957 564.571 82.7531 565.275 82.9001L567.295 83.3093C569.22 83.7186 570.04 84.4952 570.04 85.9538C570.04 87.9477 568.221 89.228 565.538 89.228C562.856 89.228 561.1 87.9477 560.963 85.9853H564.003C564.097 86.6989 564.665 87.1187 565.591 87.1187C566.517 87.1187 566.937 86.8143 566.937 86.3106C566.937 85.8069 566.643 85.702 565.886 85.5446L564.066 85.1563C562.183 84.768 561.194 83.7711 561.194 82.3019C561.215 80.413 562.909 79.1852 565.517 79.1852V79.1642ZM580.57 88.9971H577.53V87.2026H577.467C577.299 87.8051 576.931 88.3325 576.422 88.6971C575.913 89.0617 575.294 89.2416 574.669 89.207C574.189 89.2342 573.709 89.1584 573.262 88.9847C572.814 88.8111 572.409 88.5436 572.074 88.2004C571.739 87.8572 571.482 87.4462 571.32 86.9953C571.158 86.5444 571.094 86.064 571.134 85.5865V79.3636H574.29V84.8625C574.29 86.0063 574.879 86.615 575.857 86.615C576.087 86.6154 576.313 86.567 576.523 86.4728C576.732 86.3787 576.918 86.2411 577.069 86.0691C577.221 85.8972 577.334 85.695 577.4 85.476C577.467 85.257 577.486 85.0264 577.456 84.7995V79.3636H580.612L580.57 88.9971ZM582.095 79.3636H585.145V81.221H585.208C585.376 80.6265 585.736 80.1042 586.233 79.7358C586.73 79.3674 587.335 79.1737 587.954 79.1852C588.583 79.1349 589.209 79.3229 589.706 79.7117C590.203 80.1006 590.535 80.6619 590.636 81.284H590.699C590.89 80.6553 591.285 80.1079 591.822 79.7279C592.359 79.3479 593.007 79.157 593.665 79.1852C594.094 79.1708 594.522 79.2466 594.92 79.4078C595.317 79.569 595.677 79.8118 595.974 80.1206C596.272 80.4294 596.501 80.7972 596.647 81.2001C596.793 81.603 596.852 82.0321 596.821 82.4593V89.0181H593.665V83.2988C593.665 82.2494 593.192 81.7667 592.308 81.7667C592.111 81.765 591.916 81.8056 591.736 81.8855C591.556 81.9655 591.395 82.083 591.265 82.2302C591.134 82.3774 591.037 82.5509 590.979 82.7388C590.921 82.9268 590.905 83.1249 590.93 83.3198V89.0181H587.933V83.2569C587.933 82.2914 587.459 81.7667 586.597 81.7667C586.397 81.7668 586.2 81.809 586.019 81.8906C585.837 81.9721 585.675 82.0912 585.543 82.24C585.41 82.3887 585.311 82.5638 585.252 82.7535C585.192 82.9433 585.174 83.1434 585.198 83.3408V89.0181H582.042L582.095 79.3636Z" fill="#1D2130"/>
<path d="M499.25 76.866C498.715 75.6449 498.006 74.5069 497.146 73.4869C495.875 71.9342 494.289 70.6676 492.492 69.7706C490.694 68.8736 488.727 68.3664 486.719 68.2826C484.711 68.1987 482.709 68.54 480.843 69.284C478.976 70.0281 477.29 71.1579 475.893 72.5993C474.496 74.0406 473.421 75.7607 472.738 77.6465C472.056 79.5322 471.781 81.5407 471.933 83.5399C472.085 85.539 472.659 87.4835 473.618 89.2453C474.577 91.0071 475.899 92.5462 477.498 93.7615C478.523 94.5568 479.656 95.2034 480.864 95.6819C482.556 96.3739 484.367 96.7303 486.197 96.7313C489.972 96.723 493.59 95.2215 496.258 92.556C498.926 89.8906 500.425 86.2786 500.428 82.5118C500.431 80.5689 500.03 78.6465 499.25 76.866ZM486.186 71.1677C487.829 71.1676 489.451 71.5257 490.94 72.2171C490.577 72.3737 490.195 72.483 489.804 72.5425C488.518 72.7283 487.325 73.3244 486.406 74.2416C485.487 75.1589 484.889 76.3482 484.703 77.6321C484.621 78.3521 484.293 79.022 483.774 79.5286C483.254 80.0352 482.576 80.3476 481.852 80.413C480.565 80.5989 479.373 81.1949 478.454 82.1122C477.535 83.0295 476.937 84.2188 476.751 85.5026C476.688 86.1873 476.395 86.8306 475.92 87.3286C475.1 85.6005 474.732 83.6936 474.849 81.7854C474.967 79.8771 475.566 78.0295 476.592 76.4145C477.618 74.7995 479.036 73.4696 480.715 72.5486C482.395 71.6276 484.28 71.1453 486.197 71.1468L486.186 71.1677ZM477.487 89.8577C477.613 89.7423 477.74 89.6373 477.866 89.5114C478.802 88.6062 479.402 87.4114 479.57 86.1218C479.638 85.3969 479.962 84.7198 480.485 84.2119C480.988 83.6894 481.665 83.3685 482.389 83.3094C483.676 83.1235 484.868 82.5275 485.787 81.6102C486.707 80.6929 487.304 79.5036 487.49 78.2198C487.536 77.4616 487.862 76.7473 488.405 76.2154C488.921 75.7031 489.604 75.3938 490.33 75.3444C491.513 75.1821 492.615 74.6578 493.486 73.8437C494.477 74.6644 495.318 75.6518 495.968 76.7611C495.928 76.815 495.882 76.8642 495.832 76.908C495.329 77.435 494.653 77.763 493.928 77.8315C492.64 78.0141 491.446 78.6091 490.526 79.5269C489.606 80.4448 489.009 81.6359 488.826 82.9211C488.752 83.6435 488.43 84.3182 487.914 84.8308C487.398 85.3433 486.721 85.6623 485.997 85.7335C484.706 85.9179 483.509 86.5128 482.585 87.4297C481.66 88.3466 481.056 89.5367 480.864 90.8231C480.807 91.336 480.63 91.8285 480.348 92.2608C479.269 91.6216 478.302 90.8097 477.487 89.8577ZM486.186 93.9084C485.119 93.9096 484.056 93.7612 483.03 93.4677C483.381 92.8149 483.61 92.1036 483.704 91.3688C483.777 90.648 484.098 89.9746 484.612 89.4623C485.125 88.9499 485.8 88.63 486.523 88.5564C487.811 88.3727 489.006 87.7775 489.927 86.8601C490.849 85.9426 491.448 84.7522 491.635 83.4668C491.708 82.746 492.029 82.0726 492.543 81.5602C493.056 81.0479 493.731 80.7279 494.454 80.6544C495.423 80.5285 496.348 80.1683 497.146 79.605C497.59 81.2818 497.642 83.0377 497.3 84.738C496.958 86.4383 496.229 88.0377 495.171 89.4135C494.113 90.7894 492.753 91.9052 491.195 92.6752C489.638 93.4453 487.924 93.8492 486.186 93.8559V93.9084Z" fill="#1D2130"/>
</g>
<g opacity="0.6">
<path d="M733.197 90.1889C732.575 90.2224 731.959 90.0466 731.45 89.6899C731.237 89.5332 731.066 89.3273 730.951 89.0901C730.836 88.8528 730.781 88.5914 730.791 88.3283V78.693C730.786 78.6522 730.79 78.6108 730.804 78.5719C730.817 78.533 730.839 78.4977 730.869 78.4686C730.898 78.4396 730.933 78.4175 730.972 78.4042C731.012 78.3908 731.053 78.3865 731.094 78.3915H732.852C733.051 78.3915 733.145 78.4955 733.145 78.693V87.5799C733.145 87.9749 733.323 88.1724 733.689 88.1724C733.844 88.1788 734 88.1612 734.149 88.1204C734.359 88.1204 734.474 88.1828 734.484 88.3699L734.641 89.6692C734.649 89.707 734.648 89.7461 734.639 89.7837C734.63 89.8212 734.613 89.8565 734.589 89.887C734.566 89.9176 734.535 89.9427 734.501 89.9607C734.467 89.9787 734.429 89.9891 734.39 89.9914C734.005 90.1177 733.603 90.1843 733.197 90.1889Z" fill="#1D2130"/>
<path d="M743.084 89.0768C742.201 89.8017 741.091 90.1983 739.945 90.1983C738.8 90.1983 737.69 89.8017 736.807 89.0768C736.031 88.2982 735.595 87.2467 735.595 86.1508C735.595 85.055 736.031 84.0034 736.807 83.2249C737.692 82.5036 738.801 82.1095 739.945 82.1095C741.09 82.1095 742.199 82.5036 743.084 83.2249C743.843 84.0106 744.266 85.057 744.266 86.1456C744.266 87.2342 743.843 88.2807 743.084 89.0664V89.0768ZM738.46 87.7047C738.87 88.0736 739.403 88.2779 739.956 88.2779C740.509 88.2779 741.042 88.0736 741.452 87.7047C741.823 87.281 742.027 86.7384 742.027 86.1768C742.027 85.6152 741.823 85.0726 741.452 84.6489C741.042 84.28 740.509 84.0757 739.956 84.0757C739.403 84.0757 738.87 84.28 738.46 84.6489C738.089 85.0726 737.885 85.6152 737.885 86.1768C737.885 86.7384 738.089 87.281 738.46 87.7047Z" fill="#1D2130"/>
<path d="M753.944 82.3725C754.143 82.3725 754.237 82.4764 754.237 82.6739V90.1265C754.255 90.6295 754.161 91.1302 753.96 91.5923C753.759 92.0544 753.457 92.4662 753.076 92.7978C752.23 93.5144 751.142 93.8858 750.031 93.8372C749.028 93.8722 748.038 93.6001 747.196 93.0577C746.836 92.823 746.529 92.5174 746.293 92.1597C746.057 91.8021 745.898 91.4002 745.825 90.9788C745.825 90.7709 745.825 90.6774 746.108 90.6774H747.865C747.94 90.6799 748.012 90.7038 748.074 90.7462C748.135 90.7887 748.183 90.8478 748.211 90.9165C748.325 91.2321 748.552 91.4949 748.849 91.6544C749.211 91.8399 749.614 91.9328 750.021 91.9247C750.266 91.9381 750.512 91.9027 750.744 91.8206C750.976 91.7385 751.189 91.6113 751.37 91.4466C751.536 91.2742 751.666 91.0702 751.75 90.8469C751.835 90.6236 751.873 90.3856 751.862 90.1473V89.4925C751.233 89.9523 750.467 90.1901 749.686 90.1681C749.139 90.1878 748.594 90.0977 748.084 89.903C747.573 89.7083 747.108 89.4131 746.715 89.0351C745.96 88.2599 745.539 87.2238 745.539 86.1456C745.539 85.0673 745.96 84.0313 746.715 83.256C747.109 82.8814 747.576 82.589 748.086 82.3962C748.596 82.2034 749.14 82.1141 749.686 82.1334C750.489 82.1123 751.276 82.3655 751.914 82.8506V82.6843C751.91 82.6445 751.914 82.6041 751.927 82.5661C751.94 82.528 751.961 82.4933 751.989 82.4645C752.017 82.4356 752.051 82.4133 752.089 82.3992C752.127 82.3851 752.167 82.3795 752.207 82.3829L753.944 82.3725ZM749.885 88.3179C750.154 88.3262 750.422 88.2756 750.67 88.1696C750.918 88.0637 751.139 87.9049 751.318 87.7047C751.666 87.2584 751.855 86.71 751.855 86.1456C751.855 85.5811 751.666 85.0327 751.318 84.5864C751.14 84.3889 750.92 84.2325 750.674 84.1284C750.428 84.0242 750.162 83.9748 749.895 83.9836C749.623 83.9751 749.351 84.0255 749.1 84.1314C748.849 84.2373 748.624 84.3961 748.441 84.5968C748.056 85.0237 747.853 85.583 747.876 86.1559C747.857 86.7233 748.055 87.2766 748.43 87.7047C748.614 87.9049 748.839 88.0633 749.09 88.1692C749.341 88.275 749.612 88.3258 749.885 88.3179Z" fill="#1D2130"/>
<path d="M763.266 89.0767C762.381 89.7979 761.272 90.1921 760.127 90.1921C758.983 90.1921 757.874 89.7979 756.989 89.0767C756.23 88.2892 755.806 87.2411 755.806 86.1508C755.806 85.0605 756.23 84.0123 756.989 83.2248C757.874 82.5054 758.983 82.1125 760.127 82.1125C761.271 82.1125 762.38 82.5054 763.266 83.2248C764.024 84.0105 764.448 85.057 764.448 86.1456C764.448 87.2341 764.024 88.2806 763.266 89.0663V89.0767ZM758.631 87.7047C758.832 87.8942 759.068 88.0424 759.327 88.1405C759.585 88.2386 759.861 88.2848 760.138 88.2764C760.413 88.2834 760.686 88.2366 760.943 88.1385C761.2 88.0404 761.435 87.893 761.634 87.7047C761.999 87.2781 762.199 86.7365 762.199 86.1767C762.199 85.6169 761.999 85.0754 761.634 84.6488C761.435 84.4605 761.2 84.3131 760.943 84.215C760.686 84.1169 760.413 84.07 760.138 84.0771C759.861 84.0687 759.585 84.1148 759.327 84.213C759.068 84.3111 758.832 84.4592 758.631 84.6488C758.266 85.0754 758.066 85.6169 758.066 86.1767C758.066 86.7365 758.266 87.2781 758.631 87.7047Z" fill="#1D2130"/>
<path d="M768.225 80.6055C767.949 80.846 767.594 80.9786 767.226 80.9786C766.859 80.9786 766.504 80.846 766.227 80.6055C766.102 80.488 766.002 80.3462 765.933 80.1889C765.865 80.0316 765.83 79.8621 765.83 79.6908C765.83 79.5196 765.865 79.3501 765.933 79.1928C766.002 79.0355 766.102 78.8937 766.227 78.7762C766.506 78.5417 766.86 78.413 767.226 78.413C767.592 78.413 767.946 78.5417 768.225 78.7762C768.351 78.8937 768.451 79.0355 768.519 79.1928C768.587 79.3501 768.622 79.5196 768.622 79.6908C768.622 79.8621 768.587 80.0316 768.519 80.1889C768.451 80.3462 768.351 80.488 768.225 80.6055ZM768.445 90.1889C767.823 90.2192 767.209 90.0437 766.698 89.69C766.488 89.5309 766.32 89.3243 766.207 89.0874C766.094 88.8505 766.04 88.5903 766.049 88.3284V82.674C766.044 82.6332 766.048 82.5918 766.062 82.5529C766.075 82.514 766.097 82.4787 766.127 82.4496C766.156 82.4206 766.192 82.3985 766.231 82.3852C766.27 82.3718 766.311 82.3675 766.353 82.3725H768.11C768.309 82.3725 768.403 82.4765 768.403 82.674V87.58C768.403 87.975 768.581 88.1725 768.937 88.1725C769.095 88.1781 769.254 88.1606 769.408 88.1205C769.617 88.1205 769.732 88.1828 769.742 88.3699L769.899 89.6692C769.907 89.7071 769.906 89.7461 769.897 89.7837C769.888 89.8213 769.871 89.8565 769.847 89.8871C769.824 89.9176 769.794 89.9427 769.759 89.9607C769.725 89.9787 769.687 89.9892 769.648 89.9914C769.26 90.1185 768.854 90.1851 768.445 90.1889Z" fill="#1D2130"/>
<path d="M776.365 82.1231C776.914 82.1015 777.462 82.1898 777.976 82.3826C778.49 82.5755 778.96 82.869 779.357 83.2457C780.097 84.0345 780.509 85.0726 780.509 86.1508C780.509 87.229 780.097 88.2671 779.357 89.056C778.962 89.436 778.492 89.7324 777.978 89.9271C777.464 90.1218 776.915 90.2109 776.365 90.1889C775.582 90.2062 774.814 89.969 774.178 89.5133V93.2656C774.178 93.4631 774.074 93.5566 773.875 93.5566H772.117C772.077 93.5641 772.036 93.5617 771.997 93.5497C771.958 93.5377 771.923 93.5165 771.894 93.4878C771.865 93.4592 771.843 93.4239 771.831 93.3852C771.819 93.3465 771.817 93.3054 771.824 93.2656V84.7424C771.837 84.659 771.829 84.574 771.803 84.494C771.776 84.414 771.731 84.3413 771.671 84.2817C771.611 84.2222 771.538 84.1773 771.457 84.1508C771.377 84.1243 771.291 84.1169 771.207 84.1292H770.862C770.632 84.1292 770.517 84.046 770.517 83.8797V82.6532C770.511 82.5773 770.532 82.5018 770.576 82.4394C770.62 82.377 770.684 82.3314 770.757 82.3102C771.119 82.1795 771.502 82.1161 771.887 82.1231C772.271 82.0893 772.656 82.1702 772.994 82.3554C773.331 82.5406 773.605 82.8216 773.781 83.1625C774.118 82.8238 774.521 82.557 774.965 82.3783C775.41 82.1995 775.886 82.1127 776.365 82.1231ZM774.733 87.7047C774.92 87.8984 775.144 88.0526 775.392 88.1579C775.64 88.2632 775.907 88.3175 776.177 88.3175C776.447 88.3175 776.714 88.2632 776.962 88.1579C777.21 88.0526 777.434 87.8984 777.621 87.7047C778.014 87.2693 778.22 86.6988 778.196 86.1144C778.223 85.5296 778.016 84.9578 777.621 84.5241C777.434 84.3304 777.21 84.1763 776.962 84.071C776.714 83.9657 776.447 83.9114 776.177 83.9114C775.907 83.9114 775.64 83.9657 775.392 84.071C775.144 84.1763 774.92 84.3304 774.733 84.5241C774.352 84.9655 774.154 85.5337 774.178 86.1144C774.157 86.6947 774.355 87.2619 774.733 87.7047Z" fill="#1D2130"/>
<path d="M785.446 90.1889C784.507 90.2272 783.576 90.004 782.757 89.5444C782.429 89.348 782.15 89.0806 781.939 88.7621C781.729 88.4436 781.594 88.0822 781.544 87.7047C781.544 87.4968 781.617 87.3928 781.847 87.3928H783.385C783.458 87.3957 783.529 87.4185 783.59 87.4589C783.651 87.4992 783.7 87.5555 783.73 87.6215C783.95 88.1828 784.526 88.4634 785.446 88.4634C785.767 88.478 786.087 88.4138 786.377 88.2763C786.478 88.2314 786.564 88.1603 786.626 88.0706C786.689 87.9809 786.726 87.876 786.733 87.767C786.733 87.4968 786.566 87.3097 786.231 87.185C785.834 87.0536 785.423 86.9665 785.007 86.9251C784.514 86.8696 784.024 86.7828 783.542 86.6653C783.073 86.5598 782.647 86.3173 782.318 85.9688C782.124 85.732 781.982 85.4582 781.899 85.1643C781.817 84.8704 781.796 84.5628 781.838 84.2606C781.88 83.9584 781.985 83.668 782.145 83.4076C782.305 83.1471 782.517 82.9222 782.768 82.7467C783.522 82.2694 784.407 82.0369 785.3 82.0814C786.164 82.0524 787.02 82.2649 787.769 82.6947C788.071 82.8646 788.331 83.0992 788.53 83.3815C788.729 83.6638 788.862 83.9867 788.92 84.3266C788.92 84.5345 788.826 84.6384 788.637 84.6384H787.089C787.024 84.6422 786.959 84.6264 786.903 84.593C786.847 84.5597 786.802 84.5103 786.775 84.4513C786.672 84.2051 786.477 84.0079 786.231 83.9004C785.954 83.7563 785.644 83.6847 785.331 83.6925C785.025 83.676 784.719 83.7367 784.442 83.8692C784.344 83.9066 784.26 83.9721 784.201 84.0573C784.141 84.1425 784.109 84.2436 784.107 84.3474C784.114 84.4895 784.166 84.6258 784.257 84.7361C784.347 84.8465 784.471 84.9252 784.609 84.9606C785.011 85.1111 785.429 85.2157 785.854 85.2724C786.344 85.3364 786.829 85.4266 787.309 85.5427C787.778 85.6481 788.204 85.8907 788.533 86.2391C788.709 86.431 788.845 86.6557 788.933 86.9001C789.021 87.1445 789.059 87.4039 789.045 87.6631C789.054 88.0224 788.97 88.3779 788.799 88.6949C788.628 89.0118 788.378 89.2795 788.072 89.4717C787.291 89.9702 786.375 90.2204 785.446 90.1889Z" fill="#1D2130"/>
<path d="M800.104 89.6692C800.11 89.7061 800.109 89.7438 800.1 89.7801C800.091 89.8164 800.074 89.8505 800.052 89.8806C800.03 89.9106 800.001 89.9358 799.969 89.9549C799.937 89.9739 799.901 89.9863 799.864 89.9914C799.482 90.1153 799.083 90.1818 798.681 90.1889C798.284 90.2298 797.882 90.168 797.516 90.0096C797.149 89.8512 796.83 89.6015 796.589 89.2846C795.85 89.9158 794.894 90.2397 793.921 90.1889C793.469 90.2096 793.018 90.1361 792.596 89.9732C792.174 89.8103 791.792 89.5616 791.473 89.243C791.156 88.9092 790.91 88.5153 790.75 88.0849C790.59 87.6544 790.519 87.1963 790.542 86.738V82.6739C790.542 82.4764 790.636 82.3725 790.835 82.3725H792.592C792.791 82.3725 792.885 82.4764 792.885 82.6739V86.4262C792.866 86.8937 793.027 87.3509 793.335 87.7047C793.489 87.8668 793.676 87.9942 793.883 88.0785C794.091 88.1628 794.314 88.2019 794.538 88.1932C794.768 88.2032 794.997 88.1679 795.212 88.0894C795.428 88.0109 795.625 87.8907 795.794 87.7359C795.953 87.5726 796.077 87.3786 796.158 87.1659C796.239 86.9531 796.275 86.7262 796.264 86.499V82.6739C796.264 82.4764 796.359 82.3725 796.557 82.3725H798.336C798.535 82.3725 798.629 82.4764 798.629 82.6739V87.5696C798.629 87.9749 798.807 88.1724 799.152 88.1724C799.314 88.1786 799.476 88.1611 799.633 88.1204C799.673 88.1094 799.714 88.1074 799.755 88.1147C799.795 88.1219 799.834 88.1381 799.867 88.1621C799.9 88.1861 799.927 88.2173 799.947 88.2533C799.966 88.2892 799.977 88.3291 799.979 88.3699L800.104 89.6692Z" fill="#1D2130"/>
<path d="M816.729 89.6692C816.738 89.7064 816.739 89.7452 816.731 89.7828C816.724 89.8205 816.708 89.8559 816.685 89.8867C816.662 89.9175 816.632 89.9429 816.598 89.961C816.564 89.9791 816.527 89.9895 816.488 89.9914C816.099 90.1171 815.694 90.1837 815.285 90.1889C814.663 90.2208 814.048 90.0452 813.538 89.69C813.317 89.5378 813.138 89.334 813.016 89.0964C812.893 88.8589 812.832 88.5951 812.837 88.3284V85.8857C812.859 85.4196 812.702 84.9626 812.397 84.6073C812.251 84.4448 812.069 84.3167 811.867 84.2323C811.664 84.1478 811.445 84.109 811.226 84.1187C811.028 84.1113 810.831 84.1486 810.65 84.2278C810.468 84.3071 810.308 84.4261 810.179 84.5761C809.903 84.9244 809.762 85.3596 809.782 85.8026V89.638C809.782 89.8355 809.688 89.9395 809.489 89.9395H807.721C807.68 89.9445 807.638 89.9402 807.599 89.9268C807.56 89.9135 807.524 89.8914 807.495 89.8624C807.466 89.8333 807.443 89.798 807.43 89.7591C807.417 89.7202 807.412 89.6788 807.417 89.638V85.8857C807.44 85.4247 807.295 84.971 807.009 84.6073C806.882 84.4545 806.722 84.3315 806.541 84.2471C806.36 84.1626 806.163 84.1188 805.963 84.1187C805.75 84.1102 805.537 84.1465 805.338 84.2253C805.14 84.3041 804.961 84.4237 804.812 84.5761C804.513 84.9133 804.359 85.3537 804.383 85.8026V89.638C804.388 89.6788 804.384 89.7202 804.371 89.7591C804.357 89.798 804.335 89.8333 804.306 89.8624C804.276 89.8914 804.241 89.9135 804.202 89.9268C804.163 89.9402 804.121 89.9445 804.08 89.9395H802.374C802.176 89.9395 802.081 89.8355 802.081 89.638V84.7424C802.094 84.659 802.086 84.574 802.06 84.494C802.033 84.414 801.988 84.3413 801.928 84.2817C801.868 84.2221 801.795 84.1773 801.714 84.1508C801.634 84.1243 801.548 84.1169 801.464 84.1291H801.119C800.889 84.1291 800.774 84.046 800.774 83.8797V82.6532C800.768 82.5773 800.789 82.5018 800.833 82.4394C800.877 82.377 800.941 82.3314 801.014 82.3102C801.376 82.1795 801.759 82.116 802.144 82.1231C802.514 82.0918 802.885 82.165 803.214 82.3342C803.544 82.5034 803.818 82.7617 804.007 83.0793C804.36 82.747 804.778 82.4905 805.235 82.326C805.692 82.1614 806.179 82.0924 806.664 82.1231C807.135 82.1002 807.606 82.1881 808.036 82.3795C808.467 82.5709 808.847 82.8605 809.144 83.2248C809.49 82.851 809.915 82.5582 810.389 82.3677C810.863 82.1771 811.374 82.0936 811.885 82.1231C812.341 82.1018 812.798 82.1749 813.224 82.3377C813.651 82.5005 814.039 82.7495 814.364 83.0689C814.682 83.402 814.929 83.7959 815.089 84.2265C815.249 84.6571 815.319 85.1155 815.295 85.5739V87.58C815.295 87.975 815.473 88.1725 815.808 88.1725C815.97 88.18 816.133 88.1624 816.289 88.1205C816.506 88.1205 816.621 88.2036 816.635 88.3699L816.729 89.6692Z" fill="#1D2130"/>
<path d="M694.047 81.0213C694.819 77.9391 696.607 75.2021 699.125 73.246C701.644 71.2899 704.749 70.2273 707.946 70.2273C711.143 70.2273 714.249 71.2899 716.767 73.246C719.286 75.2021 721.074 77.9391 721.846 81.0213H720.59C718.472 80.9903 716.398 81.6192 714.658 82.8195C714.558 82.8917 714.453 82.9577 714.344 83.017H714.198C714.089 82.9577 713.984 82.8917 713.884 82.8195C712.129 81.6469 710.061 81.0207 707.946 81.0207C705.831 81.0207 703.764 81.6469 702.009 82.8195C701.909 82.8917 701.804 82.9577 701.695 83.017H701.549C701.44 82.9577 701.335 82.8917 701.235 82.8195C699.495 81.6192 697.421 80.9903 695.303 81.0213H694.047ZM718.33 87.5384C718.975 87.0398 719.774 86.7789 720.59 86.8005H722.275V83.4639H720.59C719.152 83.4466 717.746 83.8914 716.583 84.732C715.928 85.2115 715.136 85.4702 714.323 85.4702C713.51 85.4702 712.718 85.2115 712.063 84.732C710.871 83.9071 709.452 83.4649 707.999 83.4649C706.545 83.4649 705.127 83.9071 703.934 84.732C703.279 85.2115 702.487 85.4702 701.674 85.4702C700.861 85.4702 700.069 85.2115 699.414 84.732C698.237 83.8807 696.811 83.4353 695.355 83.4639H693.618V86.8005H695.303C696.119 86.7789 696.918 87.0398 697.562 87.5384C698.753 88.3639 700.17 88.8065 701.622 88.8065C703.074 88.8065 704.491 88.3639 705.681 87.5384C706.327 87.0413 707.125 86.7807 707.941 86.8005C708.758 86.7772 709.557 87.0382 710.201 87.5384C711.394 88.3634 712.812 88.8056 714.266 88.8056C715.719 88.8056 717.137 88.3634 718.33 87.5384ZM718.33 93.5047C718.975 93.006 719.774 92.7452 720.59 92.7667H722.275V89.4302H720.59C719.152 89.4129 717.746 89.8577 716.583 90.6983C715.928 91.1777 715.136 91.4364 714.323 91.4364C713.51 91.4364 712.718 91.1777 712.063 90.6983C710.871 89.8733 709.452 89.4311 707.999 89.4311C706.545 89.4311 705.127 89.8733 703.934 90.6983C703.279 91.1777 702.487 91.4364 701.674 91.4364C700.861 91.4364 700.069 91.1777 699.414 90.6983C698.237 89.8469 696.811 89.4016 695.355 89.4302H693.618V92.7667H695.303C696.119 92.7452 696.918 93.006 697.562 93.5047C698.753 94.3301 700.17 94.7727 701.622 94.7727C703.074 94.7727 704.491 94.3301 705.681 93.5047C706.327 93.0076 707.125 92.7469 707.941 92.7667C708.758 92.7434 709.557 93.0045 710.201 93.5047C711.394 94.3296 712.812 94.7718 714.266 94.7718C715.719 94.7718 717.137 94.3296 718.33 93.5047Z" fill="#1D2130"/>
</g>
<g opacity="0.6">
<path d="M951.382 76.4766H954.759V90.1189H951.382V76.4766ZM956.105 84.9873C956.105 81.6082 958.209 79.5828 961.364 79.5828C964.52 79.5828 966.624 81.6082 966.624 84.9873C966.624 88.3663 964.594 90.4127 961.364 90.4127C958.135 90.4127 956.105 88.4398 956.105 84.9873ZM963.279 84.9873C963.279 83.1298 962.553 82.0384 961.396 82.0384C960.239 82.0384 959.524 83.0878 959.524 84.9873C959.524 86.8867 960.239 87.9256 961.396 87.9256C962.553 87.9256 963.3 86.8867 963.3 84.9977L963.279 84.9873ZM967.97 90.822H971.231C971.379 91.1722 971.638 91.4644 971.969 91.6538C972.299 91.8433 972.683 91.9197 973.061 91.8714C974.355 91.8714 975.028 91.1788 975.028 90.1503V88.2614H975.039C974.76 88.8496 974.309 89.3398 973.746 89.6676C973.183 89.9954 972.533 90.1454 971.883 90.0979C969.411 90.0979 967.77 88.2194 967.77 84.9873C967.77 81.7551 969.337 79.7402 971.978 79.7402C972.645 79.7046 973.306 79.8762 973.871 80.2315C974.437 80.5867 974.877 81.108 975.133 81.7236H975.039V79.8242H978.383V90.0454C978.383 92.5115 976.196 94.0541 972.977 94.0541C970.053 94.0436 968.18 92.7109 967.991 90.8325L967.97 90.822ZM975.039 84.9873C975.039 83.3397 974.281 82.3008 973.082 82.3008C971.883 82.3008 971.147 83.3502 971.147 84.9873C971.147 86.6243 971.872 87.5898 973.082 87.5898C974.292 87.5898 975.039 86.6978 975.039 84.9873ZM979.719 84.9873C979.719 81.6082 981.823 79.5828 984.979 79.5828C988.134 79.5828 990.238 81.6082 990.238 84.9873C990.238 88.3663 988.197 90.4127 984.979 90.4127C981.76 90.4127 979.74 88.4398 979.74 84.9873H979.719ZM986.893 84.9873C986.893 83.1298 986.157 82.0384 985.01 82.0384C983.864 82.0384 983.138 83.0878 983.138 84.9873C983.138 86.8867 983.853 87.9256 985.01 87.9256C986.167 87.9256 986.914 86.8867 986.914 84.9977L986.893 84.9873ZM991.605 77.3371C991.591 76.9939 991.679 76.6543 991.86 76.3617C992.04 76.0692 992.304 75.8373 992.618 75.6957C992.931 75.5541 993.28 75.5093 993.62 75.5672C993.959 75.6251 994.273 75.7829 994.522 76.0204C994.77 76.2579 994.942 76.5642 995.015 76.8999C995.088 77.2356 995.058 77.5853 994.93 77.9041C994.802 78.2229 994.581 78.4962 994.296 78.6887C994.011 78.8813 993.675 78.9843 993.33 78.9846C993.11 78.9902 992.891 78.9521 992.686 78.8726C992.481 78.7931 992.294 78.6738 992.135 78.5215C991.977 78.3692 991.85 78.187 991.763 77.9855C991.675 77.7839 991.629 77.5671 991.626 77.3476L991.605 77.3371ZM991.605 79.8137H995.024V90.1608H991.658L991.605 79.8137ZM1007.32 84.9873C1007.32 88.3559 1005.81 90.3077 1003.23 90.3077C1002.57 90.3483 1001.91 90.186 1001.35 89.8425C1000.78 89.4991 1000.34 88.9912 1000.07 88.3873H1000.01V93.4875H996.633V79.8452H999.989V81.6921H1000.05C1000.31 81.0764 1000.75 80.5546 1001.31 80.1978C1001.88 79.841 1002.54 79.6665 1003.21 79.6982C1005.86 79.6773 1007.38 81.6187 1007.38 84.9977L1007.32 84.9873ZM1003.88 84.9873C1003.88 83.3502 1003.11 82.2903 1001.92 82.2903C1000.74 82.2903 999.989 83.3397 999.978 84.9873C999.968 86.6348 1000.74 87.6737 1001.92 87.6737C1003.11 87.6737 1003.94 86.6978 1003.94 84.9977L1003.88 84.9873ZM1013.08 79.5723C1015.91 79.5723 1017.67 80.9051 1017.69 83.0459H1014.61C1014.61 82.3008 1013.99 81.839 1013.06 81.839C1012.14 81.839 1011.7 82.1958 1011.7 82.731C1011.7 83.2662 1012.09 83.4341 1012.86 83.5915L1015.03 84.0323C1017.13 84.473 1017.98 85.3126 1017.98 86.8762C1017.98 88.975 1016.03 90.4022 1013.14 90.4022C1010.24 90.4022 1008.36 89.017 1008.22 86.9077H1011.5C1011.59 87.6737 1012.2 88.125 1013.19 88.125C1014.18 88.125 1014.64 87.8102 1014.64 87.254C1014.64 86.6978 1014.33 86.6033 1013.52 86.4354L1011.56 86.0262C1009.53 85.5959 1008.47 84.536 1008.47 82.9514C1008.53 80.8946 1010.3 79.5828 1013.15 79.5828L1013.08 79.5723ZM1029.28 90.1503H1026.01V88.2089H1025.95C1025.77 88.8565 1025.37 89.4225 1024.82 89.8135C1024.27 90.2046 1023.6 90.3974 1022.93 90.3602C1022.42 90.3767 1021.92 90.2858 1021.44 90.0934C1020.97 89.901 1020.55 89.6115 1020.2 89.2438C1019.85 88.8762 1019.58 88.4387 1019.41 87.9601C1019.24 87.4816 1019.17 86.9727 1019.22 86.4669V79.8242H1022.59V85.7428C1022.59 86.9601 1023.23 87.6213 1024.29 87.6213C1024.53 87.6194 1024.78 87.5648 1025 87.461C1025.22 87.3572 1025.42 87.2068 1025.58 87.0197C1025.74 86.8327 1025.86 86.6135 1025.93 86.377C1026 86.1404 1026.02 85.8919 1025.98 85.6484V79.8242H1029.35L1029.28 90.1503ZM1030.91 79.8137H1034.2V81.8076H1034.27C1034.45 81.1688 1034.84 80.6081 1035.37 80.2131C1035.91 79.8182 1036.56 79.6113 1037.22 79.6248C1037.89 79.5669 1038.56 79.7595 1039.09 80.1652C1039.62 80.5708 1039.99 81.1601 1040.11 81.818H1040.25C1040.46 81.1566 1040.89 80.583 1041.46 80.1864C1042.03 79.7898 1042.71 79.5923 1043.41 79.6248C1043.87 79.6072 1044.33 79.6872 1044.76 79.8594C1045.19 80.0316 1045.58 80.2921 1045.9 80.624C1046.22 80.9559 1046.46 81.3515 1046.62 81.7852C1046.78 82.2188 1046.84 82.6806 1046.81 83.1403V90.1608H1043.41V84.0008C1043.41 82.9514 1042.92 82.3637 1041.96 82.3637C1041.75 82.3603 1041.54 82.4026 1041.34 82.4879C1041.15 82.5732 1040.97 82.6994 1040.83 82.8579C1040.69 83.0164 1040.59 83.2034 1040.52 83.4061C1040.46 83.6088 1040.45 83.8224 1040.47 84.0323V90.1608H1037.26V83.9693C1037.26 82.9199 1036.74 82.3637 1035.82 82.3637C1035.6 82.362 1035.39 82.4061 1035.19 82.4931C1035 82.58 1034.82 82.7078 1034.68 82.8678C1034.54 83.0278 1034.43 83.2164 1034.37 83.4209C1034.3 83.6253 1034.28 83.841 1034.31 84.0533V90.1608H1030.93L1030.91 79.8137Z" fill="#1D2130"/>
<path d="M944.703 77.3687C944.703 75.28 944.071 73.24 942.889 71.5159C941.707 69.7918 940.031 68.4639 938.08 67.7063C936.129 66.9486 933.995 66.7964 931.955 67.2697C929.916 67.743 928.068 68.8196 926.653 70.3586H913.526V98H941.242V85.0818C942.33 84.1111 943.2 82.9224 943.797 81.5933C944.393 80.2643 944.702 78.8248 944.703 77.3687ZM939.37 77.3687C939.372 78.3695 939.076 79.3485 938.52 80.1817C937.965 81.0148 937.174 81.6648 936.247 82.0492C935.321 82.4337 934.301 82.5354 933.317 82.3414C932.333 82.1474 931.429 81.6665 930.719 80.9595C930.008 80.2525 929.524 79.3513 929.328 78.3698C929.132 77.3883 929.231 76.3708 929.615 75.4459C929.998 74.521 930.648 73.7304 931.482 73.1742C932.316 72.6179 933.297 72.321 934.3 72.321C935.643 72.321 936.931 72.8525 937.881 73.7988C938.832 74.7451 939.367 76.029 939.37 77.3687ZM935.909 92.6795H918.858V75.6791H924.055C923.954 76.2368 923.901 76.802 923.897 77.3687C923.9 80.1204 924.997 82.7586 926.947 84.7044C928.897 86.6502 931.542 87.7445 934.3 87.7473C934.839 87.7444 935.377 87.6988 935.909 87.6109V92.6795Z" fill="#1D2130"/>
</g>
<g opacity="0.6">
<path d="M1176.5 74.2896H1179.65V89.598H1176.5V74.2896Z" fill="#1D2130"/>
<path d="M1181.42 84.3539C1181.42 83.2525 1181.74 82.1759 1182.35 81.2606C1182.96 80.3453 1183.83 79.6325 1184.84 79.2124C1185.85 78.7924 1186.96 78.6842 1188.03 78.9014C1189.1 79.1185 1190.09 79.6514 1190.86 80.4325C1191.63 81.2135 1192.15 82.2075 1192.36 83.2885C1192.57 84.3694 1192.46 85.4887 1192.03 86.5045C1191.61 87.5202 1190.9 88.3866 1189.99 88.9939C1189.07 89.6012 1188 89.9221 1186.91 89.9158C1186.19 89.9215 1185.47 89.7813 1184.8 89.5034C1184.12 89.2255 1183.52 88.8155 1183 88.2975C1182.49 87.7795 1182.09 87.1638 1181.82 86.4866C1181.54 85.8094 1181.41 85.0844 1181.42 84.3539ZM1189.33 84.3539C1189.32 83.8791 1189.17 83.4185 1188.9 83.0297C1188.62 82.641 1188.25 82.3413 1187.81 82.1682C1187.37 81.9951 1186.89 81.9562 1186.43 82.0565C1185.97 82.1567 1185.54 82.3916 1185.21 82.7318C1184.89 83.072 1184.66 83.5024 1184.58 83.9691C1184.49 84.4359 1184.54 84.9182 1184.72 85.3559C1184.91 85.7936 1185.21 86.1671 1185.61 86.4298C1186 86.6925 1186.46 86.8327 1186.93 86.8329C1187.25 86.8392 1187.57 86.7787 1187.87 86.6553C1188.17 86.5318 1188.43 86.348 1188.66 86.1153C1188.88 85.8827 1189.05 85.6062 1189.16 85.3031C1189.28 85 1189.33 84.6769 1189.31 84.3539H1189.33Z" fill="#1D2130"/>
<path d="M1204.89 79.1099V89.0788C1204.89 92.5961 1202.15 94.0898 1199.39 94.0898C1198.41 94.1705 1197.43 93.9752 1196.56 93.526C1195.69 93.0768 1194.96 92.3915 1194.45 91.5473L1197.11 90.0005C1197.33 90.4384 1197.67 90.7997 1198.1 91.0363C1198.52 91.2729 1199.01 91.3735 1199.49 91.3248C1199.8 91.363 1200.11 91.3322 1200.4 91.2347C1200.7 91.1372 1200.97 90.9753 1201.19 90.7607C1201.42 90.5462 1201.59 90.2841 1201.71 89.9934C1201.82 89.7026 1201.87 89.3903 1201.85 89.0788V88.1148C1201.48 88.5632 1201.01 88.9192 1200.49 89.1546C1199.96 89.39 1199.38 89.4983 1198.81 89.4708C1197.41 89.4708 1196.07 88.9128 1195.09 87.9194C1194.1 86.926 1193.55 85.5787 1193.55 84.1738C1193.55 82.769 1194.1 81.4216 1195.09 80.4283C1196.07 79.4349 1197.41 78.8768 1198.81 78.8768C1199.38 78.8494 1199.96 78.9576 1200.49 79.193C1201.01 79.4284 1201.48 79.7844 1201.85 80.2328V79.1734L1204.89 79.1099ZM1201.85 84.142C1201.87 83.6352 1201.74 83.1336 1201.47 82.7018C1201.21 82.27 1200.82 81.9276 1200.36 81.7189C1199.9 81.5101 1199.39 81.4444 1198.9 81.5302C1198.4 81.616 1197.94 81.8494 1197.58 82.2004C1197.21 82.5514 1196.96 83.0039 1196.86 83.4998C1196.75 83.9957 1196.79 84.5122 1196.98 84.983C1197.17 85.4538 1197.49 85.8573 1197.91 86.1417C1198.33 86.426 1198.82 86.5782 1199.32 86.5787C1199.65 86.6025 1199.98 86.5567 1200.29 86.4441C1200.6 86.3315 1200.88 86.1547 1201.12 85.9251C1201.36 85.6954 1201.55 85.4181 1201.67 85.111C1201.8 84.8039 1201.86 84.4738 1201.85 84.142Z" fill="#1D2130"/>
<path d="M1206.66 84.3539C1206.66 83.2534 1206.99 82.1777 1207.6 81.2628C1208.2 80.3479 1209.07 79.6351 1210.08 79.2144C1211.09 78.7938 1212.2 78.6842 1213.27 78.8997C1214.34 79.1152 1215.32 79.6459 1216.1 80.4248C1216.87 81.2037 1217.39 82.1958 1217.6 83.2754C1217.82 84.3549 1217.71 85.4736 1217.29 86.4897C1216.87 87.5058 1216.16 88.3737 1215.25 88.9836C1214.34 89.5934 1213.27 89.9179 1212.18 89.9158C1211.45 89.9229 1210.73 89.7838 1210.06 89.5066C1209.38 89.2295 1208.77 88.8199 1208.26 88.3019C1207.75 87.7839 1207.34 87.1678 1207.07 86.4899C1206.79 85.812 1206.66 85.0858 1206.66 84.3539ZM1214.57 84.3539C1214.56 83.8786 1214.41 83.4176 1214.14 83.0286C1213.87 82.6397 1213.49 82.34 1213.05 82.1672C1212.61 81.9944 1212.13 81.9562 1211.67 82.0573C1211.21 82.1584 1210.78 82.3944 1210.46 82.7356C1210.13 83.0769 1209.91 83.5083 1209.82 83.9757C1209.73 84.4431 1209.79 84.9258 1209.97 85.3632C1210.15 85.8007 1210.46 86.1735 1210.86 86.435C1211.25 86.6964 1211.71 86.8348 1212.19 86.8329C1212.51 86.8392 1212.83 86.7787 1213.12 86.6553C1213.42 86.5318 1213.69 86.348 1213.91 86.1153C1214.13 85.8827 1214.31 85.6062 1214.42 85.3031C1214.53 85 1214.58 84.6769 1214.56 84.3539H1214.57Z" fill="#1D2130"/>
<path d="M1219.15 76.3024C1219.15 75.9295 1219.26 75.5649 1219.47 75.2548C1219.67 74.9446 1219.96 74.7029 1220.31 74.5602C1220.65 74.4175 1221.02 74.3801 1221.39 74.4529C1221.75 74.5257 1222.08 74.7053 1222.35 74.969C1222.61 75.2327 1222.79 75.5687 1222.86 75.9345C1222.93 76.3003 1222.89 76.6795 1222.75 77.0241C1222.61 77.3686 1222.37 77.6631 1222.06 77.8703C1221.75 78.0776 1221.39 78.1882 1221.02 78.1882C1220.53 78.1826 1220.05 77.9822 1219.7 77.6297C1219.35 77.2773 1219.16 76.8008 1219.15 76.3024ZM1219.46 79.1098H1222.61V89.5979H1219.46V79.1098Z" fill="#1D2130"/>
<path d="M1236.12 84.3539C1236.15 85.0515 1236.05 85.7491 1235.82 86.4068C1235.58 87.0645 1235.22 87.6692 1234.76 88.1861C1234.29 88.7031 1233.73 89.122 1233.1 89.4189C1232.47 89.7157 1231.79 89.8846 1231.1 89.9158C1230.51 89.9552 1229.92 89.8604 1229.38 89.6384C1228.83 89.4165 1228.34 89.0731 1227.94 88.6339V93.8144H1224.79V79.1099H1227.94V80.0952C1228.34 79.6573 1228.83 79.3155 1229.38 79.0953C1229.92 78.8752 1230.51 78.7824 1231.1 78.8239C1231.79 78.8552 1232.47 79.023 1233.09 79.3179C1233.72 79.6127 1234.28 80.0288 1234.74 80.5423C1235.21 81.0558 1235.57 81.6567 1235.81 82.3107C1236.04 82.9647 1236.15 83.659 1236.12 84.3539ZM1232.96 84.3539C1232.95 83.8619 1232.79 83.3845 1232.51 82.9816C1232.23 82.5787 1231.84 82.2681 1231.38 82.0889C1230.93 81.9097 1230.43 81.8698 1229.95 81.9742C1229.48 82.0786 1229.04 82.3227 1228.7 82.6758C1228.36 83.0289 1228.13 83.4753 1228.04 83.9592C1227.95 84.443 1228 84.9428 1228.19 85.3957C1228.39 85.8487 1228.71 86.2347 1229.11 86.5055C1229.52 86.7762 1230 86.9196 1230.49 86.9177C1230.82 86.932 1231.16 86.8749 1231.47 86.7501C1231.78 86.6253 1232.06 86.4356 1232.3 86.1936C1232.53 85.9515 1232.71 85.6625 1232.82 85.3454C1232.94 85.0284 1232.98 84.6905 1232.96 84.3539Z" fill="#1D2130"/>
<path d="M1245.72 86.4515C1245.72 88.867 1243.62 89.8946 1241.39 89.8946C1240.48 89.977 1239.56 89.7829 1238.76 89.3372C1237.97 88.8915 1237.32 88.2147 1236.91 87.3944L1239.62 85.8477C1239.73 86.2257 1239.96 86.555 1240.28 86.7807C1240.6 87.0063 1240.99 87.1145 1241.38 87.0872C1242.12 87.0872 1242.5 86.8541 1242.5 86.4303C1242.5 85.2756 1237.38 85.89 1237.38 82.2563C1237.38 79.968 1239.29 78.8238 1241.46 78.8238C1242.28 78.7867 1243.1 78.9749 1243.83 79.3685C1244.55 79.762 1245.16 80.3463 1245.58 81.0592L1242.87 82.4999C1242.75 82.2266 1242.55 81.9942 1242.31 81.8306C1242.06 81.667 1241.77 81.5794 1241.47 81.5783C1240.92 81.5783 1240.6 81.7901 1240.6 82.1609C1240.6 83.3687 1245.72 82.5741 1245.72 86.4515Z" fill="#1D2130"/>
<path d="M1257.15 79.1099V89.598H1254V88.6128C1253.64 89.0489 1253.18 89.394 1252.67 89.6204C1252.15 89.8467 1251.59 89.9479 1251.03 89.9158C1248.93 89.9158 1247.13 88.4009 1247.13 85.5723V79.1099H1250.28V85.0955C1250.26 85.3458 1250.29 85.5985 1250.37 85.8361C1250.45 86.0738 1250.58 86.2908 1250.76 86.4721C1250.93 86.6534 1251.14 86.7947 1251.37 86.8863C1251.61 86.9779 1251.86 87.0175 1252.1 87.0025C1253.24 87.0025 1254.04 86.3244 1254.04 84.8837V79.1099H1257.15Z" fill="#1D2130"/>
<path d="M1275.04 83.1568V89.5979H1271.88V83.4322C1271.88 82.3728 1271.39 81.716 1270.39 81.716C1269.39 81.716 1268.76 82.447 1268.76 83.6865V89.5979H1265.6V83.4322C1265.6 82.3728 1265.11 81.716 1264.11 81.716C1263.11 81.716 1262.48 82.447 1262.48 83.6865V89.5979H1259.32V79.1099H1262.48V80.0739C1262.8 79.648 1263.23 79.3107 1263.72 79.0925C1264.21 78.8742 1264.74 78.7819 1265.27 78.8238C1265.81 78.7958 1266.34 78.908 1266.82 79.1495C1267.29 79.3909 1267.7 79.7533 1268 80.201C1268.34 79.7332 1268.8 79.3616 1269.33 79.1207C1269.86 78.8799 1270.44 78.7777 1271.02 78.8238C1273.48 78.8238 1275.04 80.54 1275.04 83.1568Z" fill="#1D2130"/>
<path d="M1157.7 71.5352V67.0327H1143.61V97.9672H1157.7V93.4648C1154.81 93.4648 1152.04 92.3096 1150 90.2533C1147.96 88.197 1146.81 85.408 1146.81 82.5C1146.81 79.5919 1147.96 76.803 1150 74.7467C1152.04 72.6904 1154.81 71.5352 1157.7 71.5352Z" fill="#1D2130"/>
<path d="M1157.7 71.5352V93.4648C1160.59 93.4648 1163.36 92.3096 1165.4 90.2533C1167.44 88.197 1168.59 85.408 1168.59 82.5C1168.59 79.5919 1167.44 76.803 1165.4 74.7467C1163.36 72.6904 1160.59 71.5352 1157.7 71.5352Z" fill="#1D2130"/>
<path d="M1277.69 79.0463C1278.96 79.0463 1280 78.0028 1280 76.7156C1280 75.4284 1278.96 74.3849 1277.69 74.3849C1276.41 74.3849 1275.37 75.4284 1275.37 76.7156C1275.37 78.0028 1276.41 79.0463 1277.69 79.0463Z" fill="#1D2130"/>
</g>
<path d="M10.2344 9.60937C10.2344 10.724 10.0417 11.7031 9.65625 12.5469C9.27083 13.3854 8.71875 14.0312 8 14.4844C7.28646 14.9323 6.46354 15.1562 5.53125 15.1562C4.60938 15.1562 3.78646 14.9323 3.0625 14.4844C2.34375 14.0312 1.78646 13.388 1.39063 12.5547C1 11.7214 0.802083 10.7604 0.796875 9.67188L0.796875 9.03125C0.796875 7.92188 0.992188 6.94271 1.38281 6.09375C1.77865 5.24479 2.33333 4.59635 3.04688 4.14844C3.76563 3.69531 4.58854 3.46875 5.51563 3.46875C6.44271 3.46875 7.26302 3.69271 7.97656 4.14062C8.69531 4.58333 9.25 5.22396 9.64063 6.0625C10.0313 6.89583 10.2292 7.86719 10.2344 8.97656V9.60937ZM8.25781 9.01562C8.25781 7.75521 8.01823 6.78906 7.53906 6.11719C7.0651 5.44531 6.39063 5.10937 5.51563 5.10937C4.66146 5.10937 3.99219 5.44531 3.50781 6.11719C3.02865 6.78385 2.78385 7.72917 2.77344 8.95312V9.60938C2.77344 10.8594 3.01563 11.8255 3.5 12.5078C3.98958 13.1901 4.66667 13.5312 5.53125 13.5312C6.40625 13.5312 7.07813 13.1979 7.54688 12.5312C8.02083 11.8646 8.25781 10.8906 8.25781 9.60937V9.01562ZM22.5234 3.625L22.5234 11.2266C22.5234 12.4349 22.1354 13.3932 21.3594 14.1016C20.5885 14.8047 19.5599 15.1562 18.2734 15.1562C16.9714 15.1562 15.9375 14.8099 15.1719 14.1172C14.4063 13.4193 14.0234 12.4531 14.0234 11.2187L14.0234 3.625L15.9922 3.625L15.9922 11.2344C15.9922 11.9948 16.1849 12.5755 16.5703 12.9766C16.9557 13.3776 17.5234 13.5781 18.2734 13.5781C19.7943 13.5781 20.5547 12.776 20.5547 11.1719L20.5547 3.625L22.5234 3.625ZM30.8203 10.6172H28.6172L28.6172 15L26.6406 15L26.6406 3.625L30.6406 3.625C31.9531 3.625 32.9661 3.91927 33.6797 4.50781C34.3932 5.09635 34.75 5.94792 34.75 7.0625C34.75 7.82292 34.5651 8.46094 34.1953 8.97656C33.8307 9.48698 33.3203 9.88021 32.6641 10.1562L35.2188 14.8984V15H33.1016L30.8203 10.6172ZM28.6172 9.03125H30.6484C31.3151 9.03125 31.8359 8.86458 32.2109 8.53125C32.5859 8.19271 32.7734 7.73177 32.7734 7.14844C32.7734 6.53906 32.599 6.06771 32.25 5.73437C31.9062 5.40104 31.3906 5.22917 30.7031 5.21875L28.6172 5.21875V9.03125ZM50.5547 12.0703C50.5547 11.5703 50.3776 11.1849 50.0234 10.9141C49.6745 10.6432 49.0417 10.3698 48.125 10.0937C47.2083 9.81771 46.4792 9.51042 45.9375 9.17187C44.901 8.52083 44.3828 7.67187 44.3828 6.625C44.3828 5.70833 44.7552 4.95312 45.5 4.35937C46.25 3.76562 47.2214 3.46875 48.4141 3.46875C49.2057 3.46875 49.9115 3.61458 50.5312 3.90625C51.151 4.19792 51.638 4.61458 51.9922 5.15625C52.3464 5.69271 52.5234 6.28906 52.5234 6.94531L50.5547 6.94531C50.5547 6.35156 50.3672 5.88802 49.9922 5.55469C49.6224 5.21615 49.0911 5.04687 48.3984 5.04687C47.7526 5.04687 47.25 5.1849 46.8906 5.46094C46.5365 5.73698 46.3594 6.1224 46.3594 6.61719C46.3594 7.03385 46.5521 7.38281 46.9375 7.66406C47.3229 7.9401 47.9583 8.21094 48.8438 8.47656C49.7292 8.73698 50.4401 9.03646 50.9766 9.375C51.513 9.70833 51.9062 10.0937 52.1562 10.5312C52.4062 10.9635 52.5312 11.4714 52.5312 12.0547C52.5312 13.0026 52.1667 13.7578 51.4375 14.3203C50.7135 14.8776 49.7292 15.1562 48.4844 15.1562C47.6615 15.1562 46.9036 15.0052 46.2109 14.7031C45.5234 14.3958 44.987 13.974 44.6016 13.4375C44.2214 12.901 44.0312 12.276 44.0312 11.5625H46.0078C46.0078 12.2083 46.2214 12.7083 46.6484 13.0625C47.0755 13.4167 47.6875 13.5937 48.4844 13.5937C49.1719 13.5937 49.6875 13.4557 50.0312 13.1797C50.3802 12.8984 50.5547 12.5286 50.5547 12.0703ZM64.5859 3.625V11.2266C64.5859 12.4349 64.1979 13.3932 63.4219 14.1016C62.651 14.8047 61.6224 15.1562 60.3359 15.1562C59.0339 15.1562 58 14.8099 57.2344 14.1172C56.4688 13.4193 56.0859 12.4531 56.0859 11.2187V3.625L58.0547 3.625V11.2344C58.0547 11.9948 58.2474 12.5755 58.6328 12.9766C59.0182 13.3776 59.5859 13.5781 60.3359 13.5781C61.8568 13.5781 62.6172 12.776 62.6172 11.1719V3.625H64.5859ZM70.6797 10.7734V15H68.7031V3.625L73.0547 3.625C74.3255 3.625 75.3333 3.95573 76.0781 4.61719C76.8281 5.27865 77.2031 6.15365 77.2031 7.24219C77.2031 8.35677 76.8359 9.22396 76.1016 9.84375C75.3724 10.4635 74.349 10.7734 73.0312 10.7734L70.6797 10.7734ZM70.6797 9.1875L73.0547 9.1875C73.7578 9.1875 74.2943 9.02344 74.6641 8.69531C75.0339 8.36198 75.2188 7.88281 75.2188 7.25781C75.2188 6.64323 75.0312 6.15365 74.6562 5.78906C74.2812 5.41927 73.7656 5.22917 73.1094 5.21875H70.6797V9.1875ZM82.9141 10.7734V15L80.9375 15V3.625L85.2891 3.625C86.5599 3.625 87.5677 3.95573 88.3125 4.61719C89.0625 5.27865 89.4375 6.15365 89.4375 7.24219C89.4375 8.35677 89.0703 9.22396 88.3359 9.84375C87.6068 10.4635 86.5833 10.7734 85.2656 10.7734H82.9141ZM82.9141 9.1875H85.2891C85.9922 9.1875 86.5286 9.02344 86.8984 8.69531C87.2682 8.36198 87.4531 7.88281 87.4531 7.25781C87.4531 6.64323 87.2656 6.15365 86.8906 5.78906C86.5156 5.41927 86 5.22917 85.3438 5.21875H82.9141V9.1875ZM102.25 9.60937C102.25 10.724 102.057 11.7031 101.672 12.5469C101.286 13.3854 100.734 14.0312 100.016 14.4844C99.3021 14.9323 98.4792 15.1562 97.5469 15.1562C96.625 15.1562 95.8021 14.9323 95.0781 14.4844C94.3594 14.0312 93.8021 13.388 93.4062 12.5547C93.0156 11.7214 92.8177 10.7604 92.8125 9.67187V9.03125C92.8125 7.92187 93.0078 6.94271 93.3984 6.09375C93.7943 5.24479 94.349 4.59635 95.0625 4.14844C95.7812 3.69531 96.6042 3.46875 97.5312 3.46875C98.4583 3.46875 99.2786 3.69271 99.9922 4.14062C100.711 4.58333 101.266 5.22396 101.656 6.0625C102.047 6.89583 102.245 7.86719 102.25 8.97656V9.60937ZM100.273 9.01562C100.273 7.75521 100.034 6.78906 99.5547 6.11719C99.0807 5.44531 98.4062 5.10937 97.5312 5.10937C96.6771 5.10937 96.0078 5.44531 95.5234 6.11719C95.0443 6.78385 94.7995 7.72917 94.7891 8.95312V9.60937C94.7891 10.8594 95.0312 11.8255 95.5156 12.5078C96.0052 13.1901 96.6823 13.5312 97.5469 13.5312C98.4219 13.5312 99.0938 13.1979 99.5625 12.5312C100.036 11.8646 100.273 10.8906 100.273 9.60937V9.01562ZM110.398 10.6172H108.195V15H106.219V3.625L110.219 3.625C111.531 3.625 112.544 3.91927 113.258 4.50781C113.971 5.09635 114.328 5.94792 114.328 7.0625C114.328 7.82292 114.143 8.46094 113.773 8.97656C113.409 9.48698 112.898 9.88021 112.242 10.1562L114.797 14.8984V15H112.68L110.398 10.6172ZM108.195 9.03125H110.227C110.893 9.03125 111.414 8.86458 111.789 8.53125C112.164 8.19271 112.352 7.73177 112.352 7.14844C112.352 6.53906 112.177 6.06771 111.828 5.73437C111.484 5.40104 110.969 5.22917 110.281 5.21875H108.195V9.03125ZM126.031 5.21875L122.484 5.21875V15H120.523V5.21875L117.008 5.21875V3.625L126.031 3.625V5.21875ZM136.18 9.92187H131.508V13.4219H136.969V15H129.531V3.625L136.914 3.625V5.21875L131.508 5.21875V8.35937H136.18V9.92187ZM144.758 10.6172H142.555V15H140.578V3.625L144.578 3.625C145.891 3.625 146.904 3.91927 147.617 4.50781C148.331 5.09635 148.688 5.94792 148.688 7.0625C148.688 7.82292 148.503 8.46094 148.133 8.97656C147.768 9.48698 147.258 9.88021 146.602 10.1562L149.156 14.8984V15L147.039 15L144.758 10.6172ZM142.555 9.03125H144.586C145.253 9.03125 145.773 8.86458 146.148 8.53125C146.523 8.19271 146.711 7.73177 146.711 7.14844C146.711 6.53906 146.536 6.06771 146.188 5.73437C145.844 5.40104 145.328 5.22917 144.641 5.21875H142.555V9.03125ZM158.508 12.0703C158.508 11.5703 158.331 11.1849 157.977 10.9141C157.628 10.6432 156.995 10.3698 156.078 10.0937C155.161 9.81771 154.432 9.51042 153.891 9.17187C152.854 8.52083 152.336 7.67187 152.336 6.625C152.336 5.70833 152.708 4.95312 153.453 4.35937C154.203 3.76562 155.174 3.46875 156.367 3.46875C157.159 3.46875 157.865 3.61458 158.484 3.90625C159.104 4.19792 159.591 4.61458 159.945 5.15625C160.299 5.69271 160.477 6.28906 160.477 6.94531H158.508C158.508 6.35156 158.32 5.88802 157.945 5.55469C157.576 5.21615 157.044 5.04687 156.352 5.04687C155.706 5.04687 155.203 5.1849 154.844 5.46094C154.49 5.73698 154.312 6.1224 154.312 6.61719C154.312 7.03385 154.505 7.38281 154.891 7.66406C155.276 7.9401 155.911 8.21094 156.797 8.47656C157.682 8.73698 158.393 9.03646 158.93 9.375C159.466 9.70833 159.859 10.0937 160.109 10.5312C160.359 10.9635 160.484 11.4714 160.484 12.0547C160.484 13.0026 160.12 13.7578 159.391 14.3203C158.667 14.8776 157.682 15.1562 156.438 15.1562C155.615 15.1562 154.857 15.0052 154.164 14.7031C153.477 14.3958 152.94 13.974 152.555 13.4375C152.174 12.901 151.984 12.276 151.984 11.5625H153.961C153.961 12.2083 154.174 12.7083 154.602 13.0625C155.029 13.4167 155.641 13.5937 156.438 13.5937C157.125 13.5937 157.641 13.4557 157.984 13.1797C158.333 12.8984 158.508 12.5286 158.508 12.0703Z" fill="#1D2130"/>
</svg>
